<?xml version="1.0" encoding="utf-8" standalone="no"?>
<!DOCTYPE svg PUBLIC "-//W3C//DTD SVG 1.1//EN"
  "http://www.w3.org/Graphics/SVG/1.1/DTD/svg11.dtd">
<!-- Created with matplotlib (https://matplotlib.org/) -->
<svg height="360pt" version="1.1" viewBox="0 0 955.1 360" width="955.1pt" xmlns="http://www.w3.org/2000/svg" xmlns:xlink="http://www.w3.org/1999/xlink">
 <defs>
  <style type="text/css">
*{stroke-linecap:butt;stroke-linejoin:round;}
  </style>
 </defs>
 <g id="figure_1">
  <g id="patch_1">
   <path d="M 0 360 
L 955.1 360 
L 955.1 0 
L 0 0 
z
" style="fill:#ffffff;"/>
  </g>
  <g id="axes_1">
   <g id="patch_2">
    <path d="M 62.293744 313.493125 
L 380.008437 313.493125 
L 380.008437 26.96 
L 62.293744 26.96 
z
" style="fill:#ffffff;"/>
   </g>
   <g id="matplotlib.axis_1">
    <g id="xtick_1">
     <g id="text_1">
      <!-- 1 -->
      <defs>
       <path d="M 37.25 0 
L 28.46875 0 
L 28.46875 56 
Q 25.296875 52.984375 20.140625 49.953125 
Q 14.984375 46.921875 10.890625 45.40625 
L 10.890625 53.90625 
Q 18.265625 57.375 23.78125 62.296875 
Q 29.296875 67.234375 31.59375 71.875 
L 37.25 71.875 
z
" id="ArialMT-49"/>
      </defs>
      <g style="fill:#262626;" transform="translate(218.092575 330.866719)scale(0.11 -0.11)">
       <use xlink:href="#ArialMT-49"/>
      </g>
     </g>
    </g>
    <g id="text_2">
     <!-- offer_completed -->
     <defs>
      <path d="M 3.328125 25.921875 
Q 3.328125 40.328125 11.328125 47.265625 
Q 18.015625 53.03125 27.640625 53.03125 
Q 38.328125 53.03125 45.109375 46.015625 
Q 51.90625 39.015625 51.90625 26.65625 
Q 51.90625 16.65625 48.90625 10.90625 
Q 45.90625 5.171875 40.15625 2 
Q 34.421875 -1.171875 27.640625 -1.171875 
Q 16.75 -1.171875 10.03125 5.8125 
Q 3.328125 12.796875 3.328125 25.921875 
z
M 12.359375 25.921875 
Q 12.359375 15.96875 16.703125 11.015625 
Q 21.046875 6.0625 27.640625 6.0625 
Q 34.1875 6.0625 38.53125 11.03125 
Q 42.875 16.015625 42.875 26.21875 
Q 42.875 35.84375 38.5 40.796875 
Q 34.125 45.75 27.640625 45.75 
Q 21.046875 45.75 16.703125 40.8125 
Q 12.359375 35.890625 12.359375 25.921875 
z
" id="ArialMT-111"/>
      <path d="M 8.6875 0 
L 8.6875 45.015625 
L 0.921875 45.015625 
L 0.921875 51.859375 
L 8.6875 51.859375 
L 8.6875 57.375 
Q 8.6875 62.59375 9.625 65.140625 
Q 10.890625 68.5625 14.078125 70.671875 
Q 17.28125 72.796875 23.046875 72.796875 
Q 26.765625 72.796875 31.25 71.921875 
L 29.9375 64.265625 
Q 27.203125 64.75 24.75 64.75 
Q 20.75 64.75 19.09375 63.03125 
Q 17.4375 61.328125 17.4375 56.640625 
L 17.4375 51.859375 
L 27.546875 51.859375 
L 27.546875 45.015625 
L 17.4375 45.015625 
L 17.4375 0 
z
" id="ArialMT-102"/>
      <path d="M 42.09375 16.703125 
L 51.171875 15.578125 
Q 49.03125 7.625 43.21875 3.21875 
Q 37.40625 -1.171875 28.375 -1.171875 
Q 17 -1.171875 10.328125 5.828125 
Q 3.65625 12.84375 3.65625 25.484375 
Q 3.65625 38.578125 10.390625 45.796875 
Q 17.140625 53.03125 27.875 53.03125 
Q 38.28125 53.03125 44.875 45.953125 
Q 51.46875 38.875 51.46875 26.03125 
Q 51.46875 25.25 51.421875 23.6875 
L 12.75 23.6875 
Q 13.234375 15.140625 17.578125 10.59375 
Q 21.921875 6.0625 28.421875 6.0625 
Q 33.25 6.0625 36.671875 8.59375 
Q 40.09375 11.140625 42.09375 16.703125 
z
M 13.234375 30.90625 
L 42.1875 30.90625 
Q 41.609375 37.453125 38.875 40.71875 
Q 34.671875 45.796875 27.984375 45.796875 
Q 21.921875 45.796875 17.796875 41.75 
Q 13.671875 37.703125 13.234375 30.90625 
z
" id="ArialMT-101"/>
      <path d="M 6.5 0 
L 6.5 51.859375 
L 14.40625 51.859375 
L 14.40625 44 
Q 17.4375 49.515625 20 51.265625 
Q 22.5625 53.03125 25.640625 53.03125 
Q 30.078125 53.03125 34.671875 50.203125 
L 31.640625 42.046875 
Q 28.421875 43.953125 25.203125 43.953125 
Q 22.3125 43.953125 20.015625 42.21875 
Q 17.71875 40.484375 16.75 37.40625 
Q 15.28125 32.71875 15.28125 27.15625 
L 15.28125 0 
z
" id="ArialMT-114"/>
      <path d="M -1.515625 -19.875 
L -1.515625 -13.53125 
L 56.734375 -13.53125 
L 56.734375 -19.875 
z
" id="ArialMT-95"/>
      <path d="M 40.4375 19 
L 49.078125 17.875 
Q 47.65625 8.9375 41.8125 3.875 
Q 35.984375 -1.171875 27.484375 -1.171875 
Q 16.84375 -1.171875 10.375 5.78125 
Q 3.90625 12.75 3.90625 25.734375 
Q 3.90625 34.125 6.6875 40.421875 
Q 9.46875 46.734375 15.15625 49.875 
Q 20.84375 53.03125 27.546875 53.03125 
Q 35.984375 53.03125 41.359375 48.75 
Q 46.734375 44.484375 48.25 36.625 
L 39.703125 35.296875 
Q 38.484375 40.53125 35.375 43.15625 
Q 32.28125 45.796875 27.875 45.796875 
Q 21.234375 45.796875 17.078125 41.03125 
Q 12.9375 36.28125 12.9375 25.984375 
Q 12.9375 15.53125 16.9375 10.796875 
Q 20.953125 6.0625 27.390625 6.0625 
Q 32.5625 6.0625 36.03125 9.234375 
Q 39.5 12.40625 40.4375 19 
z
" id="ArialMT-99"/>
      <path d="M 6.59375 0 
L 6.59375 51.859375 
L 14.453125 51.859375 
L 14.453125 44.578125 
Q 16.890625 48.390625 20.9375 50.703125 
Q 25 53.03125 30.171875 53.03125 
Q 35.9375 53.03125 39.625 50.640625 
Q 43.3125 48.25 44.828125 43.953125 
Q 50.984375 53.03125 60.84375 53.03125 
Q 68.5625 53.03125 72.703125 48.75 
Q 76.859375 44.484375 76.859375 35.59375 
L 76.859375 0 
L 68.109375 0 
L 68.109375 32.671875 
Q 68.109375 37.9375 67.25 40.25 
Q 66.40625 42.578125 64.15625 43.984375 
Q 61.921875 45.40625 58.890625 45.40625 
Q 53.421875 45.40625 49.796875 41.765625 
Q 46.1875 38.140625 46.1875 30.125 
L 46.1875 0 
L 37.40625 0 
L 37.40625 33.6875 
Q 37.40625 39.546875 35.25 42.46875 
Q 33.109375 45.40625 28.21875 45.40625 
Q 24.515625 45.40625 21.359375 43.453125 
Q 18.21875 41.5 16.796875 37.734375 
Q 15.375 33.984375 15.375 26.90625 
L 15.375 0 
z
" id="ArialMT-109"/>
      <path d="M 6.59375 -19.875 
L 6.59375 51.859375 
L 14.59375 51.859375 
L 14.59375 45.125 
Q 17.4375 49.078125 21 51.046875 
Q 24.5625 53.03125 29.640625 53.03125 
Q 36.28125 53.03125 41.359375 49.609375 
Q 46.4375 46.1875 49.015625 39.953125 
Q 51.609375 33.734375 51.609375 26.3125 
Q 51.609375 18.359375 48.75 11.984375 
Q 45.90625 5.609375 40.453125 2.21875 
Q 35.015625 -1.171875 29 -1.171875 
Q 24.609375 -1.171875 21.109375 0.6875 
Q 17.625 2.546875 15.375 5.375 
L 15.375 -19.875 
z
M 14.546875 25.640625 
Q 14.546875 15.625 18.59375 10.84375 
Q 22.65625 6.0625 28.421875 6.0625 
Q 34.28125 6.0625 38.453125 11.015625 
Q 42.625 15.96875 42.625 26.375 
Q 42.625 36.28125 38.546875 41.203125 
Q 34.46875 46.140625 28.8125 46.140625 
Q 23.1875 46.140625 18.859375 40.890625 
Q 14.546875 35.640625 14.546875 25.640625 
z
" id="ArialMT-112"/>
      <path d="M 6.390625 0 
L 6.390625 71.578125 
L 15.1875 71.578125 
L 15.1875 0 
z
" id="ArialMT-108"/>
      <path d="M 25.78125 7.859375 
L 27.046875 0.09375 
Q 23.34375 -0.6875 20.40625 -0.6875 
Q 15.625 -0.6875 12.984375 0.828125 
Q 10.359375 2.34375 9.28125 4.8125 
Q 8.203125 7.28125 8.203125 15.1875 
L 8.203125 45.015625 
L 1.765625 45.015625 
L 1.765625 51.859375 
L 8.203125 51.859375 
L 8.203125 64.703125 
L 16.9375 69.96875 
L 16.9375 51.859375 
L 25.78125 51.859375 
L 25.78125 45.015625 
L 16.9375 45.015625 
L 16.9375 14.703125 
Q 16.9375 10.9375 17.40625 9.859375 
Q 17.875 8.796875 18.921875 8.15625 
Q 19.96875 7.515625 21.921875 7.515625 
Q 23.390625 7.515625 25.78125 7.859375 
z
" id="ArialMT-116"/>
      <path d="M 40.234375 0 
L 40.234375 6.546875 
Q 35.296875 -1.171875 25.734375 -1.171875 
Q 19.53125 -1.171875 14.328125 2.25 
Q 9.125 5.671875 6.265625 11.796875 
Q 3.421875 17.921875 3.421875 25.875 
Q 3.421875 33.640625 6 39.96875 
Q 8.59375 46.296875 13.765625 49.65625 
Q 18.953125 53.03125 25.34375 53.03125 
Q 30.03125 53.03125 33.6875 51.046875 
Q 37.359375 49.078125 39.65625 45.90625 
L 39.65625 71.578125 
L 48.390625 71.578125 
L 48.390625 0 
z
M 12.453125 25.875 
Q 12.453125 15.921875 16.640625 10.984375 
Q 20.84375 6.0625 26.5625 6.0625 
Q 32.328125 6.0625 36.34375 10.765625 
Q 40.375 15.484375 40.375 25.140625 
Q 40.375 35.796875 36.265625 40.765625 
Q 32.171875 45.75 26.171875 45.75 
Q 20.3125 45.75 16.375 40.96875 
Q 12.453125 36.1875 12.453125 25.875 
z
" id="ArialMT-100"/>
     </defs>
     <g style="fill:#262626;" transform="translate(178.130153 345.788594)scale(0.12 -0.12)">
      <use xlink:href="#ArialMT-111"/>
      <use x="55.615234" xlink:href="#ArialMT-102"/>
      <use x="83.382812" xlink:href="#ArialMT-102"/>
      <use x="111.166016" xlink:href="#ArialMT-101"/>
      <use x="166.78125" xlink:href="#ArialMT-114"/>
      <use x="200.082031" xlink:href="#ArialMT-95"/>
      <use x="255.697266" xlink:href="#ArialMT-99"/>
      <use x="305.697266" xlink:href="#ArialMT-111"/>
      <use x="361.3125" xlink:href="#ArialMT-109"/>
      <use x="444.613281" xlink:href="#ArialMT-112"/>
      <use x="500.228516" xlink:href="#ArialMT-108"/>
      <use x="522.445312" xlink:href="#ArialMT-101"/>
      <use x="578.060547" xlink:href="#ArialMT-116"/>
      <use x="605.84375" xlink:href="#ArialMT-101"/>
      <use x="661.458984" xlink:href="#ArialMT-100"/>
     </g>
    </g>
   </g>
   <g id="matplotlib.axis_2">
    <g id="ytick_1">
     <g id="line2d_1">
      <path clip-path="url(#pd16bae0024)" d="M 62.293744 313.493125 
L 380.008437 313.493125 
" style="fill:none;stroke:#cccccc;stroke-linecap:round;"/>
     </g>
     <g id="text_3">
      <!-- 0 -->
      <defs>
       <path d="M 4.15625 35.296875 
Q 4.15625 48 6.765625 55.734375 
Q 9.375 63.484375 14.515625 67.671875 
Q 19.671875 71.875 27.484375 71.875 
Q 33.25 71.875 37.59375 69.546875 
Q 41.9375 67.234375 44.765625 62.859375 
Q 47.609375 58.5 49.21875 52.21875 
Q 50.828125 45.953125 50.828125 35.296875 
Q 50.828125 22.703125 48.234375 14.96875 
Q 45.65625 7.234375 40.5 3 
Q 35.359375 -1.21875 27.484375 -1.21875 
Q 17.140625 -1.21875 11.234375 6.203125 
Q 4.15625 15.140625 4.15625 35.296875 
z
M 13.1875 35.296875 
Q 13.1875 17.671875 17.3125 11.828125 
Q 21.4375 6 27.484375 6 
Q 33.546875 6 37.671875 11.859375 
Q 41.796875 17.71875 41.796875 35.296875 
Q 41.796875 52.984375 37.671875 58.78125 
Q 33.546875 64.59375 27.390625 64.59375 
Q 21.34375 64.59375 17.71875 59.46875 
Q 13.1875 52.9375 13.1875 35.296875 
z
" id="ArialMT-48"/>
      </defs>
      <g style="fill:#262626;" transform="translate(46.676713 317.429922)scale(0.11 -0.11)">
       <use xlink:href="#ArialMT-48"/>
      </g>
     </g>
    </g>
    <g id="ytick_2">
     <g id="line2d_2">
      <path clip-path="url(#pd16bae0024)" d="M 62.293744 263.586634 
L 380.008437 263.586634 
" style="fill:none;stroke:#cccccc;stroke-linecap:round;"/>
     </g>
     <g id="text_4">
      <!-- 500 -->
      <defs>
       <path d="M 4.15625 18.75 
L 13.375 19.53125 
Q 14.40625 12.796875 18.140625 9.390625 
Q 21.875 6 27.15625 6 
Q 33.5 6 37.890625 10.78125 
Q 42.28125 15.578125 42.28125 23.484375 
Q 42.28125 31 38.0625 35.34375 
Q 33.84375 39.703125 27 39.703125 
Q 22.75 39.703125 19.328125 37.765625 
Q 15.921875 35.84375 13.96875 32.765625 
L 5.71875 33.84375 
L 12.640625 70.609375 
L 48.25 70.609375 
L 48.25 62.203125 
L 19.671875 62.203125 
L 15.828125 42.96875 
Q 22.265625 47.46875 29.34375 47.46875 
Q 38.71875 47.46875 45.15625 40.96875 
Q 51.609375 34.46875 51.609375 24.265625 
Q 51.609375 14.546875 45.953125 7.46875 
Q 39.0625 -1.21875 27.15625 -1.21875 
Q 17.390625 -1.21875 11.203125 4.25 
Q 5.03125 9.71875 4.15625 18.75 
z
" id="ArialMT-53"/>
      </defs>
      <g style="fill:#262626;" transform="translate(34.442651 267.523431)scale(0.11 -0.11)">
       <use xlink:href="#ArialMT-53"/>
       <use x="55.615234" xlink:href="#ArialMT-48"/>
       <use x="111.230469" xlink:href="#ArialMT-48"/>
      </g>
     </g>
    </g>
    <g id="ytick_3">
     <g id="line2d_3">
      <path clip-path="url(#pd16bae0024)" d="M 62.293744 213.680144 
L 380.008437 213.680144 
" style="fill:none;stroke:#cccccc;stroke-linecap:round;"/>
     </g>
     <g id="text_5">
      <!-- 1000 -->
      <g style="fill:#262626;" transform="translate(28.325619 217.616941)scale(0.11 -0.11)">
       <use xlink:href="#ArialMT-49"/>
       <use x="55.615234" xlink:href="#ArialMT-48"/>
       <use x="111.230469" xlink:href="#ArialMT-48"/>
       <use x="166.845703" xlink:href="#ArialMT-48"/>
      </g>
     </g>
    </g>
    <g id="ytick_4">
     <g id="line2d_4">
      <path clip-path="url(#pd16bae0024)" d="M 62.293744 163.773653 
L 380.008437 163.773653 
" style="fill:none;stroke:#cccccc;stroke-linecap:round;"/>
     </g>
     <g id="text_6">
      <!-- 1500 -->
      <g style="fill:#262626;" transform="translate(28.325619 167.71045)scale(0.11 -0.11)">
       <use xlink:href="#ArialMT-49"/>
       <use x="55.615234" xlink:href="#ArialMT-53"/>
       <use x="111.230469" xlink:href="#ArialMT-48"/>
       <use x="166.845703" xlink:href="#ArialMT-48"/>
      </g>
     </g>
    </g>
    <g id="ytick_5">
     <g id="line2d_5">
      <path clip-path="url(#pd16bae0024)" d="M 62.293744 113.867163 
L 380.008437 113.867163 
" style="fill:none;stroke:#cccccc;stroke-linecap:round;"/>
     </g>
     <g id="text_7">
      <!-- 2000 -->
      <defs>
       <path d="M 50.34375 8.453125 
L 50.34375 0 
L 3.03125 0 
Q 2.9375 3.171875 4.046875 6.109375 
Q 5.859375 10.9375 9.828125 15.625 
Q 13.8125 20.3125 21.34375 26.46875 
Q 33.015625 36.03125 37.109375 41.625 
Q 41.21875 47.21875 41.21875 52.203125 
Q 41.21875 57.421875 37.46875 61 
Q 33.734375 64.59375 27.734375 64.59375 
Q 21.390625 64.59375 17.578125 60.78125 
Q 13.765625 56.984375 13.71875 50.25 
L 4.6875 51.171875 
Q 5.609375 61.28125 11.65625 66.578125 
Q 17.71875 71.875 27.9375 71.875 
Q 38.234375 71.875 44.234375 66.15625 
Q 50.25 60.453125 50.25 52 
Q 50.25 47.703125 48.484375 43.546875 
Q 46.734375 39.40625 42.65625 34.8125 
Q 38.578125 30.21875 29.109375 22.21875 
Q 21.1875 15.578125 18.9375 13.203125 
Q 16.703125 10.84375 15.234375 8.453125 
z
" id="ArialMT-50"/>
      </defs>
      <g style="fill:#262626;" transform="translate(28.325619 117.80396)scale(0.11 -0.11)">
       <use xlink:href="#ArialMT-50"/>
       <use x="55.615234" xlink:href="#ArialMT-48"/>
       <use x="111.230469" xlink:href="#ArialMT-48"/>
       <use x="166.845703" xlink:href="#ArialMT-48"/>
      </g>
     </g>
    </g>
    <g id="ytick_6">
     <g id="line2d_6">
      <path clip-path="url(#pd16bae0024)" d="M 62.293744 63.960672 
L 380.008437 63.960672 
" style="fill:none;stroke:#cccccc;stroke-linecap:round;"/>
     </g>
     <g id="text_8">
      <!-- 2500 -->
      <g style="fill:#262626;" transform="translate(28.325619 67.897469)scale(0.11 -0.11)">
       <use xlink:href="#ArialMT-50"/>
       <use x="55.615234" xlink:href="#ArialMT-53"/>
       <use x="111.230469" xlink:href="#ArialMT-48"/>
       <use x="166.845703" xlink:href="#ArialMT-48"/>
      </g>
     </g>
    </g>
    <g id="text_9">
     <!-- count -->
     <defs>
      <path d="M 40.578125 0 
L 40.578125 7.625 
Q 34.515625 -1.171875 24.125 -1.171875 
Q 19.53125 -1.171875 15.546875 0.578125 
Q 11.578125 2.34375 9.640625 5 
Q 7.71875 7.671875 6.9375 11.53125 
Q 6.390625 14.109375 6.390625 19.734375 
L 6.390625 51.859375 
L 15.1875 51.859375 
L 15.1875 23.09375 
Q 15.1875 16.21875 15.71875 13.8125 
Q 16.546875 10.359375 19.234375 8.375 
Q 21.921875 6.390625 25.875 6.390625 
Q 29.828125 6.390625 33.296875 8.421875 
Q 36.765625 10.453125 38.203125 13.9375 
Q 39.65625 17.4375 39.65625 24.078125 
L 39.65625 51.859375 
L 48.4375 51.859375 
L 48.4375 0 
z
" id="ArialMT-117"/>
      <path d="M 6.59375 0 
L 6.59375 51.859375 
L 14.5 51.859375 
L 14.5 44.484375 
Q 20.21875 53.03125 31 53.03125 
Q 35.6875 53.03125 39.625 51.34375 
Q 43.5625 49.65625 45.515625 46.921875 
Q 47.46875 44.1875 48.25 40.4375 
Q 48.734375 37.984375 48.734375 31.890625 
L 48.734375 0 
L 39.9375 0 
L 39.9375 31.546875 
Q 39.9375 36.921875 38.90625 39.578125 
Q 37.890625 42.234375 35.28125 43.8125 
Q 32.671875 45.40625 29.15625 45.40625 
Q 23.53125 45.40625 19.453125 41.84375 
Q 15.375 38.28125 15.375 28.328125 
L 15.375 0 
z
" id="ArialMT-110"/>
     </defs>
     <g style="fill:#262626;" transform="translate(21.940619 184.903125)rotate(-90)scale(0.12 -0.12)">
      <use xlink:href="#ArialMT-99"/>
      <use x="50" xlink:href="#ArialMT-111"/>
      <use x="105.615234" xlink:href="#ArialMT-117"/>
      <use x="161.230469" xlink:href="#ArialMT-110"/>
      <use x="216.845703" xlink:href="#ArialMT-116"/>
     </g>
    </g>
   </g>
   <g id="patch_3">
    <path clip-path="url(#pd16bae0024)" d="M 94.065214 313.493125 
L 119.482389 313.493125 
L 119.482389 162.975149 
L 94.065214 162.975149 
z
" style="fill:#5875a4;stroke:#ffffff;stroke-linejoin:miter;"/>
   </g>
   <g id="patch_4">
    <path clip-path="url(#pd16bae0024)" d="M 119.482389 313.493125 
L 144.899565 313.493125 
L 144.899565 135.925832 
L 119.482389 135.925832 
z
" style="fill:#cc8963;stroke:#ffffff;stroke-linejoin:miter;"/>
   </g>
   <g id="patch_5">
    <path clip-path="url(#pd16bae0024)" d="M 144.899565 313.493125 
L 170.31674 313.493125 
L 170.31674 127.042476 
L 144.899565 127.042476 
z
" style="fill:#5f9e6e;stroke:#ffffff;stroke-linejoin:miter;"/>
   </g>
   <g id="patch_6">
    <path clip-path="url(#pd16bae0024)" d="M 170.31674 313.493125 
L 195.733915 313.493125 
L 195.733915 93.106063 
L 170.31674 93.106063 
z
" style="fill:#b55d60;stroke:#ffffff;stroke-linejoin:miter;"/>
   </g>
   <g id="patch_7">
    <path clip-path="url(#pd16bae0024)" d="M 195.733915 313.493125 
L 221.151091 313.493125 
L 221.151091 168.864115 
L 195.733915 168.864115 
z
" style="fill:#857aab;stroke:#ffffff;stroke-linejoin:miter;"/>
   </g>
   <g id="patch_8">
    <path clip-path="url(#pd16bae0024)" d="M 221.151091 313.493125 
L 246.568266 313.493125 
L 246.568266 169.962058 
L 221.151091 169.962058 
z
" style="fill:#8d7866;stroke:#ffffff;stroke-linejoin:miter;"/>
   </g>
   <g id="patch_9">
    <path clip-path="url(#pd16bae0024)" d="M 246.568266 313.493125 
L 271.985442 313.493125 
L 271.985442 139.618912 
L 246.568266 139.618912 
z
" style="fill:#d095bf;stroke:#ffffff;stroke-linejoin:miter;"/>
   </g>
   <g id="patch_10">
    <path clip-path="url(#pd16bae0024)" d="M 271.985442 313.493125 
L 297.402617 313.493125 
L 297.402617 96.000639 
L 271.985442 96.000639 
z
" style="fill:#8c8c8c;stroke:#ffffff;stroke-linejoin:miter;"/>
   </g>
   <g id="patch_11">
    <path clip-path="url(#pd16bae0024)" d="M 297.402617 313.493125 
L 322.819793 313.493125 
L 322.819793 289.53801 
L 297.402617 289.53801 
z
" style="fill:#c1b37f;stroke:#ffffff;stroke-linejoin:miter;"/>
   </g>
   <g id="patch_12">
    <path clip-path="url(#pd16bae0024)" d="M 322.819793 313.493125 
L 348.236968 313.493125 
L 348.236968 296.325292 
L 322.819793 296.325292 
z
" style="fill:#71aec0;stroke:#ffffff;stroke-linejoin:miter;"/>
   </g>
   <g id="patch_13">
    <path d="M 62.293744 313.493125 
L 62.293744 26.96 
" style="fill:none;stroke:#cccccc;stroke-linecap:square;stroke-linejoin:miter;stroke-width:1.25;"/>
   </g>
   <g id="patch_14">
    <path d="M 62.293744 313.493125 
L 380.008437 313.493125 
" style="fill:none;stroke:#cccccc;stroke-linecap:square;stroke-linejoin:miter;stroke-width:1.25;"/>
   </g>
   <g id="text_10">
    <!-- gender = F -->
    <defs>
     <path d="M 4.984375 -4.296875 
L 13.53125 -5.5625 
Q 14.0625 -9.515625 16.5 -11.328125 
Q 19.78125 -13.765625 25.4375 -13.765625 
Q 31.546875 -13.765625 34.859375 -11.328125 
Q 38.1875 -8.890625 39.359375 -4.5 
Q 40.046875 -1.8125 39.984375 6.78125 
Q 34.234375 0 25.640625 0 
Q 14.9375 0 9.078125 7.71875 
Q 3.21875 15.4375 3.21875 26.21875 
Q 3.21875 33.640625 5.90625 39.90625 
Q 8.59375 46.1875 13.6875 49.609375 
Q 18.796875 53.03125 25.6875 53.03125 
Q 34.859375 53.03125 40.828125 45.609375 
L 40.828125 51.859375 
L 48.921875 51.859375 
L 48.921875 7.03125 
Q 48.921875 -5.078125 46.453125 -10.125 
Q 44 -15.1875 38.640625 -18.109375 
Q 33.296875 -21.046875 25.484375 -21.046875 
Q 16.21875 -21.046875 10.5 -16.875 
Q 4.78125 -12.703125 4.984375 -4.296875 
z
M 12.25 26.859375 
Q 12.25 16.65625 16.296875 11.96875 
Q 20.359375 7.28125 26.46875 7.28125 
Q 32.515625 7.28125 36.609375 11.9375 
Q 40.71875 16.609375 40.71875 26.5625 
Q 40.71875 36.078125 36.5 40.90625 
Q 32.28125 45.75 26.3125 45.75 
Q 20.453125 45.75 16.34375 40.984375 
Q 12.25 36.234375 12.25 26.859375 
z
" id="ArialMT-103"/>
     <path id="ArialMT-32"/>
     <path d="M 52.828125 42.09375 
L 5.5625 42.09375 
L 5.5625 50.296875 
L 52.828125 50.296875 
z
M 52.828125 20.359375 
L 5.5625 20.359375 
L 5.5625 28.5625 
L 52.828125 28.5625 
z
" id="ArialMT-61"/>
     <path d="M 8.203125 0 
L 8.203125 71.578125 
L 56.5 71.578125 
L 56.5 63.140625 
L 17.671875 63.140625 
L 17.671875 40.96875 
L 51.265625 40.96875 
L 51.265625 32.515625 
L 17.671875 32.515625 
L 17.671875 0 
z
" id="ArialMT-70"/>
    </defs>
    <g style="fill:#262626;" transform="translate(191.967653 20.96)scale(0.12 -0.12)">
     <use xlink:href="#ArialMT-103"/>
     <use x="55.615234" xlink:href="#ArialMT-101"/>
     <use x="111.230469" xlink:href="#ArialMT-110"/>
     <use x="166.845703" xlink:href="#ArialMT-100"/>
     <use x="222.460938" xlink:href="#ArialMT-101"/>
     <use x="278.076172" xlink:href="#ArialMT-114"/>
     <use x="311.376953" xlink:href="#ArialMT-32"/>
     <use x="339.160156" xlink:href="#ArialMT-61"/>
     <use x="397.558594" xlink:href="#ArialMT-32"/>
     <use x="425.341797" xlink:href="#ArialMT-70"/>
    </g>
   </g>
  </g>
  <g id="axes_2">
   <g id="patch_15">
    <path d="M 392.734307 313.493125 
L 710.449 313.493125 
L 710.449 26.96 
L 392.734307 26.96 
z
" style="fill:#ffffff;"/>
   </g>
   <g id="matplotlib.axis_3">
    <g id="xtick_2">
     <g id="text_11">
      <!-- 1 -->
      <g style="fill:#262626;" transform="translate(548.533138 330.866719)scale(0.11 -0.11)">
       <use xlink:href="#ArialMT-49"/>
      </g>
     </g>
    </g>
    <g id="text_12">
     <!-- offer_completed -->
     <g style="fill:#262626;" transform="translate(508.570716 345.788594)scale(0.12 -0.12)">
      <use xlink:href="#ArialMT-111"/>
      <use x="55.615234" xlink:href="#ArialMT-102"/>
      <use x="83.382812" xlink:href="#ArialMT-102"/>
      <use x="111.166016" xlink:href="#ArialMT-101"/>
      <use x="166.78125" xlink:href="#ArialMT-114"/>
      <use x="200.082031" xlink:href="#ArialMT-95"/>
      <use x="255.697266" xlink:href="#ArialMT-99"/>
      <use x="305.697266" xlink:href="#ArialMT-111"/>
      <use x="361.3125" xlink:href="#ArialMT-109"/>
      <use x="444.613281" xlink:href="#ArialMT-112"/>
      <use x="500.228516" xlink:href="#ArialMT-108"/>
      <use x="522.445312" xlink:href="#ArialMT-101"/>
      <use x="578.060547" xlink:href="#ArialMT-116"/>
      <use x="605.84375" xlink:href="#ArialMT-101"/>
      <use x="661.458984" xlink:href="#ArialMT-100"/>
     </g>
    </g>
   </g>
   <g id="matplotlib.axis_4">
    <g id="ytick_7">
     <g id="line2d_7">
      <path clip-path="url(#p42d0c44431)" d="M 392.734307 313.493125 
L 710.449 313.493125 
" style="fill:none;stroke:#cccccc;stroke-linecap:round;"/>
     </g>
    </g>
    <g id="ytick_8">
     <g id="line2d_8">
      <path clip-path="url(#p42d0c44431)" d="M 392.734307 263.586634 
L 710.449 263.586634 
" style="fill:none;stroke:#cccccc;stroke-linecap:round;"/>
     </g>
    </g>
    <g id="ytick_9">
     <g id="line2d_9">
      <path clip-path="url(#p42d0c44431)" d="M 392.734307 213.680144 
L 710.449 213.680144 
" style="fill:none;stroke:#cccccc;stroke-linecap:round;"/>
     </g>
    </g>
    <g id="ytick_10">
     <g id="line2d_10">
      <path clip-path="url(#p42d0c44431)" d="M 392.734307 163.773653 
L 710.449 163.773653 
" style="fill:none;stroke:#cccccc;stroke-linecap:round;"/>
     </g>
    </g>
    <g id="ytick_11">
     <g id="line2d_11">
      <path clip-path="url(#p42d0c44431)" d="M 392.734307 113.867163 
L 710.449 113.867163 
" style="fill:none;stroke:#cccccc;stroke-linecap:round;"/>
     </g>
    </g>
    <g id="ytick_12">
     <g id="line2d_12">
      <path clip-path="url(#p42d0c44431)" d="M 392.734307 63.960672 
L 710.449 63.960672 
" style="fill:none;stroke:#cccccc;stroke-linecap:round;"/>
     </g>
    </g>
   </g>
   <g id="patch_16">
    <path clip-path="url(#p42d0c44431)" d="M 424.505776 313.493125 
L 449.922952 313.493125 
L 449.922952 148.60208 
L 424.505776 148.60208 
z
" style="fill:#5875a4;stroke:#ffffff;stroke-linejoin:miter;"/>
   </g>
   <g id="patch_17">
    <path clip-path="url(#p42d0c44431)" d="M 449.922952 313.493125 
L 475.340127 313.493125 
L 475.340127 132.432377 
L 449.922952 132.432377 
z
" style="fill:#cc8963;stroke:#ffffff;stroke-linejoin:miter;"/>
   </g>
   <g id="patch_18">
    <path clip-path="url(#p42d0c44431)" d="M 475.340127 313.493125 
L 500.757303 313.493125 
L 500.757303 101.989418 
L 475.340127 101.989418 
z
" style="fill:#5f9e6e;stroke:#ffffff;stroke-linejoin:miter;"/>
   </g>
   <g id="patch_19">
    <path clip-path="url(#p42d0c44431)" d="M 500.757303 313.493125 
L 526.174478 313.493125 
L 526.174478 40.604435 
L 500.757303 40.604435 
z
" style="fill:#b55d60;stroke:#ffffff;stroke-linejoin:miter;"/>
   </g>
   <g id="patch_20">
    <path clip-path="url(#p42d0c44431)" d="M 526.174478 313.493125 
L 551.591654 313.493125 
L 551.591654 147.703763 
L 526.174478 147.703763 
z
" style="fill:#857aab;stroke:#ffffff;stroke-linejoin:miter;"/>
   </g>
   <g id="patch_21">
    <path clip-path="url(#p42d0c44431)" d="M 551.591654 313.493125 
L 577.008829 313.493125 
L 577.008829 155.988241 
L 551.591654 155.988241 
z
" style="fill:#8d7866;stroke:#ffffff;stroke-linejoin:miter;"/>
   </g>
   <g id="patch_22">
    <path clip-path="url(#p42d0c44431)" d="M 577.008829 313.493125 
L 602.426004 313.493125 
L 602.426004 151.496657 
L 577.008829 151.496657 
z
" style="fill:#d095bf;stroke:#ffffff;stroke-linejoin:miter;"/>
   </g>
   <g id="patch_23">
    <path clip-path="url(#p42d0c44431)" d="M 602.426004 313.493125 
L 627.84318 313.493125 
L 627.84318 54.478439 
L 602.426004 54.478439 
z
" style="fill:#8c8c8c;stroke:#ffffff;stroke-linejoin:miter;"/>
   </g>
   <g id="patch_24">
    <path clip-path="url(#p42d0c44431)" d="M 627.84318 313.493125 
L 653.260355 313.493125 
L 653.260355 286.743246 
L 627.84318 286.743246 
z
" style="fill:#c1b37f;stroke:#ffffff;stroke-linejoin:miter;"/>
   </g>
   <g id="patch_25">
    <path clip-path="url(#p42d0c44431)" d="M 653.260355 313.493125 
L 678.677531 313.493125 
L 678.677531 290.635952 
L 653.260355 290.635952 
z
" style="fill:#71aec0;stroke:#ffffff;stroke-linejoin:miter;"/>
   </g>
   <g id="patch_26">
    <path d="M 392.734307 313.493125 
L 392.734307 26.96 
" style="fill:none;stroke:#cccccc;stroke-linecap:square;stroke-linejoin:miter;stroke-width:1.25;"/>
   </g>
   <g id="patch_27">
    <path d="M 392.734307 313.493125 
L 710.449 313.493125 
" style="fill:none;stroke:#cccccc;stroke-linecap:square;stroke-linejoin:miter;stroke-width:1.25;"/>
   </g>
   <g id="text_13">
    <!-- gender = M -->
    <defs>
     <path d="M 7.421875 0 
L 7.421875 71.578125 
L 21.6875 71.578125 
L 38.625 20.90625 
Q 40.96875 13.8125 42.046875 10.296875 
Q 43.265625 14.203125 45.84375 21.78125 
L 62.984375 71.578125 
L 75.734375 71.578125 
L 75.734375 0 
L 66.609375 0 
L 66.609375 59.90625 
L 45.796875 0 
L 37.25 0 
L 16.546875 60.9375 
L 16.546875 0 
z
" id="ArialMT-77"/>
    </defs>
    <g style="fill:#262626;" transform="translate(521.075091 20.96)scale(0.12 -0.12)">
     <use xlink:href="#ArialMT-103"/>
     <use x="55.615234" xlink:href="#ArialMT-101"/>
     <use x="111.230469" xlink:href="#ArialMT-110"/>
     <use x="166.845703" xlink:href="#ArialMT-100"/>
     <use x="222.460938" xlink:href="#ArialMT-101"/>
     <use x="278.076172" xlink:href="#ArialMT-114"/>
     <use x="311.376953" xlink:href="#ArialMT-32"/>
     <use x="339.160156" xlink:href="#ArialMT-61"/>
     <use x="397.558594" xlink:href="#ArialMT-32"/>
     <use x="425.341797" xlink:href="#ArialMT-77"/>
    </g>
   </g>
  </g>
  <g id="legend_1">
   <g id="text_14">
    <!-- offer_id -->
    <defs>
     <path d="M 6.640625 61.46875 
L 6.640625 71.578125 
L 15.4375 71.578125 
L 15.4375 61.46875 
z
M 6.640625 0 
L 6.640625 51.859375 
L 15.4375 51.859375 
L 15.4375 0 
z
" id="ArialMT-105"/>
    </defs>
    <g style="fill:#262626;" transform="translate(815.227516 104.899797)scale(0.102 -0.102)">
     <use xlink:href="#ArialMT-111"/>
     <use x="55.615234" xlink:href="#ArialMT-102"/>
     <use x="83.382812" xlink:href="#ArialMT-102"/>
     <use x="111.166016" xlink:href="#ArialMT-101"/>
     <use x="166.78125" xlink:href="#ArialMT-114"/>
     <use x="200.082031" xlink:href="#ArialMT-95"/>
     <use x="255.697266" xlink:href="#ArialMT-105"/>
     <use x="277.914062" xlink:href="#ArialMT-100"/>
    </g>
   </g>
   <g id="patch_28">
    <path d="M 719.272031 120.300641 
L 741.272031 120.300641 
L 741.272031 112.600641 
L 719.272031 112.600641 
z
" style="fill:#5875a4;stroke:#ffffff;stroke-linejoin:miter;"/>
   </g>
   <g id="text_15">
    <!-- 9b98b8c7a33c4b65b9aebfe6a799e6d9 -->
    <defs>
     <path d="M 5.46875 16.546875 
L 13.921875 17.328125 
Q 14.984375 11.375 18.015625 8.6875 
Q 21.046875 6 25.78125 6 
Q 29.828125 6 32.875 7.859375 
Q 35.9375 9.71875 37.890625 12.8125 
Q 39.84375 15.921875 41.15625 21.1875 
Q 42.484375 26.46875 42.484375 31.9375 
Q 42.484375 32.515625 42.4375 33.6875 
Q 39.796875 29.5 35.234375 26.875 
Q 30.671875 24.265625 25.34375 24.265625 
Q 16.453125 24.265625 10.296875 30.703125 
Q 4.15625 37.15625 4.15625 47.703125 
Q 4.15625 58.59375 10.578125 65.234375 
Q 17 71.875 26.65625 71.875 
Q 33.640625 71.875 39.421875 68.109375 
Q 45.21875 64.359375 48.21875 57.390625 
Q 51.21875 50.4375 51.21875 37.25 
Q 51.21875 23.53125 48.234375 15.40625 
Q 45.265625 7.28125 39.375 3.03125 
Q 33.5 -1.21875 25.59375 -1.21875 
Q 17.1875 -1.21875 11.859375 3.4375 
Q 6.546875 8.109375 5.46875 16.546875 
z
M 41.453125 48.140625 
Q 41.453125 55.71875 37.421875 60.15625 
Q 33.40625 64.59375 27.734375 64.59375 
Q 21.875 64.59375 17.53125 59.8125 
Q 13.1875 55.03125 13.1875 47.40625 
Q 13.1875 40.578125 17.3125 36.296875 
Q 21.4375 32.03125 27.484375 32.03125 
Q 33.59375 32.03125 37.515625 36.296875 
Q 41.453125 40.578125 41.453125 48.140625 
z
" id="ArialMT-57"/>
     <path d="M 14.703125 0 
L 6.546875 0 
L 6.546875 71.578125 
L 15.328125 71.578125 
L 15.328125 46.046875 
Q 20.90625 53.03125 29.546875 53.03125 
Q 34.328125 53.03125 38.59375 51.09375 
Q 42.875 49.171875 45.625 45.671875 
Q 48.390625 42.1875 49.953125 37.25 
Q 51.515625 32.328125 51.515625 26.703125 
Q 51.515625 13.375 44.921875 6.09375 
Q 38.328125 -1.171875 29.109375 -1.171875 
Q 19.921875 -1.171875 14.703125 6.5 
z
M 14.59375 26.3125 
Q 14.59375 17 17.140625 12.84375 
Q 21.296875 6.0625 28.375 6.0625 
Q 34.125 6.0625 38.328125 11.0625 
Q 42.53125 16.0625 42.53125 25.984375 
Q 42.53125 36.140625 38.5 40.96875 
Q 34.46875 45.796875 28.765625 45.796875 
Q 23 45.796875 18.796875 40.796875 
Q 14.59375 35.796875 14.59375 26.3125 
z
" id="ArialMT-98"/>
     <path d="M 17.671875 38.8125 
Q 12.203125 40.828125 9.5625 44.53125 
Q 6.9375 48.25 6.9375 53.421875 
Q 6.9375 61.234375 12.546875 66.546875 
Q 18.171875 71.875 27.484375 71.875 
Q 36.859375 71.875 42.578125 66.421875 
Q 48.296875 60.984375 48.296875 53.171875 
Q 48.296875 48.1875 45.671875 44.5 
Q 43.0625 40.828125 37.75 38.8125 
Q 44.34375 36.671875 47.78125 31.875 
Q 51.21875 27.09375 51.21875 20.453125 
Q 51.21875 11.28125 44.71875 5.03125 
Q 38.234375 -1.21875 27.640625 -1.21875 
Q 17.046875 -1.21875 10.546875 5.046875 
Q 4.046875 11.328125 4.046875 20.703125 
Q 4.046875 27.6875 7.59375 32.390625 
Q 11.140625 37.109375 17.671875 38.8125 
z
M 15.921875 53.71875 
Q 15.921875 48.640625 19.1875 45.40625 
Q 22.46875 42.1875 27.6875 42.1875 
Q 32.765625 42.1875 36.015625 45.375 
Q 39.265625 48.578125 39.265625 53.21875 
Q 39.265625 58.0625 35.90625 61.359375 
Q 32.5625 64.65625 27.59375 64.65625 
Q 22.5625 64.65625 19.234375 61.421875 
Q 15.921875 58.203125 15.921875 53.71875 
z
M 13.09375 20.65625 
Q 13.09375 16.890625 14.875 13.375 
Q 16.65625 9.859375 20.171875 7.921875 
Q 23.6875 6 27.734375 6 
Q 34.03125 6 38.125 10.046875 
Q 42.234375 14.109375 42.234375 20.359375 
Q 42.234375 26.703125 38.015625 30.859375 
Q 33.796875 35.015625 27.4375 35.015625 
Q 21.234375 35.015625 17.15625 30.90625 
Q 13.09375 26.8125 13.09375 20.65625 
z
" id="ArialMT-56"/>
     <path d="M 4.734375 62.203125 
L 4.734375 70.65625 
L 51.078125 70.65625 
L 51.078125 63.8125 
Q 44.234375 56.546875 37.515625 44.484375 
Q 30.8125 32.421875 27.15625 19.671875 
Q 24.515625 10.6875 23.78125 0 
L 14.75 0 
Q 14.890625 8.453125 18.0625 20.40625 
Q 21.234375 32.375 27.171875 43.484375 
Q 33.109375 54.59375 39.796875 62.203125 
z
" id="ArialMT-55"/>
     <path d="M 40.4375 6.390625 
Q 35.546875 2.25 31.03125 0.53125 
Q 26.515625 -1.171875 21.34375 -1.171875 
Q 12.796875 -1.171875 8.203125 3 
Q 3.609375 7.171875 3.609375 13.671875 
Q 3.609375 17.484375 5.34375 20.625 
Q 7.078125 23.78125 9.890625 25.6875 
Q 12.703125 27.59375 16.21875 28.5625 
Q 18.796875 29.25 24.03125 29.890625 
Q 34.671875 31.15625 39.703125 32.90625 
Q 39.75 34.71875 39.75 35.203125 
Q 39.75 40.578125 37.25 42.78125 
Q 33.890625 45.75 27.25 45.75 
Q 21.046875 45.75 18.09375 43.578125 
Q 15.140625 41.40625 13.71875 35.890625 
L 5.125 37.0625 
Q 6.296875 42.578125 8.984375 45.96875 
Q 11.671875 49.359375 16.75 51.1875 
Q 21.828125 53.03125 28.515625 53.03125 
Q 35.15625 53.03125 39.296875 51.46875 
Q 43.453125 49.90625 45.40625 47.53125 
Q 47.359375 45.171875 48.140625 41.546875 
Q 48.578125 39.3125 48.578125 33.453125 
L 48.578125 21.734375 
Q 48.578125 9.46875 49.140625 6.21875 
Q 49.703125 2.984375 51.375 0 
L 42.1875 0 
Q 40.828125 2.734375 40.4375 6.390625 
z
M 39.703125 26.03125 
Q 34.90625 24.078125 25.34375 22.703125 
Q 19.921875 21.921875 17.671875 20.9375 
Q 15.4375 19.96875 14.203125 18.09375 
Q 12.984375 16.21875 12.984375 13.921875 
Q 12.984375 10.40625 15.640625 8.0625 
Q 18.3125 5.71875 23.4375 5.71875 
Q 28.515625 5.71875 32.46875 7.9375 
Q 36.421875 10.15625 38.28125 14.015625 
Q 39.703125 17 39.703125 22.796875 
z
" id="ArialMT-97"/>
     <path d="M 4.203125 18.890625 
L 12.984375 20.0625 
Q 14.5 12.59375 18.140625 9.296875 
Q 21.78125 6 27 6 
Q 33.203125 6 37.46875 10.296875 
Q 41.75 14.59375 41.75 20.953125 
Q 41.75 27 37.796875 30.921875 
Q 33.84375 34.859375 27.734375 34.859375 
Q 25.25 34.859375 21.53125 33.890625 
L 22.515625 41.609375 
Q 23.390625 41.5 23.921875 41.5 
Q 29.546875 41.5 34.03125 44.421875 
Q 38.53125 47.359375 38.53125 53.46875 
Q 38.53125 58.296875 35.25 61.46875 
Q 31.984375 64.65625 26.8125 64.65625 
Q 21.6875 64.65625 18.265625 61.421875 
Q 14.84375 58.203125 13.875 51.765625 
L 5.078125 53.328125 
Q 6.6875 62.15625 12.390625 67.015625 
Q 18.109375 71.875 26.609375 71.875 
Q 32.46875 71.875 37.390625 69.359375 
Q 42.328125 66.84375 44.9375 62.5 
Q 47.5625 58.15625 47.5625 53.265625 
Q 47.5625 48.640625 45.0625 44.828125 
Q 42.578125 41.015625 37.703125 38.765625 
Q 44.046875 37.3125 47.5625 32.6875 
Q 51.078125 28.078125 51.078125 21.140625 
Q 51.078125 11.765625 44.234375 5.25 
Q 37.40625 -1.265625 26.953125 -1.265625 
Q 17.53125 -1.265625 11.296875 4.34375 
Q 5.078125 9.96875 4.203125 18.890625 
z
" id="ArialMT-51"/>
     <path d="M 32.328125 0 
L 32.328125 17.140625 
L 1.265625 17.140625 
L 1.265625 25.203125 
L 33.9375 71.578125 
L 41.109375 71.578125 
L 41.109375 25.203125 
L 50.78125 25.203125 
L 50.78125 17.140625 
L 41.109375 17.140625 
L 41.109375 0 
z
M 32.328125 25.203125 
L 32.328125 57.46875 
L 9.90625 25.203125 
z
" id="ArialMT-52"/>
     <path d="M 49.75 54.046875 
L 41.015625 53.375 
Q 39.84375 58.546875 37.703125 60.890625 
Q 34.125 64.65625 28.90625 64.65625 
Q 24.703125 64.65625 21.53125 62.3125 
Q 17.390625 59.28125 14.984375 53.46875 
Q 12.59375 47.65625 12.5 36.921875 
Q 15.671875 41.75 20.265625 44.09375 
Q 24.859375 46.4375 29.890625 46.4375 
Q 38.671875 46.4375 44.84375 39.96875 
Q 51.03125 33.5 51.03125 23.25 
Q 51.03125 16.5 48.125 10.71875 
Q 45.21875 4.9375 40.140625 1.859375 
Q 35.0625 -1.21875 28.609375 -1.21875 
Q 17.625 -1.21875 10.6875 6.859375 
Q 3.765625 14.9375 3.765625 33.5 
Q 3.765625 54.25 11.421875 63.671875 
Q 18.109375 71.875 29.4375 71.875 
Q 37.890625 71.875 43.28125 67.140625 
Q 48.6875 62.40625 49.75 54.046875 
z
M 13.875 23.1875 
Q 13.875 18.65625 15.796875 14.5 
Q 17.71875 10.359375 21.1875 8.171875 
Q 24.65625 6 28.46875 6 
Q 34.03125 6 38.03125 10.484375 
Q 42.046875 14.984375 42.046875 22.703125 
Q 42.046875 30.125 38.078125 34.390625 
Q 34.125 38.671875 28.125 38.671875 
Q 22.171875 38.671875 18.015625 34.390625 
Q 13.875 30.125 13.875 23.1875 
z
" id="ArialMT-54"/>
    </defs>
    <g style="fill:#262626;" transform="translate(750.072031 120.300641)scale(0.11 -0.11)">
     <use xlink:href="#ArialMT-57"/>
     <use x="55.615234" xlink:href="#ArialMT-98"/>
     <use x="111.230469" xlink:href="#ArialMT-57"/>
     <use x="166.845703" xlink:href="#ArialMT-56"/>
     <use x="222.460938" xlink:href="#ArialMT-98"/>
     <use x="278.076172" xlink:href="#ArialMT-56"/>
     <use x="333.691406" xlink:href="#ArialMT-99"/>
     <use x="383.691406" xlink:href="#ArialMT-55"/>
     <use x="439.306641" xlink:href="#ArialMT-97"/>
     <use x="494.921875" xlink:href="#ArialMT-51"/>
     <use x="550.537109" xlink:href="#ArialMT-51"/>
     <use x="606.152344" xlink:href="#ArialMT-99"/>
     <use x="656.152344" xlink:href="#ArialMT-52"/>
     <use x="711.767578" xlink:href="#ArialMT-98"/>
     <use x="767.382812" xlink:href="#ArialMT-54"/>
     <use x="822.998047" xlink:href="#ArialMT-53"/>
     <use x="878.613281" xlink:href="#ArialMT-98"/>
     <use x="934.228516" xlink:href="#ArialMT-57"/>
     <use x="989.84375" xlink:href="#ArialMT-97"/>
     <use x="1045.458984" xlink:href="#ArialMT-101"/>
     <use x="1101.074219" xlink:href="#ArialMT-98"/>
     <use x="1156.689453" xlink:href="#ArialMT-102"/>
     <use x="1184.472656" xlink:href="#ArialMT-101"/>
     <use x="1240.087891" xlink:href="#ArialMT-54"/>
     <use x="1295.703125" xlink:href="#ArialMT-97"/>
     <use x="1351.318359" xlink:href="#ArialMT-55"/>
     <use x="1406.933594" xlink:href="#ArialMT-57"/>
     <use x="1462.548828" xlink:href="#ArialMT-57"/>
     <use x="1518.164062" xlink:href="#ArialMT-101"/>
     <use x="1573.779297" xlink:href="#ArialMT-54"/>
     <use x="1629.394531" xlink:href="#ArialMT-100"/>
     <use x="1685.009766" xlink:href="#ArialMT-57"/>
    </g>
   </g>
   <g id="patch_29">
    <path d="M 719.272031 135.860484 
L 741.272031 135.860484 
L 741.272031 128.160484 
L 719.272031 128.160484 
z
" style="fill:#cc8963;stroke:#ffffff;stroke-linejoin:miter;"/>
   </g>
   <g id="text_16">
    <!-- ae264e3637204a6fb9bb56bc8210ddfd -->
    <g style="fill:#262626;" transform="translate(750.072031 135.860484)scale(0.11 -0.11)">
     <use xlink:href="#ArialMT-97"/>
     <use x="55.615234" xlink:href="#ArialMT-101"/>
     <use x="111.230469" xlink:href="#ArialMT-50"/>
     <use x="166.845703" xlink:href="#ArialMT-54"/>
     <use x="222.460938" xlink:href="#ArialMT-52"/>
     <use x="278.076172" xlink:href="#ArialMT-101"/>
     <use x="333.691406" xlink:href="#ArialMT-51"/>
     <use x="389.306641" xlink:href="#ArialMT-54"/>
     <use x="444.921875" xlink:href="#ArialMT-51"/>
     <use x="500.537109" xlink:href="#ArialMT-55"/>
     <use x="556.152344" xlink:href="#ArialMT-50"/>
     <use x="611.767578" xlink:href="#ArialMT-48"/>
     <use x="667.382812" xlink:href="#ArialMT-52"/>
     <use x="722.998047" xlink:href="#ArialMT-97"/>
     <use x="778.613281" xlink:href="#ArialMT-54"/>
     <use x="834.228516" xlink:href="#ArialMT-102"/>
     <use x="862.011719" xlink:href="#ArialMT-98"/>
     <use x="917.626953" xlink:href="#ArialMT-57"/>
     <use x="973.242188" xlink:href="#ArialMT-98"/>
     <use x="1028.857422" xlink:href="#ArialMT-98"/>
     <use x="1084.472656" xlink:href="#ArialMT-53"/>
     <use x="1140.087891" xlink:href="#ArialMT-54"/>
     <use x="1195.703125" xlink:href="#ArialMT-98"/>
     <use x="1251.318359" xlink:href="#ArialMT-99"/>
     <use x="1301.318359" xlink:href="#ArialMT-56"/>
     <use x="1356.933594" xlink:href="#ArialMT-50"/>
     <use x="1412.548828" xlink:href="#ArialMT-49"/>
     <use x="1468.164062" xlink:href="#ArialMT-48"/>
     <use x="1523.779297" xlink:href="#ArialMT-100"/>
     <use x="1579.394531" xlink:href="#ArialMT-100"/>
     <use x="1635.009766" xlink:href="#ArialMT-102"/>
     <use x="1662.792969" xlink:href="#ArialMT-100"/>
    </g>
   </g>
   <g id="patch_30">
    <path d="M 719.272031 151.420328 
L 741.272031 151.420328 
L 741.272031 143.720328 
L 719.272031 143.720328 
z
" style="fill:#5f9e6e;stroke:#ffffff;stroke-linejoin:miter;"/>
   </g>
   <g id="text_17">
    <!-- f19421c1d4aa40978ebb69ca19b0e20d -->
    <g style="fill:#262626;" transform="translate(750.072031 151.420328)scale(0.11 -0.11)">
     <use xlink:href="#ArialMT-102"/>
     <use x="27.783203" xlink:href="#ArialMT-49"/>
     <use x="83.398438" xlink:href="#ArialMT-57"/>
     <use x="139.013672" xlink:href="#ArialMT-52"/>
     <use x="194.628906" xlink:href="#ArialMT-50"/>
     <use x="250.244141" xlink:href="#ArialMT-49"/>
     <use x="305.859375" xlink:href="#ArialMT-99"/>
     <use x="355.859375" xlink:href="#ArialMT-49"/>
     <use x="411.474609" xlink:href="#ArialMT-100"/>
     <use x="467.089844" xlink:href="#ArialMT-52"/>
     <use x="522.705078" xlink:href="#ArialMT-97"/>
     <use x="578.320312" xlink:href="#ArialMT-97"/>
     <use x="633.935547" xlink:href="#ArialMT-52"/>
     <use x="689.550781" xlink:href="#ArialMT-48"/>
     <use x="745.166016" xlink:href="#ArialMT-57"/>
     <use x="800.78125" xlink:href="#ArialMT-55"/>
     <use x="856.396484" xlink:href="#ArialMT-56"/>
     <use x="912.011719" xlink:href="#ArialMT-101"/>
     <use x="967.626953" xlink:href="#ArialMT-98"/>
     <use x="1023.242188" xlink:href="#ArialMT-98"/>
     <use x="1078.857422" xlink:href="#ArialMT-54"/>
     <use x="1134.472656" xlink:href="#ArialMT-57"/>
     <use x="1190.087891" xlink:href="#ArialMT-99"/>
     <use x="1240.087891" xlink:href="#ArialMT-97"/>
     <use x="1295.703125" xlink:href="#ArialMT-49"/>
     <use x="1351.318359" xlink:href="#ArialMT-57"/>
     <use x="1406.933594" xlink:href="#ArialMT-98"/>
     <use x="1462.548828" xlink:href="#ArialMT-48"/>
     <use x="1518.164062" xlink:href="#ArialMT-101"/>
     <use x="1573.779297" xlink:href="#ArialMT-50"/>
     <use x="1629.394531" xlink:href="#ArialMT-48"/>
     <use x="1685.009766" xlink:href="#ArialMT-100"/>
    </g>
   </g>
   <g id="patch_31">
    <path d="M 719.272031 166.980172 
L 741.272031 166.980172 
L 741.272031 159.280172 
L 719.272031 159.280172 
z
" style="fill:#b55d60;stroke:#ffffff;stroke-linejoin:miter;"/>
   </g>
   <g id="text_18">
    <!-- fafdcd668e3743c1bb461111dcafc2a4 -->
    <g style="fill:#262626;" transform="translate(750.072031 166.980172)scale(0.11 -0.11)">
     <use xlink:href="#ArialMT-102"/>
     <use x="27.783203" xlink:href="#ArialMT-97"/>
     <use x="83.398438" xlink:href="#ArialMT-102"/>
     <use x="111.181641" xlink:href="#ArialMT-100"/>
     <use x="166.796875" xlink:href="#ArialMT-99"/>
     <use x="216.796875" xlink:href="#ArialMT-100"/>
     <use x="272.412109" xlink:href="#ArialMT-54"/>
     <use x="328.027344" xlink:href="#ArialMT-54"/>
     <use x="383.642578" xlink:href="#ArialMT-56"/>
     <use x="439.257812" xlink:href="#ArialMT-101"/>
     <use x="494.873047" xlink:href="#ArialMT-51"/>
     <use x="550.488281" xlink:href="#ArialMT-55"/>
     <use x="606.103516" xlink:href="#ArialMT-52"/>
     <use x="661.71875" xlink:href="#ArialMT-51"/>
     <use x="717.333984" xlink:href="#ArialMT-99"/>
     <use x="767.333984" xlink:href="#ArialMT-49"/>
     <use x="822.949219" xlink:href="#ArialMT-98"/>
     <use x="878.564453" xlink:href="#ArialMT-98"/>
     <use x="934.179688" xlink:href="#ArialMT-52"/>
     <use x="989.794922" xlink:href="#ArialMT-54"/>
     <use x="1045.410156" xlink:href="#ArialMT-49"/>
     <use x="1100.916016" xlink:href="#ArialMT-49"/>
     <use x="1156.421875" xlink:href="#ArialMT-49"/>
     <use x="1211.927734" xlink:href="#ArialMT-49"/>
     <use x="1267.542969" xlink:href="#ArialMT-100"/>
     <use x="1323.158203" xlink:href="#ArialMT-99"/>
     <use x="1373.158203" xlink:href="#ArialMT-97"/>
     <use x="1428.773438" xlink:href="#ArialMT-102"/>
     <use x="1456.556641" xlink:href="#ArialMT-99"/>
     <use x="1506.556641" xlink:href="#ArialMT-50"/>
     <use x="1562.171875" xlink:href="#ArialMT-97"/>
     <use x="1617.787109" xlink:href="#ArialMT-52"/>
    </g>
   </g>
   <g id="patch_32">
    <path d="M 719.272031 182.540016 
L 741.272031 182.540016 
L 741.272031 174.840016 
L 719.272031 174.840016 
z
" style="fill:#857aab;stroke:#ffffff;stroke-linejoin:miter;"/>
   </g>
   <g id="text_19">
    <!-- 2906b810c7d4411798c6938adc9daaa5 -->
    <g style="fill:#262626;" transform="translate(750.072031 182.540016)scale(0.11 -0.11)">
     <use xlink:href="#ArialMT-50"/>
     <use x="55.615234" xlink:href="#ArialMT-57"/>
     <use x="111.230469" xlink:href="#ArialMT-48"/>
     <use x="166.845703" xlink:href="#ArialMT-54"/>
     <use x="222.460938" xlink:href="#ArialMT-98"/>
     <use x="278.076172" xlink:href="#ArialMT-56"/>
     <use x="333.691406" xlink:href="#ArialMT-49"/>
     <use x="389.306641" xlink:href="#ArialMT-48"/>
     <use x="444.921875" xlink:href="#ArialMT-99"/>
     <use x="494.921875" xlink:href="#ArialMT-55"/>
     <use x="550.537109" xlink:href="#ArialMT-100"/>
     <use x="606.152344" xlink:href="#ArialMT-52"/>
     <use x="661.767578" xlink:href="#ArialMT-52"/>
     <use x="717.382812" xlink:href="#ArialMT-49"/>
     <use x="772.888672" xlink:href="#ArialMT-49"/>
     <use x="828.503906" xlink:href="#ArialMT-55"/>
     <use x="884.119141" xlink:href="#ArialMT-57"/>
     <use x="939.734375" xlink:href="#ArialMT-56"/>
     <use x="995.349609" xlink:href="#ArialMT-99"/>
     <use x="1045.349609" xlink:href="#ArialMT-54"/>
     <use x="1100.964844" xlink:href="#ArialMT-57"/>
     <use x="1156.580078" xlink:href="#ArialMT-51"/>
     <use x="1212.195312" xlink:href="#ArialMT-56"/>
     <use x="1267.810547" xlink:href="#ArialMT-97"/>
     <use x="1323.425781" xlink:href="#ArialMT-100"/>
     <use x="1379.041016" xlink:href="#ArialMT-99"/>
     <use x="1429.041016" xlink:href="#ArialMT-57"/>
     <use x="1484.65625" xlink:href="#ArialMT-100"/>
     <use x="1540.271484" xlink:href="#ArialMT-97"/>
     <use x="1595.886719" xlink:href="#ArialMT-97"/>
     <use x="1651.501953" xlink:href="#ArialMT-97"/>
     <use x="1707.117188" xlink:href="#ArialMT-53"/>
    </g>
   </g>
   <g id="patch_33">
    <path d="M 719.272031 198.099859 
L 741.272031 198.099859 
L 741.272031 190.399859 
L 719.272031 190.399859 
z
" style="fill:#8d7866;stroke:#ffffff;stroke-linejoin:miter;"/>
   </g>
   <g id="text_20">
    <!-- 0b1e1539f2cc45b7b9fa7c272da2e1d7 -->
    <g style="fill:#262626;" transform="translate(750.072031 198.099859)scale(0.11 -0.11)">
     <use xlink:href="#ArialMT-48"/>
     <use x="55.615234" xlink:href="#ArialMT-98"/>
     <use x="111.230469" xlink:href="#ArialMT-49"/>
     <use x="166.845703" xlink:href="#ArialMT-101"/>
     <use x="222.460938" xlink:href="#ArialMT-49"/>
     <use x="278.076172" xlink:href="#ArialMT-53"/>
     <use x="333.691406" xlink:href="#ArialMT-51"/>
     <use x="389.306641" xlink:href="#ArialMT-57"/>
     <use x="444.921875" xlink:href="#ArialMT-102"/>
     <use x="472.705078" xlink:href="#ArialMT-50"/>
     <use x="528.320312" xlink:href="#ArialMT-99"/>
     <use x="578.320312" xlink:href="#ArialMT-99"/>
     <use x="628.320312" xlink:href="#ArialMT-52"/>
     <use x="683.935547" xlink:href="#ArialMT-53"/>
     <use x="739.550781" xlink:href="#ArialMT-98"/>
     <use x="795.166016" xlink:href="#ArialMT-55"/>
     <use x="850.78125" xlink:href="#ArialMT-98"/>
     <use x="906.396484" xlink:href="#ArialMT-57"/>
     <use x="962.011719" xlink:href="#ArialMT-102"/>
     <use x="989.794922" xlink:href="#ArialMT-97"/>
     <use x="1045.410156" xlink:href="#ArialMT-55"/>
     <use x="1101.025391" xlink:href="#ArialMT-99"/>
     <use x="1151.025391" xlink:href="#ArialMT-50"/>
     <use x="1206.640625" xlink:href="#ArialMT-55"/>
     <use x="1262.255859" xlink:href="#ArialMT-50"/>
     <use x="1317.871094" xlink:href="#ArialMT-100"/>
     <use x="1373.486328" xlink:href="#ArialMT-97"/>
     <use x="1429.101562" xlink:href="#ArialMT-50"/>
     <use x="1484.716797" xlink:href="#ArialMT-101"/>
     <use x="1540.332031" xlink:href="#ArialMT-49"/>
     <use x="1595.947266" xlink:href="#ArialMT-100"/>
     <use x="1651.5625" xlink:href="#ArialMT-55"/>
    </g>
   </g>
   <g id="patch_34">
    <path d="M 719.272031 213.659703 
L 741.272031 213.659703 
L 741.272031 205.959703 
L 719.272031 205.959703 
z
" style="fill:#d095bf;stroke:#ffffff;stroke-linejoin:miter;"/>
   </g>
   <g id="text_21">
    <!-- 4d5c57ea9a6940dd891ad53e9dbe8da0 -->
    <g style="fill:#262626;" transform="translate(750.072031 213.659703)scale(0.11 -0.11)">
     <use xlink:href="#ArialMT-52"/>
     <use x="55.615234" xlink:href="#ArialMT-100"/>
     <use x="111.230469" xlink:href="#ArialMT-53"/>
     <use x="166.845703" xlink:href="#ArialMT-99"/>
     <use x="216.845703" xlink:href="#ArialMT-53"/>
     <use x="272.460938" xlink:href="#ArialMT-55"/>
     <use x="328.076172" xlink:href="#ArialMT-101"/>
     <use x="383.691406" xlink:href="#ArialMT-97"/>
     <use x="439.306641" xlink:href="#ArialMT-57"/>
     <use x="494.921875" xlink:href="#ArialMT-97"/>
     <use x="550.537109" xlink:href="#ArialMT-54"/>
     <use x="606.152344" xlink:href="#ArialMT-57"/>
     <use x="661.767578" xlink:href="#ArialMT-52"/>
     <use x="717.382812" xlink:href="#ArialMT-48"/>
     <use x="772.998047" xlink:href="#ArialMT-100"/>
     <use x="828.613281" xlink:href="#ArialMT-100"/>
     <use x="884.228516" xlink:href="#ArialMT-56"/>
     <use x="939.84375" xlink:href="#ArialMT-57"/>
     <use x="995.458984" xlink:href="#ArialMT-49"/>
     <use x="1051.074219" xlink:href="#ArialMT-97"/>
     <use x="1106.689453" xlink:href="#ArialMT-100"/>
     <use x="1162.304688" xlink:href="#ArialMT-53"/>
     <use x="1217.919922" xlink:href="#ArialMT-51"/>
     <use x="1273.535156" xlink:href="#ArialMT-101"/>
     <use x="1329.150391" xlink:href="#ArialMT-57"/>
     <use x="1384.765625" xlink:href="#ArialMT-100"/>
     <use x="1440.380859" xlink:href="#ArialMT-98"/>
     <use x="1495.996094" xlink:href="#ArialMT-101"/>
     <use x="1551.611328" xlink:href="#ArialMT-56"/>
     <use x="1607.226562" xlink:href="#ArialMT-100"/>
     <use x="1662.841797" xlink:href="#ArialMT-97"/>
     <use x="1718.457031" xlink:href="#ArialMT-48"/>
    </g>
   </g>
   <g id="patch_35">
    <path d="M 719.272031 229.219547 
L 741.272031 229.219547 
L 741.272031 221.519547 
L 719.272031 221.519547 
z
" style="fill:#8c8c8c;stroke:#ffffff;stroke-linejoin:miter;"/>
   </g>
   <g id="text_22">
    <!-- 2298d6c36e964ae4a3e7e9706d1fb8c2 -->
    <g style="fill:#262626;" transform="translate(750.072031 229.219547)scale(0.11 -0.11)">
     <use xlink:href="#ArialMT-50"/>
     <use x="55.615234" xlink:href="#ArialMT-50"/>
     <use x="111.230469" xlink:href="#ArialMT-57"/>
     <use x="166.845703" xlink:href="#ArialMT-56"/>
     <use x="222.460938" xlink:href="#ArialMT-100"/>
     <use x="278.076172" xlink:href="#ArialMT-54"/>
     <use x="333.691406" xlink:href="#ArialMT-99"/>
     <use x="383.691406" xlink:href="#ArialMT-51"/>
     <use x="439.306641" xlink:href="#ArialMT-54"/>
     <use x="494.921875" xlink:href="#ArialMT-101"/>
     <use x="550.537109" xlink:href="#ArialMT-57"/>
     <use x="606.152344" xlink:href="#ArialMT-54"/>
     <use x="661.767578" xlink:href="#ArialMT-52"/>
     <use x="717.382812" xlink:href="#ArialMT-97"/>
     <use x="772.998047" xlink:href="#ArialMT-101"/>
     <use x="828.613281" xlink:href="#ArialMT-52"/>
     <use x="884.228516" xlink:href="#ArialMT-97"/>
     <use x="939.84375" xlink:href="#ArialMT-51"/>
     <use x="995.458984" xlink:href="#ArialMT-101"/>
     <use x="1051.074219" xlink:href="#ArialMT-55"/>
     <use x="1106.689453" xlink:href="#ArialMT-101"/>
     <use x="1162.304688" xlink:href="#ArialMT-57"/>
     <use x="1217.919922" xlink:href="#ArialMT-55"/>
     <use x="1273.535156" xlink:href="#ArialMT-48"/>
     <use x="1329.150391" xlink:href="#ArialMT-54"/>
     <use x="1384.765625" xlink:href="#ArialMT-100"/>
     <use x="1440.380859" xlink:href="#ArialMT-49"/>
     <use x="1495.996094" xlink:href="#ArialMT-102"/>
     <use x="1523.779297" xlink:href="#ArialMT-98"/>
     <use x="1579.394531" xlink:href="#ArialMT-56"/>
     <use x="1635.009766" xlink:href="#ArialMT-99"/>
     <use x="1685.009766" xlink:href="#ArialMT-50"/>
    </g>
   </g>
   <g id="patch_36">
    <path d="M 719.272031 244.779391 
L 741.272031 244.779391 
L 741.272031 237.079391 
L 719.272031 237.079391 
z
" style="fill:#c1b37f;stroke:#ffffff;stroke-linejoin:miter;"/>
   </g>
   <g id="text_23">
    <!-- 3f207df678b143eea3cee63160fa8bed -->
    <g style="fill:#262626;" transform="translate(750.072031 244.779391)scale(0.11 -0.11)">
     <use xlink:href="#ArialMT-51"/>
     <use x="55.615234" xlink:href="#ArialMT-102"/>
     <use x="83.398438" xlink:href="#ArialMT-50"/>
     <use x="139.013672" xlink:href="#ArialMT-48"/>
     <use x="194.628906" xlink:href="#ArialMT-55"/>
     <use x="250.244141" xlink:href="#ArialMT-100"/>
     <use x="305.859375" xlink:href="#ArialMT-102"/>
     <use x="333.642578" xlink:href="#ArialMT-54"/>
     <use x="389.257812" xlink:href="#ArialMT-55"/>
     <use x="444.873047" xlink:href="#ArialMT-56"/>
     <use x="500.488281" xlink:href="#ArialMT-98"/>
     <use x="556.103516" xlink:href="#ArialMT-49"/>
     <use x="611.71875" xlink:href="#ArialMT-52"/>
     <use x="667.333984" xlink:href="#ArialMT-51"/>
     <use x="722.949219" xlink:href="#ArialMT-101"/>
     <use x="778.564453" xlink:href="#ArialMT-101"/>
     <use x="834.179688" xlink:href="#ArialMT-97"/>
     <use x="889.794922" xlink:href="#ArialMT-51"/>
     <use x="945.410156" xlink:href="#ArialMT-99"/>
     <use x="995.410156" xlink:href="#ArialMT-101"/>
     <use x="1051.025391" xlink:href="#ArialMT-101"/>
     <use x="1106.640625" xlink:href="#ArialMT-54"/>
     <use x="1162.255859" xlink:href="#ArialMT-51"/>
     <use x="1217.871094" xlink:href="#ArialMT-49"/>
     <use x="1273.486328" xlink:href="#ArialMT-54"/>
     <use x="1329.101562" xlink:href="#ArialMT-48"/>
     <use x="1384.716797" xlink:href="#ArialMT-102"/>
     <use x="1412.5" xlink:href="#ArialMT-97"/>
     <use x="1468.115234" xlink:href="#ArialMT-56"/>
     <use x="1523.730469" xlink:href="#ArialMT-98"/>
     <use x="1579.345703" xlink:href="#ArialMT-101"/>
     <use x="1634.960938" xlink:href="#ArialMT-100"/>
    </g>
   </g>
   <g id="patch_37">
    <path d="M 719.272031 260.339234 
L 741.272031 260.339234 
L 741.272031 252.639234 
L 719.272031 252.639234 
z
" style="fill:#71aec0;stroke:#ffffff;stroke-linejoin:miter;"/>
   </g>
   <g id="text_24">
    <!-- 5a8bc65990b245e5a138643cd4eb9837 -->
    <g style="fill:#262626;" transform="translate(750.072031 260.339234)scale(0.11 -0.11)">
     <use xlink:href="#ArialMT-53"/>
     <use x="55.615234" xlink:href="#ArialMT-97"/>
     <use x="111.230469" xlink:href="#ArialMT-56"/>
     <use x="166.845703" xlink:href="#ArialMT-98"/>
     <use x="222.460938" xlink:href="#ArialMT-99"/>
     <use x="272.460938" xlink:href="#ArialMT-54"/>
     <use x="328.076172" xlink:href="#ArialMT-53"/>
     <use x="383.691406" xlink:href="#ArialMT-57"/>
     <use x="439.306641" xlink:href="#ArialMT-57"/>
     <use x="494.921875" xlink:href="#ArialMT-48"/>
     <use x="550.537109" xlink:href="#ArialMT-98"/>
     <use x="606.152344" xlink:href="#ArialMT-50"/>
     <use x="661.767578" xlink:href="#ArialMT-52"/>
     <use x="717.382812" xlink:href="#ArialMT-53"/>
     <use x="772.998047" xlink:href="#ArialMT-101"/>
     <use x="828.613281" xlink:href="#ArialMT-53"/>
     <use x="884.228516" xlink:href="#ArialMT-97"/>
     <use x="939.84375" xlink:href="#ArialMT-49"/>
     <use x="995.458984" xlink:href="#ArialMT-51"/>
     <use x="1051.074219" xlink:href="#ArialMT-56"/>
     <use x="1106.689453" xlink:href="#ArialMT-54"/>
     <use x="1162.304688" xlink:href="#ArialMT-52"/>
     <use x="1217.919922" xlink:href="#ArialMT-51"/>
     <use x="1273.535156" xlink:href="#ArialMT-99"/>
     <use x="1323.535156" xlink:href="#ArialMT-100"/>
     <use x="1379.150391" xlink:href="#ArialMT-52"/>
     <use x="1434.765625" xlink:href="#ArialMT-101"/>
     <use x="1490.380859" xlink:href="#ArialMT-98"/>
     <use x="1545.996094" xlink:href="#ArialMT-57"/>
     <use x="1601.611328" xlink:href="#ArialMT-56"/>
     <use x="1657.226562" xlink:href="#ArialMT-51"/>
     <use x="1712.841797" xlink:href="#ArialMT-55"/>
    </g>
   </g>
  </g>
 </g>
 <defs>
  <clipPath id="pd16bae0024">
   <rect height="286.533125" width="317.714693" x="62.293744" y="26.96"/>
  </clipPath>
  <clipPath id="p42d0c44431">
   <rect height="286.533125" width="317.714693" x="392.734307" y="26.96"/>
  </clipPath>
 </defs>
</svg>
