<?xml version="1.0" encoding="utf-8" standalone="no"?>
<!DOCTYPE svg PUBLIC "-//W3C//DTD SVG 1.1//EN"
  "http://www.w3.org/Graphics/SVG/1.1/DTD/svg11.dtd">
<!-- Created with matplotlib (https://matplotlib.org/) -->
<svg height="288pt" version="1.1" viewBox="0 0 1440 288" width="1440pt" xmlns="http://www.w3.org/2000/svg" xmlns:xlink="http://www.w3.org/1999/xlink">
 <defs>
  <style type="text/css">
*{stroke-linecap:butt;stroke-linejoin:round;}
  </style>
 </defs>
 <g id="figure_1">
  <g id="patch_1">
   <path d="M 0 288 
L 1440 288 
L 1440 0 
L 0 0 
z
" style="fill:#ffffff;"/>
  </g>
  <g id="axes_1">
   <g id="patch_2">
    <path d="M 180 252 
L 508.235294 252 
L 508.235294 34.56 
L 180 34.56 
z
" style="fill:#ffffff;"/>
   </g>
   <g id="matplotlib.axis_1">
    <g id="xtick_1">
     <g id="line2d_1">
      <path clip-path="url(#p090f2d8ea6)" d="M 225.322674 252 
L 225.322674 34.56 
" style="fill:none;stroke:#cccccc;stroke-linecap:round;"/>
     </g>
     <g id="text_1">
      <!-- 500 -->
      <defs>
       <path d="M 4.15625 18.75 
L 13.375 19.53125 
Q 14.40625 12.796875 18.140625 9.390625 
Q 21.875 6 27.15625 6 
Q 33.5 6 37.890625 10.78125 
Q 42.28125 15.578125 42.28125 23.484375 
Q 42.28125 31 38.0625 35.34375 
Q 33.84375 39.703125 27 39.703125 
Q 22.75 39.703125 19.328125 37.765625 
Q 15.921875 35.84375 13.96875 32.765625 
L 5.71875 33.84375 
L 12.640625 70.609375 
L 48.25 70.609375 
L 48.25 62.203125 
L 19.671875 62.203125 
L 15.828125 42.96875 
Q 22.265625 47.46875 29.34375 47.46875 
Q 38.71875 47.46875 45.15625 40.96875 
Q 51.609375 34.46875 51.609375 24.265625 
Q 51.609375 14.546875 45.953125 7.46875 
Q 39.0625 -1.21875 27.15625 -1.21875 
Q 17.390625 -1.21875 11.203125 4.25 
Q 5.03125 9.71875 4.15625 18.75 
z
" id="ArialMT-53"/>
       <path d="M 4.15625 35.296875 
Q 4.15625 48 6.765625 55.734375 
Q 9.375 63.484375 14.515625 67.671875 
Q 19.671875 71.875 27.484375 71.875 
Q 33.25 71.875 37.59375 69.546875 
Q 41.9375 67.234375 44.765625 62.859375 
Q 47.609375 58.5 49.21875 52.21875 
Q 50.828125 45.953125 50.828125 35.296875 
Q 50.828125 22.703125 48.234375 14.96875 
Q 45.65625 7.234375 40.5 3 
Q 35.359375 -1.21875 27.484375 -1.21875 
Q 17.140625 -1.21875 11.234375 6.203125 
Q 4.15625 15.140625 4.15625 35.296875 
z
M 13.1875 35.296875 
Q 13.1875 17.671875 17.3125 11.828125 
Q 21.4375 6 27.484375 6 
Q 33.546875 6 37.671875 11.859375 
Q 41.796875 17.71875 41.796875 35.296875 
Q 41.796875 52.984375 37.671875 58.78125 
Q 33.546875 64.59375 27.390625 64.59375 
Q 21.34375 64.59375 17.71875 59.46875 
Q 13.1875 52.9375 13.1875 35.296875 
z
" id="ArialMT-48"/>
      </defs>
      <g style="fill:#262626;" transform="translate(213.853241 271.341992)scale(0.1375 -0.1375)">
       <use xlink:href="#ArialMT-53"/>
       <use x="55.615234" xlink:href="#ArialMT-48"/>
       <use x="111.230469" xlink:href="#ArialMT-48"/>
      </g>
     </g>
    </g>
    <g id="xtick_2">
     <g id="line2d_2">
      <path clip-path="url(#p090f2d8ea6)" d="M 283.813552 252 
L 283.813552 34.56 
" style="fill:none;stroke:#cccccc;stroke-linecap:round;"/>
     </g>
     <g id="text_2">
      <!-- 1000 -->
      <defs>
       <path d="M 37.25 0 
L 28.46875 0 
L 28.46875 56 
Q 25.296875 52.984375 20.140625 49.953125 
Q 14.984375 46.921875 10.890625 45.40625 
L 10.890625 53.90625 
Q 18.265625 57.375 23.78125 62.296875 
Q 29.296875 67.234375 31.59375 71.875 
L 37.25 71.875 
z
" id="ArialMT-49"/>
      </defs>
      <g style="fill:#262626;" transform="translate(268.520974 271.341992)scale(0.1375 -0.1375)">
       <use xlink:href="#ArialMT-49"/>
       <use x="55.615234" xlink:href="#ArialMT-48"/>
       <use x="111.230469" xlink:href="#ArialMT-48"/>
       <use x="166.845703" xlink:href="#ArialMT-48"/>
      </g>
     </g>
    </g>
    <g id="xtick_3">
     <g id="line2d_3">
      <path clip-path="url(#p090f2d8ea6)" d="M 342.30443 252 
L 342.30443 34.56 
" style="fill:none;stroke:#cccccc;stroke-linecap:round;"/>
     </g>
     <g id="text_3">
      <!-- 1500 -->
      <g style="fill:#262626;" transform="translate(327.011852 271.341992)scale(0.1375 -0.1375)">
       <use xlink:href="#ArialMT-49"/>
       <use x="55.615234" xlink:href="#ArialMT-53"/>
       <use x="111.230469" xlink:href="#ArialMT-48"/>
       <use x="166.845703" xlink:href="#ArialMT-48"/>
      </g>
     </g>
    </g>
    <g id="xtick_4">
     <g id="line2d_4">
      <path clip-path="url(#p090f2d8ea6)" d="M 400.795308 252 
L 400.795308 34.56 
" style="fill:none;stroke:#cccccc;stroke-linecap:round;"/>
     </g>
     <g id="text_4">
      <!-- 2000 -->
      <defs>
       <path d="M 50.34375 8.453125 
L 50.34375 0 
L 3.03125 0 
Q 2.9375 3.171875 4.046875 6.109375 
Q 5.859375 10.9375 9.828125 15.625 
Q 13.8125 20.3125 21.34375 26.46875 
Q 33.015625 36.03125 37.109375 41.625 
Q 41.21875 47.21875 41.21875 52.203125 
Q 41.21875 57.421875 37.46875 61 
Q 33.734375 64.59375 27.734375 64.59375 
Q 21.390625 64.59375 17.578125 60.78125 
Q 13.765625 56.984375 13.71875 50.25 
L 4.6875 51.171875 
Q 5.609375 61.28125 11.65625 66.578125 
Q 17.71875 71.875 27.9375 71.875 
Q 38.234375 71.875 44.234375 66.15625 
Q 50.25 60.453125 50.25 52 
Q 50.25 47.703125 48.484375 43.546875 
Q 46.734375 39.40625 42.65625 34.8125 
Q 38.578125 30.21875 29.109375 22.21875 
Q 21.1875 15.578125 18.9375 13.203125 
Q 16.703125 10.84375 15.234375 8.453125 
z
" id="ArialMT-50"/>
      </defs>
      <g style="fill:#262626;" transform="translate(385.50273 271.341992)scale(0.1375 -0.1375)">
       <use xlink:href="#ArialMT-50"/>
       <use x="55.615234" xlink:href="#ArialMT-48"/>
       <use x="111.230469" xlink:href="#ArialMT-48"/>
       <use x="166.845703" xlink:href="#ArialMT-48"/>
      </g>
     </g>
    </g>
    <g id="xtick_5">
     <g id="line2d_5">
      <path clip-path="url(#p090f2d8ea6)" d="M 459.286186 252 
L 459.286186 34.56 
" style="fill:none;stroke:#cccccc;stroke-linecap:round;"/>
     </g>
     <g id="text_5">
      <!-- 2500 -->
      <g style="fill:#262626;" transform="translate(443.993607 271.341992)scale(0.1375 -0.1375)">
       <use xlink:href="#ArialMT-50"/>
       <use x="55.615234" xlink:href="#ArialMT-53"/>
       <use x="111.230469" xlink:href="#ArialMT-48"/>
       <use x="166.845703" xlink:href="#ArialMT-48"/>
      </g>
     </g>
    </g>
    <g id="text_6">
     <!-- Days of Membership -->
     <defs>
      <path d="M 7.71875 0 
L 7.71875 71.578125 
L 32.375 71.578125 
Q 40.71875 71.578125 45.125 70.5625 
Q 51.265625 69.140625 55.609375 65.4375 
Q 61.28125 60.640625 64.078125 53.1875 
Q 66.890625 45.75 66.890625 36.1875 
Q 66.890625 28.03125 64.984375 21.734375 
Q 63.09375 15.4375 60.109375 11.296875 
Q 57.125 7.171875 53.578125 4.796875 
Q 50.046875 2.4375 45.046875 1.21875 
Q 40.046875 0 33.546875 0 
z
M 17.1875 8.453125 
L 32.46875 8.453125 
Q 39.546875 8.453125 43.578125 9.765625 
Q 47.609375 11.078125 50 13.484375 
Q 53.375 16.84375 55.25 22.53125 
Q 57.125 28.21875 57.125 36.328125 
Q 57.125 47.5625 53.4375 53.59375 
Q 49.75 59.625 44.484375 61.671875 
Q 40.671875 63.140625 32.234375 63.140625 
L 17.1875 63.140625 
z
" id="ArialMT-68"/>
      <path d="M 40.4375 6.390625 
Q 35.546875 2.25 31.03125 0.53125 
Q 26.515625 -1.171875 21.34375 -1.171875 
Q 12.796875 -1.171875 8.203125 3 
Q 3.609375 7.171875 3.609375 13.671875 
Q 3.609375 17.484375 5.34375 20.625 
Q 7.078125 23.78125 9.890625 25.6875 
Q 12.703125 27.59375 16.21875 28.5625 
Q 18.796875 29.25 24.03125 29.890625 
Q 34.671875 31.15625 39.703125 32.90625 
Q 39.75 34.71875 39.75 35.203125 
Q 39.75 40.578125 37.25 42.78125 
Q 33.890625 45.75 27.25 45.75 
Q 21.046875 45.75 18.09375 43.578125 
Q 15.140625 41.40625 13.71875 35.890625 
L 5.125 37.0625 
Q 6.296875 42.578125 8.984375 45.96875 
Q 11.671875 49.359375 16.75 51.1875 
Q 21.828125 53.03125 28.515625 53.03125 
Q 35.15625 53.03125 39.296875 51.46875 
Q 43.453125 49.90625 45.40625 47.53125 
Q 47.359375 45.171875 48.140625 41.546875 
Q 48.578125 39.3125 48.578125 33.453125 
L 48.578125 21.734375 
Q 48.578125 9.46875 49.140625 6.21875 
Q 49.703125 2.984375 51.375 0 
L 42.1875 0 
Q 40.828125 2.734375 40.4375 6.390625 
z
M 39.703125 26.03125 
Q 34.90625 24.078125 25.34375 22.703125 
Q 19.921875 21.921875 17.671875 20.9375 
Q 15.4375 19.96875 14.203125 18.09375 
Q 12.984375 16.21875 12.984375 13.921875 
Q 12.984375 10.40625 15.640625 8.0625 
Q 18.3125 5.71875 23.4375 5.71875 
Q 28.515625 5.71875 32.46875 7.9375 
Q 36.421875 10.15625 38.28125 14.015625 
Q 39.703125 17 39.703125 22.796875 
z
" id="ArialMT-97"/>
      <path d="M 6.203125 -19.96875 
L 5.21875 -11.71875 
Q 8.109375 -12.5 10.25 -12.5 
Q 13.1875 -12.5 14.9375 -11.515625 
Q 16.703125 -10.546875 17.828125 -8.796875 
Q 18.65625 -7.46875 20.515625 -2.25 
Q 20.75 -1.515625 21.296875 -0.09375 
L 1.609375 51.859375 
L 11.078125 51.859375 
L 21.875 21.828125 
Q 23.96875 16.109375 25.640625 9.8125 
Q 27.15625 15.875 29.25 21.625 
L 40.328125 51.859375 
L 49.125 51.859375 
L 29.390625 -0.875 
Q 26.21875 -9.421875 24.46875 -12.640625 
Q 22.125 -17 19.09375 -19.015625 
Q 16.0625 -21.046875 11.859375 -21.046875 
Q 9.328125 -21.046875 6.203125 -19.96875 
z
" id="ArialMT-121"/>
      <path d="M 3.078125 15.484375 
L 11.765625 16.84375 
Q 12.5 11.625 15.84375 8.84375 
Q 19.1875 6.0625 25.203125 6.0625 
Q 31.25 6.0625 34.171875 8.515625 
Q 37.109375 10.984375 37.109375 14.3125 
Q 37.109375 17.28125 34.515625 19 
Q 32.71875 20.171875 25.53125 21.96875 
Q 15.875 24.421875 12.140625 26.203125 
Q 8.40625 27.984375 6.46875 31.125 
Q 4.546875 34.28125 4.546875 38.09375 
Q 4.546875 41.546875 6.125 44.5 
Q 7.71875 47.46875 10.453125 49.421875 
Q 12.5 50.921875 16.03125 51.96875 
Q 19.578125 53.03125 23.640625 53.03125 
Q 29.734375 53.03125 34.34375 51.265625 
Q 38.96875 49.515625 41.15625 46.5 
Q 43.359375 43.5 44.1875 38.484375 
L 35.59375 37.3125 
Q 35.015625 41.3125 32.203125 43.546875 
Q 29.390625 45.796875 24.265625 45.796875 
Q 18.21875 45.796875 15.625 43.796875 
Q 13.03125 41.796875 13.03125 39.109375 
Q 13.03125 37.40625 14.109375 36.03125 
Q 15.1875 34.625 17.484375 33.6875 
Q 18.796875 33.203125 25.25 31.453125 
Q 34.578125 28.953125 38.25 27.359375 
Q 41.9375 25.78125 44.03125 22.75 
Q 46.140625 19.734375 46.140625 15.234375 
Q 46.140625 10.84375 43.578125 6.953125 
Q 41.015625 3.078125 36.171875 0.953125 
Q 31.34375 -1.171875 25.25 -1.171875 
Q 15.140625 -1.171875 9.84375 3.03125 
Q 4.546875 7.234375 3.078125 15.484375 
z
" id="ArialMT-115"/>
      <path id="ArialMT-32"/>
      <path d="M 3.328125 25.921875 
Q 3.328125 40.328125 11.328125 47.265625 
Q 18.015625 53.03125 27.640625 53.03125 
Q 38.328125 53.03125 45.109375 46.015625 
Q 51.90625 39.015625 51.90625 26.65625 
Q 51.90625 16.65625 48.90625 10.90625 
Q 45.90625 5.171875 40.15625 2 
Q 34.421875 -1.171875 27.640625 -1.171875 
Q 16.75 -1.171875 10.03125 5.8125 
Q 3.328125 12.796875 3.328125 25.921875 
z
M 12.359375 25.921875 
Q 12.359375 15.96875 16.703125 11.015625 
Q 21.046875 6.0625 27.640625 6.0625 
Q 34.1875 6.0625 38.53125 11.03125 
Q 42.875 16.015625 42.875 26.21875 
Q 42.875 35.84375 38.5 40.796875 
Q 34.125 45.75 27.640625 45.75 
Q 21.046875 45.75 16.703125 40.8125 
Q 12.359375 35.890625 12.359375 25.921875 
z
" id="ArialMT-111"/>
      <path d="M 8.6875 0 
L 8.6875 45.015625 
L 0.921875 45.015625 
L 0.921875 51.859375 
L 8.6875 51.859375 
L 8.6875 57.375 
Q 8.6875 62.59375 9.625 65.140625 
Q 10.890625 68.5625 14.078125 70.671875 
Q 17.28125 72.796875 23.046875 72.796875 
Q 26.765625 72.796875 31.25 71.921875 
L 29.9375 64.265625 
Q 27.203125 64.75 24.75 64.75 
Q 20.75 64.75 19.09375 63.03125 
Q 17.4375 61.328125 17.4375 56.640625 
L 17.4375 51.859375 
L 27.546875 51.859375 
L 27.546875 45.015625 
L 17.4375 45.015625 
L 17.4375 0 
z
" id="ArialMT-102"/>
      <path d="M 7.421875 0 
L 7.421875 71.578125 
L 21.6875 71.578125 
L 38.625 20.90625 
Q 40.96875 13.8125 42.046875 10.296875 
Q 43.265625 14.203125 45.84375 21.78125 
L 62.984375 71.578125 
L 75.734375 71.578125 
L 75.734375 0 
L 66.609375 0 
L 66.609375 59.90625 
L 45.796875 0 
L 37.25 0 
L 16.546875 60.9375 
L 16.546875 0 
z
" id="ArialMT-77"/>
      <path d="M 42.09375 16.703125 
L 51.171875 15.578125 
Q 49.03125 7.625 43.21875 3.21875 
Q 37.40625 -1.171875 28.375 -1.171875 
Q 17 -1.171875 10.328125 5.828125 
Q 3.65625 12.84375 3.65625 25.484375 
Q 3.65625 38.578125 10.390625 45.796875 
Q 17.140625 53.03125 27.875 53.03125 
Q 38.28125 53.03125 44.875 45.953125 
Q 51.46875 38.875 51.46875 26.03125 
Q 51.46875 25.25 51.421875 23.6875 
L 12.75 23.6875 
Q 13.234375 15.140625 17.578125 10.59375 
Q 21.921875 6.0625 28.421875 6.0625 
Q 33.25 6.0625 36.671875 8.59375 
Q 40.09375 11.140625 42.09375 16.703125 
z
M 13.234375 30.90625 
L 42.1875 30.90625 
Q 41.609375 37.453125 38.875 40.71875 
Q 34.671875 45.796875 27.984375 45.796875 
Q 21.921875 45.796875 17.796875 41.75 
Q 13.671875 37.703125 13.234375 30.90625 
z
" id="ArialMT-101"/>
      <path d="M 6.59375 0 
L 6.59375 51.859375 
L 14.453125 51.859375 
L 14.453125 44.578125 
Q 16.890625 48.390625 20.9375 50.703125 
Q 25 53.03125 30.171875 53.03125 
Q 35.9375 53.03125 39.625 50.640625 
Q 43.3125 48.25 44.828125 43.953125 
Q 50.984375 53.03125 60.84375 53.03125 
Q 68.5625 53.03125 72.703125 48.75 
Q 76.859375 44.484375 76.859375 35.59375 
L 76.859375 0 
L 68.109375 0 
L 68.109375 32.671875 
Q 68.109375 37.9375 67.25 40.25 
Q 66.40625 42.578125 64.15625 43.984375 
Q 61.921875 45.40625 58.890625 45.40625 
Q 53.421875 45.40625 49.796875 41.765625 
Q 46.1875 38.140625 46.1875 30.125 
L 46.1875 0 
L 37.40625 0 
L 37.40625 33.6875 
Q 37.40625 39.546875 35.25 42.46875 
Q 33.109375 45.40625 28.21875 45.40625 
Q 24.515625 45.40625 21.359375 43.453125 
Q 18.21875 41.5 16.796875 37.734375 
Q 15.375 33.984375 15.375 26.90625 
L 15.375 0 
z
" id="ArialMT-109"/>
      <path d="M 14.703125 0 
L 6.546875 0 
L 6.546875 71.578125 
L 15.328125 71.578125 
L 15.328125 46.046875 
Q 20.90625 53.03125 29.546875 53.03125 
Q 34.328125 53.03125 38.59375 51.09375 
Q 42.875 49.171875 45.625 45.671875 
Q 48.390625 42.1875 49.953125 37.25 
Q 51.515625 32.328125 51.515625 26.703125 
Q 51.515625 13.375 44.921875 6.09375 
Q 38.328125 -1.171875 29.109375 -1.171875 
Q 19.921875 -1.171875 14.703125 6.5 
z
M 14.59375 26.3125 
Q 14.59375 17 17.140625 12.84375 
Q 21.296875 6.0625 28.375 6.0625 
Q 34.125 6.0625 38.328125 11.0625 
Q 42.53125 16.0625 42.53125 25.984375 
Q 42.53125 36.140625 38.5 40.96875 
Q 34.46875 45.796875 28.765625 45.796875 
Q 23 45.796875 18.796875 40.796875 
Q 14.59375 35.796875 14.59375 26.3125 
z
" id="ArialMT-98"/>
      <path d="M 6.5 0 
L 6.5 51.859375 
L 14.40625 51.859375 
L 14.40625 44 
Q 17.4375 49.515625 20 51.265625 
Q 22.5625 53.03125 25.640625 53.03125 
Q 30.078125 53.03125 34.671875 50.203125 
L 31.640625 42.046875 
Q 28.421875 43.953125 25.203125 43.953125 
Q 22.3125 43.953125 20.015625 42.21875 
Q 17.71875 40.484375 16.75 37.40625 
Q 15.28125 32.71875 15.28125 27.15625 
L 15.28125 0 
z
" id="ArialMT-114"/>
      <path d="M 6.59375 0 
L 6.59375 71.578125 
L 15.375 71.578125 
L 15.375 45.90625 
Q 21.53125 53.03125 30.90625 53.03125 
Q 36.671875 53.03125 40.921875 50.75 
Q 45.171875 48.484375 47 44.484375 
Q 48.828125 40.484375 48.828125 32.859375 
L 48.828125 0 
L 40.046875 0 
L 40.046875 32.859375 
Q 40.046875 39.453125 37.1875 42.453125 
Q 34.328125 45.453125 29.109375 45.453125 
Q 25.203125 45.453125 21.75 43.421875 
Q 18.3125 41.40625 16.84375 37.9375 
Q 15.375 34.46875 15.375 28.375 
L 15.375 0 
z
" id="ArialMT-104"/>
      <path d="M 6.640625 61.46875 
L 6.640625 71.578125 
L 15.4375 71.578125 
L 15.4375 61.46875 
z
M 6.640625 0 
L 6.640625 51.859375 
L 15.4375 51.859375 
L 15.4375 0 
z
" id="ArialMT-105"/>
      <path d="M 6.59375 -19.875 
L 6.59375 51.859375 
L 14.59375 51.859375 
L 14.59375 45.125 
Q 17.4375 49.078125 21 51.046875 
Q 24.5625 53.03125 29.640625 53.03125 
Q 36.28125 53.03125 41.359375 49.609375 
Q 46.4375 46.1875 49.015625 39.953125 
Q 51.609375 33.734375 51.609375 26.3125 
Q 51.609375 18.359375 48.75 11.984375 
Q 45.90625 5.609375 40.453125 2.21875 
Q 35.015625 -1.171875 29 -1.171875 
Q 24.609375 -1.171875 21.109375 0.6875 
Q 17.625 2.546875 15.375 5.375 
L 15.375 -19.875 
z
M 14.546875 25.640625 
Q 14.546875 15.625 18.59375 10.84375 
Q 22.65625 6.0625 28.421875 6.0625 
Q 34.28125 6.0625 38.453125 11.015625 
Q 42.625 15.96875 42.625 26.375 
Q 42.625 36.28125 38.546875 41.203125 
Q 34.46875 46.140625 28.8125 46.140625 
Q 23.1875 46.140625 18.859375 40.890625 
Q 14.546875 35.640625 14.546875 25.640625 
z
" id="ArialMT-112"/>
     </defs>
     <g style="fill:#262626;" transform="translate(275.347335 288.994336)scale(0.15 -0.15)">
      <use xlink:href="#ArialMT-68"/>
      <use x="72.216797" xlink:href="#ArialMT-97"/>
      <use x="127.832031" xlink:href="#ArialMT-121"/>
      <use x="177.832031" xlink:href="#ArialMT-115"/>
      <use x="227.832031" xlink:href="#ArialMT-32"/>
      <use x="255.615234" xlink:href="#ArialMT-111"/>
      <use x="311.230469" xlink:href="#ArialMT-102"/>
      <use x="339.013672" xlink:href="#ArialMT-32"/>
      <use x="366.796875" xlink:href="#ArialMT-77"/>
      <use x="450.097656" xlink:href="#ArialMT-101"/>
      <use x="505.712891" xlink:href="#ArialMT-109"/>
      <use x="589.013672" xlink:href="#ArialMT-98"/>
      <use x="644.628906" xlink:href="#ArialMT-101"/>
      <use x="700.244141" xlink:href="#ArialMT-114"/>
      <use x="733.544922" xlink:href="#ArialMT-115"/>
      <use x="783.544922" xlink:href="#ArialMT-104"/>
      <use x="839.160156" xlink:href="#ArialMT-105"/>
      <use x="861.376953" xlink:href="#ArialMT-112"/>
     </g>
    </g>
   </g>
   <g id="matplotlib.axis_2">
    <g id="ytick_1">
     <g id="line2d_6">
      <path clip-path="url(#p090f2d8ea6)" d="M 180 252 
L 508.235294 252 
" style="fill:none;stroke:#cccccc;stroke-linecap:round;"/>
     </g>
     <g id="text_7">
      <!-- 0.00000 -->
      <defs>
       <path d="M 9.078125 0 
L 9.078125 10.015625 
L 19.09375 10.015625 
L 19.09375 0 
z
" id="ArialMT-46"/>
      </defs>
      <g style="fill:#262626;" transform="translate(120.802344 256.920996)scale(0.1375 -0.1375)">
       <use xlink:href="#ArialMT-48"/>
       <use x="55.615234" xlink:href="#ArialMT-46"/>
       <use x="83.398438" xlink:href="#ArialMT-48"/>
       <use x="139.013672" xlink:href="#ArialMT-48"/>
       <use x="194.628906" xlink:href="#ArialMT-48"/>
       <use x="250.244141" xlink:href="#ArialMT-48"/>
       <use x="305.859375" xlink:href="#ArialMT-48"/>
      </g>
     </g>
    </g>
    <g id="ytick_2">
     <g id="line2d_7">
      <path clip-path="url(#p090f2d8ea6)" d="M 180 220.843809 
L 508.235294 220.843809 
" style="fill:none;stroke:#cccccc;stroke-linecap:round;"/>
     </g>
     <g id="text_8">
      <!-- 0.00025 -->
      <g style="fill:#262626;" transform="translate(120.802344 225.764805)scale(0.1375 -0.1375)">
       <use xlink:href="#ArialMT-48"/>
       <use x="55.615234" xlink:href="#ArialMT-46"/>
       <use x="83.398438" xlink:href="#ArialMT-48"/>
       <use x="139.013672" xlink:href="#ArialMT-48"/>
       <use x="194.628906" xlink:href="#ArialMT-48"/>
       <use x="250.244141" xlink:href="#ArialMT-50"/>
       <use x="305.859375" xlink:href="#ArialMT-53"/>
      </g>
     </g>
    </g>
    <g id="ytick_3">
     <g id="line2d_8">
      <path clip-path="url(#p090f2d8ea6)" d="M 180 189.687618 
L 508.235294 189.687618 
" style="fill:none;stroke:#cccccc;stroke-linecap:round;"/>
     </g>
     <g id="text_9">
      <!-- 0.00050 -->
      <g style="fill:#262626;" transform="translate(120.802344 194.608615)scale(0.1375 -0.1375)">
       <use xlink:href="#ArialMT-48"/>
       <use x="55.615234" xlink:href="#ArialMT-46"/>
       <use x="83.398438" xlink:href="#ArialMT-48"/>
       <use x="139.013672" xlink:href="#ArialMT-48"/>
       <use x="194.628906" xlink:href="#ArialMT-48"/>
       <use x="250.244141" xlink:href="#ArialMT-53"/>
       <use x="305.859375" xlink:href="#ArialMT-48"/>
      </g>
     </g>
    </g>
    <g id="ytick_4">
     <g id="line2d_9">
      <path clip-path="url(#p090f2d8ea6)" d="M 180 158.531428 
L 508.235294 158.531428 
" style="fill:none;stroke:#cccccc;stroke-linecap:round;"/>
     </g>
     <g id="text_10">
      <!-- 0.00075 -->
      <defs>
       <path d="M 4.734375 62.203125 
L 4.734375 70.65625 
L 51.078125 70.65625 
L 51.078125 63.8125 
Q 44.234375 56.546875 37.515625 44.484375 
Q 30.8125 32.421875 27.15625 19.671875 
Q 24.515625 10.6875 23.78125 0 
L 14.75 0 
Q 14.890625 8.453125 18.0625 20.40625 
Q 21.234375 32.375 27.171875 43.484375 
Q 33.109375 54.59375 39.796875 62.203125 
z
" id="ArialMT-55"/>
      </defs>
      <g style="fill:#262626;" transform="translate(120.802344 163.452424)scale(0.1375 -0.1375)">
       <use xlink:href="#ArialMT-48"/>
       <use x="55.615234" xlink:href="#ArialMT-46"/>
       <use x="83.398438" xlink:href="#ArialMT-48"/>
       <use x="139.013672" xlink:href="#ArialMT-48"/>
       <use x="194.628906" xlink:href="#ArialMT-48"/>
       <use x="250.244141" xlink:href="#ArialMT-55"/>
       <use x="305.859375" xlink:href="#ArialMT-53"/>
      </g>
     </g>
    </g>
    <g id="ytick_5">
     <g id="line2d_10">
      <path clip-path="url(#p090f2d8ea6)" d="M 180 127.375237 
L 508.235294 127.375237 
" style="fill:none;stroke:#cccccc;stroke-linecap:round;"/>
     </g>
     <g id="text_11">
      <!-- 0.00100 -->
      <g style="fill:#262626;" transform="translate(120.802344 132.296233)scale(0.1375 -0.1375)">
       <use xlink:href="#ArialMT-48"/>
       <use x="55.615234" xlink:href="#ArialMT-46"/>
       <use x="83.398438" xlink:href="#ArialMT-48"/>
       <use x="139.013672" xlink:href="#ArialMT-48"/>
       <use x="194.628906" xlink:href="#ArialMT-49"/>
       <use x="250.244141" xlink:href="#ArialMT-48"/>
       <use x="305.859375" xlink:href="#ArialMT-48"/>
      </g>
     </g>
    </g>
    <g id="ytick_6">
     <g id="line2d_11">
      <path clip-path="url(#p090f2d8ea6)" d="M 180 96.219046 
L 508.235294 96.219046 
" style="fill:none;stroke:#cccccc;stroke-linecap:round;"/>
     </g>
     <g id="text_12">
      <!-- 0.00125 -->
      <g style="fill:#262626;" transform="translate(120.802344 101.140042)scale(0.1375 -0.1375)">
       <use xlink:href="#ArialMT-48"/>
       <use x="55.615234" xlink:href="#ArialMT-46"/>
       <use x="83.398438" xlink:href="#ArialMT-48"/>
       <use x="139.013672" xlink:href="#ArialMT-48"/>
       <use x="194.628906" xlink:href="#ArialMT-49"/>
       <use x="250.244141" xlink:href="#ArialMT-50"/>
       <use x="305.859375" xlink:href="#ArialMT-53"/>
      </g>
     </g>
    </g>
    <g id="ytick_7">
     <g id="line2d_12">
      <path clip-path="url(#p090f2d8ea6)" d="M 180 65.062855 
L 508.235294 65.062855 
" style="fill:none;stroke:#cccccc;stroke-linecap:round;"/>
     </g>
     <g id="text_13">
      <!-- 0.00150 -->
      <g style="fill:#262626;" transform="translate(120.802344 69.983852)scale(0.1375 -0.1375)">
       <use xlink:href="#ArialMT-48"/>
       <use x="55.615234" xlink:href="#ArialMT-46"/>
       <use x="83.398438" xlink:href="#ArialMT-48"/>
       <use x="139.013672" xlink:href="#ArialMT-48"/>
       <use x="194.628906" xlink:href="#ArialMT-49"/>
       <use x="250.244141" xlink:href="#ArialMT-53"/>
       <use x="305.859375" xlink:href="#ArialMT-48"/>
      </g>
     </g>
    </g>
    <g id="text_14">
     <!-- Distribution -->
     <defs>
      <path d="M 25.78125 7.859375 
L 27.046875 0.09375 
Q 23.34375 -0.6875 20.40625 -0.6875 
Q 15.625 -0.6875 12.984375 0.828125 
Q 10.359375 2.34375 9.28125 4.8125 
Q 8.203125 7.28125 8.203125 15.1875 
L 8.203125 45.015625 
L 1.765625 45.015625 
L 1.765625 51.859375 
L 8.203125 51.859375 
L 8.203125 64.703125 
L 16.9375 69.96875 
L 16.9375 51.859375 
L 25.78125 51.859375 
L 25.78125 45.015625 
L 16.9375 45.015625 
L 16.9375 14.703125 
Q 16.9375 10.9375 17.40625 9.859375 
Q 17.875 8.796875 18.921875 8.15625 
Q 19.96875 7.515625 21.921875 7.515625 
Q 23.390625 7.515625 25.78125 7.859375 
z
" id="ArialMT-116"/>
      <path d="M 40.578125 0 
L 40.578125 7.625 
Q 34.515625 -1.171875 24.125 -1.171875 
Q 19.53125 -1.171875 15.546875 0.578125 
Q 11.578125 2.34375 9.640625 5 
Q 7.71875 7.671875 6.9375 11.53125 
Q 6.390625 14.109375 6.390625 19.734375 
L 6.390625 51.859375 
L 15.1875 51.859375 
L 15.1875 23.09375 
Q 15.1875 16.21875 15.71875 13.8125 
Q 16.546875 10.359375 19.234375 8.375 
Q 21.921875 6.390625 25.875 6.390625 
Q 29.828125 6.390625 33.296875 8.421875 
Q 36.765625 10.453125 38.203125 13.9375 
Q 39.65625 17.4375 39.65625 24.078125 
L 39.65625 51.859375 
L 48.4375 51.859375 
L 48.4375 0 
z
" id="ArialMT-117"/>
      <path d="M 6.59375 0 
L 6.59375 51.859375 
L 14.5 51.859375 
L 14.5 44.484375 
Q 20.21875 53.03125 31 53.03125 
Q 35.6875 53.03125 39.625 51.34375 
Q 43.5625 49.65625 45.515625 46.921875 
Q 47.46875 44.1875 48.25 40.4375 
Q 48.734375 37.984375 48.734375 31.890625 
L 48.734375 0 
L 39.9375 0 
L 39.9375 31.546875 
Q 39.9375 36.921875 38.90625 39.578125 
Q 37.890625 42.234375 35.28125 43.8125 
Q 32.671875 45.40625 29.15625 45.40625 
Q 23.53125 45.40625 19.453125 41.84375 
Q 15.375 38.28125 15.375 28.328125 
L 15.375 0 
z
" id="ArialMT-110"/>
     </defs>
     <g style="fill:#262626;" transform="translate(113.821094 180.792891)rotate(-90)scale(0.15 -0.15)">
      <use xlink:href="#ArialMT-68"/>
      <use x="72.216797" xlink:href="#ArialMT-105"/>
      <use x="94.433594" xlink:href="#ArialMT-115"/>
      <use x="144.433594" xlink:href="#ArialMT-116"/>
      <use x="172.216797" xlink:href="#ArialMT-114"/>
      <use x="205.517578" xlink:href="#ArialMT-105"/>
      <use x="227.734375" xlink:href="#ArialMT-98"/>
      <use x="283.349609" xlink:href="#ArialMT-117"/>
      <use x="338.964844" xlink:href="#ArialMT-116"/>
      <use x="366.748047" xlink:href="#ArialMT-105"/>
      <use x="388.964844" xlink:href="#ArialMT-111"/>
      <use x="444.580078" xlink:href="#ArialMT-110"/>
     </g>
    </g>
   </g>
   <g id="patch_3">
    <path clip-path="url(#p090f2d8ea6)" d="M 240.062375 252 
L 261.376451 252 
L 261.376451 130.801798 
L 240.062375 130.801798 
z
" style="fill:#da8bc3;opacity:0.4;stroke:#ffffff;stroke-linejoin:miter;"/>
   </g>
   <g id="patch_4">
    <path clip-path="url(#p090f2d8ea6)" d="M 261.376451 252 
L 282.690527 252 
L 282.690527 46.766581 
L 261.376451 46.766581 
z
" style="fill:#da8bc3;opacity:0.4;stroke:#ffffff;stroke-linejoin:miter;"/>
   </g>
   <g id="patch_5">
    <path clip-path="url(#p090f2d8ea6)" d="M 282.690527 252 
L 304.004603 252 
L 304.004603 170.977998 
L 282.690527 170.977998 
z
" style="fill:#da8bc3;opacity:0.4;stroke:#ffffff;stroke-linejoin:miter;"/>
   </g>
   <g id="patch_6">
    <path clip-path="url(#p090f2d8ea6)" d="M 304.004603 252 
L 325.318679 252 
L 325.318679 170.419995 
L 304.004603 170.419995 
z
" style="fill:#da8bc3;opacity:0.4;stroke:#ffffff;stroke-linejoin:miter;"/>
   </g>
   <g id="patch_7">
    <path clip-path="url(#p090f2d8ea6)" d="M 325.318679 252 
L 346.632755 252 
L 346.632755 165.844372 
L 325.318679 165.844372 
z
" style="fill:#da8bc3;opacity:0.4;stroke:#ffffff;stroke-linejoin:miter;"/>
   </g>
   <g id="patch_8">
    <path clip-path="url(#p090f2d8ea6)" d="M 346.632755 252 
L 367.946831 252 
L 367.946831 177.116028 
L 346.632755 177.116028 
z
" style="fill:#da8bc3;opacity:0.4;stroke:#ffffff;stroke-linejoin:miter;"/>
   </g>
   <g id="patch_9">
    <path clip-path="url(#p090f2d8ea6)" d="M 367.946831 252 
L 389.260907 252 
L 389.260907 242.737154 
L 367.946831 242.737154 
z
" style="fill:#da8bc3;opacity:0.4;stroke:#ffffff;stroke-linejoin:miter;"/>
   </g>
   <g id="patch_10">
    <path clip-path="url(#p090f2d8ea6)" d="M 389.260907 252 
L 410.574982 252 
L 410.574982 245.192366 
L 389.260907 245.192366 
z
" style="fill:#da8bc3;opacity:0.4;stroke:#ffffff;stroke-linejoin:miter;"/>
   </g>
   <g id="patch_11">
    <path clip-path="url(#p090f2d8ea6)" d="M 410.574982 252 
L 431.889058 252 
L 431.889058 243.406757 
L 410.574982 243.406757 
z
" style="fill:#da8bc3;opacity:0.4;stroke:#ffffff;stroke-linejoin:miter;"/>
   </g>
   <g id="patch_12">
    <path clip-path="url(#p090f2d8ea6)" d="M 431.889058 252 
L 453.203134 252 
L 453.203134 242.737154 
L 431.889058 242.737154 
z
" style="fill:#da8bc3;opacity:0.4;stroke:#ffffff;stroke-linejoin:miter;"/>
   </g>
   <g id="line2d_13">
    <path clip-path="url(#p090f2d8ea6)" d="M 217.224495 251.824725 
L 219.838803 251.490636 
L 222.453112 250.671707 
L 225.06742 248.886144 
L 227.681728 245.423006 
L 230.296036 239.447493 
L 232.910345 230.273004 
L 235.524653 217.733548 
L 238.138961 202.461865 
L 240.75327 185.850112 
L 243.367578 169.616994 
L 245.981886 155.153812 
L 248.596194 142.98538 
L 251.210503 132.632113 
L 253.824811 122.942128 
L 256.439119 112.728729 
L 259.053428 101.41603 
L 261.667736 89.400185 
L 264.282044 77.970754 
L 266.896352 68.859523 
L 269.510661 63.671349 
L 272.124969 63.465195 
L 274.739277 68.584347 
L 277.353585 78.647358 
L 279.967894 92.584576 
L 282.582202 108.731563 
L 285.19651 125.085567 
L 287.810819 139.752005 
L 290.425127 151.424897 
L 293.039435 159.658091 
L 295.653743 164.794798 
L 298.268052 167.633457 
L 300.88236 169.039792 
L 303.496668 169.686245 
L 306.110977 169.972385 
L 308.725285 170.069582 
L 311.339593 170.005061 
L 313.953901 169.737625 
L 316.56821 169.221406 
L 319.182518 168.463664 
L 321.796826 167.563013 
L 324.411134 166.702063 
L 327.025443 166.088691 
L 329.639751 165.878518 
L 332.254059 166.127704 
L 334.868368 166.799921 
L 337.482676 167.808386 
L 340.096984 169.055262 
L 342.711292 170.450111 
L 345.325601 171.920738 
L 347.939909 173.440825 
L 350.554217 175.081416 
L 353.168526 177.064022 
L 355.782834 179.771832 
L 358.397142 183.676246 
L 361.01145 189.167738 
L 363.625759 196.3403 
L 366.240067 204.837282 
L 368.854375 213.870869 
L 371.468683 222.446846 
L 374.082992 229.699361 
L 376.6973 235.162661 
L 379.311608 238.846284 
L 381.925917 241.10733 
L 384.540225 242.42668 
L 387.154533 243.218807 
L 389.768841 243.745462 
L 392.38315 244.126063 
L 394.997458 244.395193 
L 397.611766 244.559135 
L 400.226075 244.6277 
L 402.840383 244.62103 
L 405.454691 244.562586 
L 408.068999 244.470043 
L 410.683308 244.351137 
L 413.297616 244.206562 
L 415.911924 244.038322 
L 418.526232 243.858776 
L 421.140541 243.69336 
L 423.754849 243.571857 
L 426.369157 243.511087 
L 428.983466 243.500991 
L 431.597774 243.507121 
L 434.212082 243.492535 
L 436.82639 243.448881 
L 439.440699 243.419559 
L 442.055007 243.500069 
L 444.669315 243.809546 
L 447.283623 244.440858 
L 449.897932 245.410822 
L 452.51224 246.637959 
L 455.126548 247.963965 
L 457.740857 249.210167 
L 460.355165 250.238962 
L 462.969473 250.989304 
L 465.583781 251.474442 
L 468.19809 251.753085 
L 470.812398 251.89543 
L 473.426706 251.960156 
L 476.041015 251.986362 
" style="fill:none;stroke:#da8bc3;stroke-linecap:round;stroke-width:1.5;"/>
   </g>
   <g id="patch_13">
    <path d="M 180 252 
L 180 34.56 
" style="fill:none;stroke:#cccccc;stroke-linecap:square;stroke-linejoin:miter;stroke-width:1.25;"/>
   </g>
   <g id="patch_14">
    <path d="M 508.235294 252 
L 508.235294 34.56 
" style="fill:none;stroke:#cccccc;stroke-linecap:square;stroke-linejoin:miter;stroke-width:1.25;"/>
   </g>
   <g id="patch_15">
    <path d="M 180 252 
L 508.235294 252 
" style="fill:none;stroke:#cccccc;stroke-linecap:square;stroke-linejoin:miter;stroke-width:1.25;"/>
   </g>
   <g id="patch_16">
    <path d="M 180 34.56 
L 508.235294 34.56 
" style="fill:none;stroke:#cccccc;stroke-linecap:square;stroke-linejoin:miter;stroke-width:1.25;"/>
   </g>
   <g id="text_15">
    <!-- Female's Membership Duration Distribution -->
    <defs>
     <path d="M 8.203125 0 
L 8.203125 71.578125 
L 56.5 71.578125 
L 56.5 63.140625 
L 17.671875 63.140625 
L 17.671875 40.96875 
L 51.265625 40.96875 
L 51.265625 32.515625 
L 17.671875 32.515625 
L 17.671875 0 
z
" id="ArialMT-70"/>
     <path d="M 6.390625 0 
L 6.390625 71.578125 
L 15.1875 71.578125 
L 15.1875 0 
z
" id="ArialMT-108"/>
     <path d="M 6.640625 46.234375 
L 4.390625 59.625 
L 4.390625 71.578125 
L 14.40625 71.578125 
L 14.40625 59.625 
L 12.0625 46.234375 
z
" id="ArialMT-39"/>
    </defs>
    <g style="fill:#262626;" transform="translate(200.5571 28.56)scale(0.15 -0.15)">
     <use xlink:href="#ArialMT-70"/>
     <use x="61.083984" xlink:href="#ArialMT-101"/>
     <use x="116.699219" xlink:href="#ArialMT-109"/>
     <use x="200" xlink:href="#ArialMT-97"/>
     <use x="255.615234" xlink:href="#ArialMT-108"/>
     <use x="277.832031" xlink:href="#ArialMT-101"/>
     <use x="333.447266" xlink:href="#ArialMT-39"/>
     <use x="352.539062" xlink:href="#ArialMT-115"/>
     <use x="402.539062" xlink:href="#ArialMT-32"/>
     <use x="430.322266" xlink:href="#ArialMT-77"/>
     <use x="513.623047" xlink:href="#ArialMT-101"/>
     <use x="569.238281" xlink:href="#ArialMT-109"/>
     <use x="652.539062" xlink:href="#ArialMT-98"/>
     <use x="708.154297" xlink:href="#ArialMT-101"/>
     <use x="763.769531" xlink:href="#ArialMT-114"/>
     <use x="797.070312" xlink:href="#ArialMT-115"/>
     <use x="847.070312" xlink:href="#ArialMT-104"/>
     <use x="902.685547" xlink:href="#ArialMT-105"/>
     <use x="924.902344" xlink:href="#ArialMT-112"/>
     <use x="980.517578" xlink:href="#ArialMT-32"/>
     <use x="1008.300781" xlink:href="#ArialMT-68"/>
     <use x="1080.517578" xlink:href="#ArialMT-117"/>
     <use x="1136.132812" xlink:href="#ArialMT-114"/>
     <use x="1169.433594" xlink:href="#ArialMT-97"/>
     <use x="1225.048828" xlink:href="#ArialMT-116"/>
     <use x="1252.832031" xlink:href="#ArialMT-105"/>
     <use x="1275.048828" xlink:href="#ArialMT-111"/>
     <use x="1330.664062" xlink:href="#ArialMT-110"/>
     <use x="1386.279297" xlink:href="#ArialMT-32"/>
     <use x="1414.0625" xlink:href="#ArialMT-68"/>
     <use x="1486.279297" xlink:href="#ArialMT-105"/>
     <use x="1508.496094" xlink:href="#ArialMT-115"/>
     <use x="1558.496094" xlink:href="#ArialMT-116"/>
     <use x="1586.279297" xlink:href="#ArialMT-114"/>
     <use x="1619.580078" xlink:href="#ArialMT-105"/>
     <use x="1641.796875" xlink:href="#ArialMT-98"/>
     <use x="1697.412109" xlink:href="#ArialMT-117"/>
     <use x="1753.027344" xlink:href="#ArialMT-116"/>
     <use x="1780.810547" xlink:href="#ArialMT-105"/>
     <use x="1803.027344" xlink:href="#ArialMT-111"/>
     <use x="1858.642578" xlink:href="#ArialMT-110"/>
    </g>
   </g>
  </g>
  <g id="axes_2">
   <g id="patch_17">
    <path d="M 573.882353 252 
L 902.117647 252 
L 902.117647 34.56 
L 573.882353 34.56 
z
" style="fill:#ffffff;"/>
   </g>
   <g id="matplotlib.axis_3">
    <g id="xtick_6">
     <g id="line2d_14">
      <path clip-path="url(#pf4f6be573c)" d="M 619.205027 252 
L 619.205027 34.56 
" style="fill:none;stroke:#cccccc;stroke-linecap:round;"/>
     </g>
     <g id="text_16">
      <!-- 500 -->
      <g style="fill:#262626;" transform="translate(607.735593 271.341992)scale(0.1375 -0.1375)">
       <use xlink:href="#ArialMT-53"/>
       <use x="55.615234" xlink:href="#ArialMT-48"/>
       <use x="111.230469" xlink:href="#ArialMT-48"/>
      </g>
     </g>
    </g>
    <g id="xtick_7">
     <g id="line2d_15">
      <path clip-path="url(#pf4f6be573c)" d="M 677.695905 252 
L 677.695905 34.56 
" style="fill:none;stroke:#cccccc;stroke-linecap:round;"/>
     </g>
     <g id="text_17">
      <!-- 1000 -->
      <g style="fill:#262626;" transform="translate(662.403327 271.341992)scale(0.1375 -0.1375)">
       <use xlink:href="#ArialMT-49"/>
       <use x="55.615234" xlink:href="#ArialMT-48"/>
       <use x="111.230469" xlink:href="#ArialMT-48"/>
       <use x="166.845703" xlink:href="#ArialMT-48"/>
      </g>
     </g>
    </g>
    <g id="xtick_8">
     <g id="line2d_16">
      <path clip-path="url(#pf4f6be573c)" d="M 736.186783 252 
L 736.186783 34.56 
" style="fill:none;stroke:#cccccc;stroke-linecap:round;"/>
     </g>
     <g id="text_18">
      <!-- 1500 -->
      <g style="fill:#262626;" transform="translate(720.894205 271.341992)scale(0.1375 -0.1375)">
       <use xlink:href="#ArialMT-49"/>
       <use x="55.615234" xlink:href="#ArialMT-53"/>
       <use x="111.230469" xlink:href="#ArialMT-48"/>
       <use x="166.845703" xlink:href="#ArialMT-48"/>
      </g>
     </g>
    </g>
    <g id="xtick_9">
     <g id="line2d_17">
      <path clip-path="url(#pf4f6be573c)" d="M 794.677661 252 
L 794.677661 34.56 
" style="fill:none;stroke:#cccccc;stroke-linecap:round;"/>
     </g>
     <g id="text_19">
      <!-- 2000 -->
      <g style="fill:#262626;" transform="translate(779.385083 271.341992)scale(0.1375 -0.1375)">
       <use xlink:href="#ArialMT-50"/>
       <use x="55.615234" xlink:href="#ArialMT-48"/>
       <use x="111.230469" xlink:href="#ArialMT-48"/>
       <use x="166.845703" xlink:href="#ArialMT-48"/>
      </g>
     </g>
    </g>
    <g id="xtick_10">
     <g id="line2d_18">
      <path clip-path="url(#pf4f6be573c)" d="M 853.168539 252 
L 853.168539 34.56 
" style="fill:none;stroke:#cccccc;stroke-linecap:round;"/>
     </g>
     <g id="text_20">
      <!-- 2500 -->
      <g style="fill:#262626;" transform="translate(837.87596 271.341992)scale(0.1375 -0.1375)">
       <use xlink:href="#ArialMT-50"/>
       <use x="55.615234" xlink:href="#ArialMT-53"/>
       <use x="111.230469" xlink:href="#ArialMT-48"/>
       <use x="166.845703" xlink:href="#ArialMT-48"/>
      </g>
     </g>
    </g>
    <g id="text_21">
     <!-- Days of Membership -->
     <g style="fill:#262626;" transform="translate(669.229687 288.994336)scale(0.15 -0.15)">
      <use xlink:href="#ArialMT-68"/>
      <use x="72.216797" xlink:href="#ArialMT-97"/>
      <use x="127.832031" xlink:href="#ArialMT-121"/>
      <use x="177.832031" xlink:href="#ArialMT-115"/>
      <use x="227.832031" xlink:href="#ArialMT-32"/>
      <use x="255.615234" xlink:href="#ArialMT-111"/>
      <use x="311.230469" xlink:href="#ArialMT-102"/>
      <use x="339.013672" xlink:href="#ArialMT-32"/>
      <use x="366.796875" xlink:href="#ArialMT-77"/>
      <use x="450.097656" xlink:href="#ArialMT-101"/>
      <use x="505.712891" xlink:href="#ArialMT-109"/>
      <use x="589.013672" xlink:href="#ArialMT-98"/>
      <use x="644.628906" xlink:href="#ArialMT-101"/>
      <use x="700.244141" xlink:href="#ArialMT-114"/>
      <use x="733.544922" xlink:href="#ArialMT-115"/>
      <use x="783.544922" xlink:href="#ArialMT-104"/>
      <use x="839.160156" xlink:href="#ArialMT-105"/>
      <use x="861.376953" xlink:href="#ArialMT-112"/>
     </g>
    </g>
   </g>
   <g id="matplotlib.axis_4">
    <g id="ytick_8">
     <g id="line2d_19">
      <path clip-path="url(#pf4f6be573c)" d="M 573.882353 252 
L 902.117647 252 
" style="fill:none;stroke:#cccccc;stroke-linecap:round;"/>
     </g>
    </g>
    <g id="ytick_9">
     <g id="line2d_20">
      <path clip-path="url(#pf4f6be573c)" d="M 573.882353 220.843809 
L 902.117647 220.843809 
" style="fill:none;stroke:#cccccc;stroke-linecap:round;"/>
     </g>
    </g>
    <g id="ytick_10">
     <g id="line2d_21">
      <path clip-path="url(#pf4f6be573c)" d="M 573.882353 189.687618 
L 902.117647 189.687618 
" style="fill:none;stroke:#cccccc;stroke-linecap:round;"/>
     </g>
    </g>
    <g id="ytick_11">
     <g id="line2d_22">
      <path clip-path="url(#pf4f6be573c)" d="M 573.882353 158.531428 
L 902.117647 158.531428 
" style="fill:none;stroke:#cccccc;stroke-linecap:round;"/>
     </g>
    </g>
    <g id="ytick_12">
     <g id="line2d_23">
      <path clip-path="url(#pf4f6be573c)" d="M 573.882353 127.375237 
L 902.117647 127.375237 
" style="fill:none;stroke:#cccccc;stroke-linecap:round;"/>
     </g>
    </g>
    <g id="ytick_13">
     <g id="line2d_24">
      <path clip-path="url(#pf4f6be573c)" d="M 573.882353 96.219046 
L 902.117647 96.219046 
" style="fill:none;stroke:#cccccc;stroke-linecap:round;"/>
     </g>
    </g>
    <g id="ytick_14">
     <g id="line2d_25">
      <path clip-path="url(#pf4f6be573c)" d="M 573.882353 65.062855 
L 902.117647 65.062855 
" style="fill:none;stroke:#cccccc;stroke-linecap:round;"/>
     </g>
    </g>
   </g>
   <g id="patch_18">
    <path clip-path="url(#pf4f6be573c)" d="M 633.944728 252 
L 655.270502 252 
L 655.270502 92.777676 
L 633.944728 92.777676 
z
" style="fill:#8c8c8c;opacity:0.4;stroke:#ffffff;stroke-linejoin:miter;"/>
   </g>
   <g id="patch_19">
    <path clip-path="url(#pf4f6be573c)" d="M 655.270502 252 
L 676.596276 252 
L 676.596276 44.914286 
L 655.270502 44.914286 
z
" style="fill:#8c8c8c;opacity:0.4;stroke:#ffffff;stroke-linejoin:miter;"/>
   </g>
   <g id="patch_20">
    <path clip-path="url(#pf4f6be573c)" d="M 676.596276 252 
L 697.92205 252 
L 697.92205 192.855675 
L 676.596276 192.855675 
z
" style="fill:#8c8c8c;opacity:0.4;stroke:#ffffff;stroke-linejoin:miter;"/>
   </g>
   <g id="patch_21">
    <path clip-path="url(#pf4f6be573c)" d="M 697.92205 252 
L 719.247825 252 
L 719.247825 193.339144 
L 697.92205 193.339144 
z
" style="fill:#8c8c8c;opacity:0.4;stroke:#ffffff;stroke-linejoin:miter;"/>
   </g>
   <g id="patch_22">
    <path clip-path="url(#pf4f6be573c)" d="M 719.247825 252 
L 740.573599 252 
L 740.573599 192.049894 
L 719.247825 192.049894 
z
" style="fill:#8c8c8c;opacity:0.4;stroke:#ffffff;stroke-linejoin:miter;"/>
   </g>
   <g id="patch_23">
    <path clip-path="url(#pf4f6be573c)" d="M 740.573599 252 
L 761.899373 252 
L 761.899373 194.547815 
L 740.573599 194.547815 
z
" style="fill:#8c8c8c;opacity:0.4;stroke:#ffffff;stroke-linejoin:miter;"/>
   </g>
   <g id="patch_24">
    <path clip-path="url(#pf4f6be573c)" d="M 761.899373 252 
L 783.225147 252 
L 783.225147 231.049694 
L 761.899373 231.049694 
z
" style="fill:#8c8c8c;opacity:0.4;stroke:#ffffff;stroke-linejoin:miter;"/>
   </g>
   <g id="patch_25">
    <path clip-path="url(#pf4f6be573c)" d="M 783.225147 252 
L 804.550921 252 
L 804.550921 231.774897 
L 783.225147 231.774897 
z
" style="fill:#8c8c8c;opacity:0.4;stroke:#ffffff;stroke-linejoin:miter;"/>
   </g>
   <g id="patch_26">
    <path clip-path="url(#pf4f6be573c)" d="M 804.550921 252 
L 825.876695 252 
L 825.876695 230.646804 
L 804.550921 230.646804 
z
" style="fill:#8c8c8c;opacity:0.4;stroke:#ffffff;stroke-linejoin:miter;"/>
   </g>
   <g id="patch_27">
    <path clip-path="url(#pf4f6be573c)" d="M 825.876695 252 
L 847.202469 252 
L 847.202469 232.419522 
L 825.876695 232.419522 
z
" style="fill:#8c8c8c;opacity:0.4;stroke:#ffffff;stroke-linejoin:miter;"/>
   </g>
   <g id="line2d_26">
    <path clip-path="url(#pf4f6be573c)" d="M 608.040274 251.779736 
L 610.717715 251.418961 
L 613.395156 250.596877 
L 616.072597 248.89419 
L 618.750037 245.688572 
L 621.427478 240.202235 
L 624.104919 231.665133 
L 626.78236 219.583676 
L 629.459801 204.025627 
L 632.137242 185.773385 
L 634.814683 166.220361 
L 637.492124 147.003667 
L 640.169565 129.518474 
L 642.847006 114.540687 
L 645.524446 102.131092 
L 648.201887 91.839396 
L 650.879328 83.075522 
L 653.556769 75.460664 
L 656.23421 69.025938 
L 658.911651 64.230342 
L 661.589092 61.843712 
L 664.266533 62.750727 
L 666.943974 67.70643 
L 669.621415 77.06662 
L 672.298856 90.551924 
L 674.976296 107.148234 
L 677.653737 125.235557 
L 680.331178 142.945973 
L 683.008619 158.627305 
L 685.68606 171.221999 
L 688.363501 180.414172 
L 691.040942 186.521806 
L 693.718383 190.229744 
L 696.395824 192.303377 
L 699.073265 193.387219 
L 701.750705 193.921475 
L 704.428146 194.152308 
L 707.105587 194.18912 
L 709.783028 194.068498 
L 712.460469 193.802709 
L 715.13791 193.40744 
L 717.815351 192.913505 
L 720.492792 192.369768 
L 723.170233 191.841728 
L 725.847674 191.405632 
L 728.525115 191.136496 
L 731.202555 191.09188 
L 733.879996 191.298673 
L 736.557437 191.751415 
L 739.234878 192.425851 
L 741.912319 193.304315 
L 744.58976 194.40464 
L 747.267201 195.801553 
L 749.944642 197.626894 
L 752.622083 200.035915 
L 755.299524 203.138822 
L 757.976965 206.920287 
L 760.654405 211.189763 
L 763.331846 215.601019 
L 766.009287 219.744772 
L 768.686728 223.274628 
L 771.364169 226.005713 
L 774.04161 227.942603 
L 776.719051 229.233995 
L 779.396492 230.087112 
L 782.073933 230.685741 
L 784.751374 231.14291 
L 787.428814 231.496127 
L 790.106255 231.733537 
L 792.783696 231.830457 
L 795.461137 231.778135 
L 798.138578 231.595908 
L 800.816019 231.327867 
L 803.49346 231.030665 
L 806.170901 230.759416 
L 808.848342 230.556438 
L 811.525783 230.445778 
L 814.203224 230.435105 
L 816.880664 230.523964 
L 819.558105 230.713463 
L 822.235546 231.010739 
L 824.912987 231.425591 
L 827.590428 231.964691 
L 830.267869 232.63314 
L 832.94531 233.447283 
L 835.622751 234.449597 
L 838.300192 235.707933 
L 840.977633 237.287943 
L 843.655073 239.207159 
L 846.332514 241.3972 
L 849.009955 243.701107 
L 851.687396 245.913179 
L 854.364837 247.842591 
L 857.042278 249.368531 
L 859.719719 250.462275 
L 862.39716 251.172825 
L 865.074601 251.591333 
L 867.752042 251.814892 
L 870.429483 251.923237 
L 873.106923 251.970889 
" style="fill:none;stroke:#8c8c8c;stroke-linecap:round;stroke-width:1.5;"/>
   </g>
   <g id="patch_28">
    <path d="M 573.882353 252 
L 573.882353 34.56 
" style="fill:none;stroke:#cccccc;stroke-linecap:square;stroke-linejoin:miter;stroke-width:1.25;"/>
   </g>
   <g id="patch_29">
    <path d="M 902.117647 252 
L 902.117647 34.56 
" style="fill:none;stroke:#cccccc;stroke-linecap:square;stroke-linejoin:miter;stroke-width:1.25;"/>
   </g>
   <g id="patch_30">
    <path d="M 573.882353 252 
L 902.117647 252 
" style="fill:none;stroke:#cccccc;stroke-linecap:square;stroke-linejoin:miter;stroke-width:1.25;"/>
   </g>
   <g id="patch_31">
    <path d="M 573.882353 34.56 
L 902.117647 34.56 
" style="fill:none;stroke:#cccccc;stroke-linecap:square;stroke-linejoin:miter;stroke-width:1.25;"/>
   </g>
   <g id="text_22">
    <!-- Male's Membership Distribution -->
    <g style="fill:#262626;" transform="translate(633.621094 28.56)scale(0.15 -0.15)">
     <use xlink:href="#ArialMT-77"/>
     <use x="83.300781" xlink:href="#ArialMT-97"/>
     <use x="138.916016" xlink:href="#ArialMT-108"/>
     <use x="161.132812" xlink:href="#ArialMT-101"/>
     <use x="216.748047" xlink:href="#ArialMT-39"/>
     <use x="235.839844" xlink:href="#ArialMT-115"/>
     <use x="285.839844" xlink:href="#ArialMT-32"/>
     <use x="313.623047" xlink:href="#ArialMT-77"/>
     <use x="396.923828" xlink:href="#ArialMT-101"/>
     <use x="452.539062" xlink:href="#ArialMT-109"/>
     <use x="535.839844" xlink:href="#ArialMT-98"/>
     <use x="591.455078" xlink:href="#ArialMT-101"/>
     <use x="647.070312" xlink:href="#ArialMT-114"/>
     <use x="680.371094" xlink:href="#ArialMT-115"/>
     <use x="730.371094" xlink:href="#ArialMT-104"/>
     <use x="785.986328" xlink:href="#ArialMT-105"/>
     <use x="808.203125" xlink:href="#ArialMT-112"/>
     <use x="863.818359" xlink:href="#ArialMT-32"/>
     <use x="891.601562" xlink:href="#ArialMT-68"/>
     <use x="963.818359" xlink:href="#ArialMT-105"/>
     <use x="986.035156" xlink:href="#ArialMT-115"/>
     <use x="1036.035156" xlink:href="#ArialMT-116"/>
     <use x="1063.818359" xlink:href="#ArialMT-114"/>
     <use x="1097.119141" xlink:href="#ArialMT-105"/>
     <use x="1119.335938" xlink:href="#ArialMT-98"/>
     <use x="1174.951172" xlink:href="#ArialMT-117"/>
     <use x="1230.566406" xlink:href="#ArialMT-116"/>
     <use x="1258.349609" xlink:href="#ArialMT-105"/>
     <use x="1280.566406" xlink:href="#ArialMT-111"/>
     <use x="1336.181641" xlink:href="#ArialMT-110"/>
    </g>
   </g>
  </g>
  <g id="axes_3">
   <g id="patch_32">
    <path d="M 967.764706 252 
L 1296 252 
L 1296 34.56 
L 967.764706 34.56 
z
" style="fill:#ffffff;"/>
   </g>
   <g id="matplotlib.axis_5">
    <g id="xtick_11">
     <g id="line2d_27">
      <path clip-path="url(#pa508ab3ad6)" d="M 1013.08738 252 
L 1013.08738 34.56 
" style="fill:none;stroke:#cccccc;stroke-linecap:round;"/>
     </g>
     <g id="text_23">
      <!-- 500 -->
      <g style="fill:#262626;" transform="translate(1001.617946 271.341992)scale(0.1375 -0.1375)">
       <use xlink:href="#ArialMT-53"/>
       <use x="55.615234" xlink:href="#ArialMT-48"/>
       <use x="111.230469" xlink:href="#ArialMT-48"/>
      </g>
     </g>
    </g>
    <g id="xtick_12">
     <g id="line2d_28">
      <path clip-path="url(#pa508ab3ad6)" d="M 1071.578258 252 
L 1071.578258 34.56 
" style="fill:none;stroke:#cccccc;stroke-linecap:round;"/>
     </g>
     <g id="text_24">
      <!-- 1000 -->
      <g style="fill:#262626;" transform="translate(1056.28568 271.341992)scale(0.1375 -0.1375)">
       <use xlink:href="#ArialMT-49"/>
       <use x="55.615234" xlink:href="#ArialMT-48"/>
       <use x="111.230469" xlink:href="#ArialMT-48"/>
       <use x="166.845703" xlink:href="#ArialMT-48"/>
      </g>
     </g>
    </g>
    <g id="xtick_13">
     <g id="line2d_29">
      <path clip-path="url(#pa508ab3ad6)" d="M 1130.069136 252 
L 1130.069136 34.56 
" style="fill:none;stroke:#cccccc;stroke-linecap:round;"/>
     </g>
     <g id="text_25">
      <!-- 1500 -->
      <g style="fill:#262626;" transform="translate(1114.776558 271.341992)scale(0.1375 -0.1375)">
       <use xlink:href="#ArialMT-49"/>
       <use x="55.615234" xlink:href="#ArialMT-53"/>
       <use x="111.230469" xlink:href="#ArialMT-48"/>
       <use x="166.845703" xlink:href="#ArialMT-48"/>
      </g>
     </g>
    </g>
    <g id="xtick_14">
     <g id="line2d_30">
      <path clip-path="url(#pa508ab3ad6)" d="M 1188.560014 252 
L 1188.560014 34.56 
" style="fill:none;stroke:#cccccc;stroke-linecap:round;"/>
     </g>
     <g id="text_26">
      <!-- 2000 -->
      <g style="fill:#262626;" transform="translate(1173.267435 271.341992)scale(0.1375 -0.1375)">
       <use xlink:href="#ArialMT-50"/>
       <use x="55.615234" xlink:href="#ArialMT-48"/>
       <use x="111.230469" xlink:href="#ArialMT-48"/>
       <use x="166.845703" xlink:href="#ArialMT-48"/>
      </g>
     </g>
    </g>
    <g id="xtick_15">
     <g id="line2d_31">
      <path clip-path="url(#pa508ab3ad6)" d="M 1247.050891 252 
L 1247.050891 34.56 
" style="fill:none;stroke:#cccccc;stroke-linecap:round;"/>
     </g>
     <g id="text_27">
      <!-- 2500 -->
      <g style="fill:#262626;" transform="translate(1231.758313 271.341992)scale(0.1375 -0.1375)">
       <use xlink:href="#ArialMT-50"/>
       <use x="55.615234" xlink:href="#ArialMT-53"/>
       <use x="111.230469" xlink:href="#ArialMT-48"/>
       <use x="166.845703" xlink:href="#ArialMT-48"/>
      </g>
     </g>
    </g>
    <g id="text_28">
     <!-- Days of Membership -->
     <g style="fill:#262626;" transform="translate(1063.11204 288.994336)scale(0.15 -0.15)">
      <use xlink:href="#ArialMT-68"/>
      <use x="72.216797" xlink:href="#ArialMT-97"/>
      <use x="127.832031" xlink:href="#ArialMT-121"/>
      <use x="177.832031" xlink:href="#ArialMT-115"/>
      <use x="227.832031" xlink:href="#ArialMT-32"/>
      <use x="255.615234" xlink:href="#ArialMT-111"/>
      <use x="311.230469" xlink:href="#ArialMT-102"/>
      <use x="339.013672" xlink:href="#ArialMT-32"/>
      <use x="366.796875" xlink:href="#ArialMT-77"/>
      <use x="450.097656" xlink:href="#ArialMT-101"/>
      <use x="505.712891" xlink:href="#ArialMT-109"/>
      <use x="589.013672" xlink:href="#ArialMT-98"/>
      <use x="644.628906" xlink:href="#ArialMT-101"/>
      <use x="700.244141" xlink:href="#ArialMT-114"/>
      <use x="733.544922" xlink:href="#ArialMT-115"/>
      <use x="783.544922" xlink:href="#ArialMT-104"/>
      <use x="839.160156" xlink:href="#ArialMT-105"/>
      <use x="861.376953" xlink:href="#ArialMT-112"/>
     </g>
    </g>
   </g>
   <g id="matplotlib.axis_6">
    <g id="ytick_15">
     <g id="line2d_32">
      <path clip-path="url(#pa508ab3ad6)" d="M 967.764706 252 
L 1296 252 
" style="fill:none;stroke:#cccccc;stroke-linecap:round;"/>
     </g>
    </g>
    <g id="ytick_16">
     <g id="line2d_33">
      <path clip-path="url(#pa508ab3ad6)" d="M 967.764706 220.843809 
L 1296 220.843809 
" style="fill:none;stroke:#cccccc;stroke-linecap:round;"/>
     </g>
    </g>
    <g id="ytick_17">
     <g id="line2d_34">
      <path clip-path="url(#pa508ab3ad6)" d="M 967.764706 189.687618 
L 1296 189.687618 
" style="fill:none;stroke:#cccccc;stroke-linecap:round;"/>
     </g>
    </g>
    <g id="ytick_18">
     <g id="line2d_35">
      <path clip-path="url(#pa508ab3ad6)" d="M 967.764706 158.531428 
L 1296 158.531428 
" style="fill:none;stroke:#cccccc;stroke-linecap:round;"/>
     </g>
    </g>
    <g id="ytick_19">
     <g id="line2d_36">
      <path clip-path="url(#pa508ab3ad6)" d="M 967.764706 127.375237 
L 1296 127.375237 
" style="fill:none;stroke:#cccccc;stroke-linecap:round;"/>
     </g>
    </g>
    <g id="ytick_20">
     <g id="line2d_37">
      <path clip-path="url(#pa508ab3ad6)" d="M 967.764706 96.219046 
L 1296 96.219046 
" style="fill:none;stroke:#cccccc;stroke-linecap:round;"/>
     </g>
    </g>
    <g id="ytick_21">
     <g id="line2d_38">
      <path clip-path="url(#pa508ab3ad6)" d="M 967.764706 65.062855 
L 1296 65.062855 
" style="fill:none;stroke:#cccccc;stroke-linecap:round;"/>
     </g>
    </g>
   </g>
   <g id="patch_33">
    <path clip-path="url(#pa508ab3ad6)" d="M 1028.762935 252 
L 1049.386819 252 
L 1049.386819 85.280585 
L 1028.762935 85.280585 
z
" style="fill:#ccb974;opacity:0.4;stroke:#ffffff;stroke-linejoin:miter;"/>
   </g>
   <g id="patch_34">
    <path clip-path="url(#pa508ab3ad6)" d="M 1049.386819 252 
L 1070.010702 252 
L 1070.010702 48.602314 
L 1049.386819 48.602314 
z
" style="fill:#ccb974;opacity:0.4;stroke:#ffffff;stroke-linejoin:miter;"/>
   </g>
   <g id="patch_35">
    <path clip-path="url(#pa508ab3ad6)" d="M 1070.010702 252 
L 1090.634586 252 
L 1090.634586 158.637128 
L 1070.010702 158.637128 
z
" style="fill:#ccb974;opacity:0.4;stroke:#ffffff;stroke-linejoin:miter;"/>
   </g>
   <g id="patch_36">
    <path clip-path="url(#pa508ab3ad6)" d="M 1090.634586 252 
L 1111.258469 252 
L 1111.258469 188.646622 
L 1090.634586 188.646622 
z
" style="fill:#ccb974;opacity:0.4;stroke:#ffffff;stroke-linejoin:miter;"/>
   </g>
   <g id="patch_37">
    <path clip-path="url(#pa508ab3ad6)" d="M 1111.258469 252 
L 1131.882353 252 
L 1131.882353 205.318564 
L 1111.258469 205.318564 
z
" style="fill:#ccb974;opacity:0.4;stroke:#ffffff;stroke-linejoin:miter;"/>
   </g>
   <g id="patch_38">
    <path clip-path="url(#pa508ab3ad6)" d="M 1131.882353 252 
L 1152.506236 252 
L 1152.506236 171.974681 
L 1131.882353 171.974681 
z
" style="fill:#ccb974;opacity:0.4;stroke:#ffffff;stroke-linejoin:miter;"/>
   </g>
   <g id="patch_39">
    <path clip-path="url(#pa508ab3ad6)" d="M 1152.506236 252 
L 1173.13012 252 
L 1173.13012 225.324894 
L 1152.506236 225.324894 
z
" style="fill:#ccb974;opacity:0.4;stroke:#ffffff;stroke-linejoin:miter;"/>
   </g>
   <g id="patch_40">
    <path clip-path="url(#pa508ab3ad6)" d="M 1173.13012 252 
L 1193.754004 252 
L 1193.754004 248.665612 
L 1173.13012 248.665612 
z
" style="fill:#ccb974;opacity:0.4;stroke:#ffffff;stroke-linejoin:miter;"/>
   </g>
   <g id="patch_41">
    <path clip-path="url(#pa508ab3ad6)" d="M 1193.754004 252 
L 1214.377887 252 
L 1214.377887 238.662447 
L 1193.754004 238.662447 
z
" style="fill:#ccb974;opacity:0.4;stroke:#ffffff;stroke-linejoin:miter;"/>
   </g>
   <g id="patch_42">
    <path clip-path="url(#pa508ab3ad6)" d="M 1214.377887 252 
L 1235.001771 252 
L 1235.001771 241.996835 
L 1214.377887 241.996835 
z
" style="fill:#ccb974;opacity:0.4;stroke:#ffffff;stroke-linejoin:miter;"/>
   </g>
   <g id="line2d_39">
    <path clip-path="url(#pa508ab3ad6)" d="M 982.684492 251.843574 
L 985.69859 251.702948 
L 988.712688 251.454949 
L 991.726787 251.033413 
L 994.740885 250.342801 
L 997.754983 249.252205 
L 1000.769081 247.592099 
L 1003.783179 245.156169 
L 1006.797278 241.710579 
L 1009.811376 237.012248 
L 1012.825474 230.836151 
L 1015.839572 223.009465 
L 1018.85367 213.447957 
L 1021.867769 202.188186 
L 1024.881867 189.408562 
L 1027.895965 175.433527 
L 1030.910063 160.718115 
L 1033.924161 145.814171 
L 1036.93826 131.323494 
L 1039.952358 117.845788 
L 1042.966456 105.929862 
L 1045.980554 96.034754 
L 1048.994652 88.504211 
L 1052.008751 83.554337 
L 1055.022849 81.271643 
L 1058.036947 81.617779 
L 1061.051045 84.438107 
L 1064.065143 89.473105 
L 1067.079242 96.373339 
L 1070.09334 104.71959 
L 1073.107438 114.049057 
L 1076.121536 123.886951 
L 1079.135634 133.780703 
L 1082.149733 143.332557 
L 1085.163831 152.225931 
L 1088.177929 160.241739 
L 1091.192027 167.262627 
L 1094.206125 173.265135 
L 1097.220224 178.301677 
L 1100.234322 182.475605 
L 1103.24842 185.913418 
L 1106.262518 188.738406 
L 1109.276616 191.04977 
L 1112.290715 192.910498 
L 1115.304813 194.345991 
L 1118.318911 195.353631 
L 1121.333009 195.921381 
L 1124.347107 196.051477 
L 1127.361206 195.783789 
L 1130.375304 195.212992 
L 1133.389402 194.494576 
L 1136.4035 193.836849 
L 1139.417598 193.479169 
L 1142.431697 193.659874 
L 1145.445795 194.580077 
L 1148.459893 196.370782 
L 1151.473991 199.070331 
L 1154.488089 202.616958 
L 1157.502188 206.857803 
L 1160.516286 211.572004 
L 1163.530384 216.502576 
L 1166.544482 221.390316 
L 1169.55858 226.003473 
L 1172.572679 230.158803 
L 1175.586777 233.732379 
L 1178.600875 236.66102 
L 1181.614973 238.936821 
L 1184.629071 240.597733 
L 1187.64317 241.716537 
L 1190.657268 242.38958 
L 1193.671366 242.725733 
L 1196.685464 242.835677 
L 1199.699562 242.821847 
L 1202.713661 242.769869 
L 1205.727759 242.742716 
L 1208.741857 242.778716 
L 1211.755955 242.893822 
L 1214.770053 243.087527 
L 1217.784152 243.350734 
L 1220.79825 243.673352 
L 1223.812348 244.049548 
L 1226.826446 244.479443 
L 1229.840544 244.967292 
L 1232.854643 245.517288 
L 1235.868741 246.128846 
L 1238.882839 246.793174 
L 1241.896937 247.492311 
L 1244.911035 248.200888 
L 1247.925134 248.889961 
L 1250.939232 249.531679 
L 1253.95333 250.1035 
L 1256.967428 250.590965 
L 1259.981526 250.9886 
L 1262.995625 251.299096 
L 1266.009723 251.531298 
L 1269.023821 251.697687 
L 1272.037919 251.811983 
L 1275.052018 251.887279 
L 1278.066116 251.934869 
L 1281.080214 251.963736 
" style="fill:none;stroke:#ccb974;stroke-linecap:round;stroke-width:1.5;"/>
   </g>
   <g id="patch_43">
    <path d="M 967.764706 252 
L 967.764706 34.56 
" style="fill:none;stroke:#cccccc;stroke-linecap:square;stroke-linejoin:miter;stroke-width:1.25;"/>
   </g>
   <g id="patch_44">
    <path d="M 1296 252 
L 1296 34.56 
" style="fill:none;stroke:#cccccc;stroke-linecap:square;stroke-linejoin:miter;stroke-width:1.25;"/>
   </g>
   <g id="patch_45">
    <path d="M 967.764706 252 
L 1296 252 
" style="fill:none;stroke:#cccccc;stroke-linecap:square;stroke-linejoin:miter;stroke-width:1.25;"/>
   </g>
   <g id="patch_46">
    <path d="M 967.764706 34.56 
L 1296 34.56 
" style="fill:none;stroke:#cccccc;stroke-linecap:square;stroke-linejoin:miter;stroke-width:1.25;"/>
   </g>
   <g id="text_29">
    <!-- Other's Membership Distribution -->
    <defs>
     <path d="M 4.828125 34.859375 
Q 4.828125 52.6875 14.390625 62.765625 
Q 23.96875 72.859375 39.109375 72.859375 
Q 49.03125 72.859375 56.984375 68.109375 
Q 64.9375 63.375 69.109375 54.90625 
Q 73.296875 46.4375 73.296875 35.6875 
Q 73.296875 24.8125 68.890625 16.21875 
Q 64.5 7.625 56.4375 3.203125 
Q 48.390625 -1.21875 39.0625 -1.21875 
Q 28.953125 -1.21875 20.984375 3.65625 
Q 13.03125 8.546875 8.921875 16.984375 
Q 4.828125 25.4375 4.828125 34.859375 
z
M 14.59375 34.71875 
Q 14.59375 21.78125 21.546875 14.328125 
Q 28.515625 6.890625 39.015625 6.890625 
Q 49.703125 6.890625 56.609375 14.40625 
Q 63.53125 21.921875 63.53125 35.75 
Q 63.53125 44.484375 60.578125 51 
Q 57.625 57.515625 51.921875 61.109375 
Q 46.234375 64.703125 39.15625 64.703125 
Q 29.109375 64.703125 21.84375 57.78125 
Q 14.59375 50.875 14.59375 34.71875 
z
" id="ArialMT-79"/>
    </defs>
    <g style="fill:#262626;" transform="translate(1025.002665 28.56)scale(0.15 -0.15)">
     <use xlink:href="#ArialMT-79"/>
     <use x="77.783203" xlink:href="#ArialMT-116"/>
     <use x="105.566406" xlink:href="#ArialMT-104"/>
     <use x="161.181641" xlink:href="#ArialMT-101"/>
     <use x="216.796875" xlink:href="#ArialMT-114"/>
     <use x="250.097656" xlink:href="#ArialMT-39"/>
     <use x="269.189453" xlink:href="#ArialMT-115"/>
     <use x="319.189453" xlink:href="#ArialMT-32"/>
     <use x="346.972656" xlink:href="#ArialMT-77"/>
     <use x="430.273438" xlink:href="#ArialMT-101"/>
     <use x="485.888672" xlink:href="#ArialMT-109"/>
     <use x="569.189453" xlink:href="#ArialMT-98"/>
     <use x="624.804688" xlink:href="#ArialMT-101"/>
     <use x="680.419922" xlink:href="#ArialMT-114"/>
     <use x="713.720703" xlink:href="#ArialMT-115"/>
     <use x="763.720703" xlink:href="#ArialMT-104"/>
     <use x="819.335938" xlink:href="#ArialMT-105"/>
     <use x="841.552734" xlink:href="#ArialMT-112"/>
     <use x="897.167969" xlink:href="#ArialMT-32"/>
     <use x="924.951172" xlink:href="#ArialMT-68"/>
     <use x="997.167969" xlink:href="#ArialMT-105"/>
     <use x="1019.384766" xlink:href="#ArialMT-115"/>
     <use x="1069.384766" xlink:href="#ArialMT-116"/>
     <use x="1097.167969" xlink:href="#ArialMT-114"/>
     <use x="1130.46875" xlink:href="#ArialMT-105"/>
     <use x="1152.685547" xlink:href="#ArialMT-98"/>
     <use x="1208.300781" xlink:href="#ArialMT-117"/>
     <use x="1263.916016" xlink:href="#ArialMT-116"/>
     <use x="1291.699219" xlink:href="#ArialMT-105"/>
     <use x="1313.916016" xlink:href="#ArialMT-111"/>
     <use x="1369.53125" xlink:href="#ArialMT-110"/>
    </g>
   </g>
  </g>
 </g>
 <defs>
  <clipPath id="p090f2d8ea6">
   <rect height="217.44" width="328.235294" x="180" y="34.56"/>
  </clipPath>
  <clipPath id="pf4f6be573c">
   <rect height="217.44" width="328.235294" x="573.882353" y="34.56"/>
  </clipPath>
  <clipPath id="pa508ab3ad6">
   <rect height="217.44" width="328.235294" x="967.764706" y="34.56"/>
  </clipPath>
 </defs>
</svg>
