<?xml version="1.0" encoding="utf-8" standalone="no"?>
<!DOCTYPE svg PUBLIC "-//W3C//DTD SVG 1.1//EN"
  "http://www.w3.org/Graphics/SVG/1.1/DTD/svg11.dtd">
<!-- Created with matplotlib (https://matplotlib.org/) -->
<svg height="288pt" version="1.1" viewBox="0 0 1440 288" width="1440pt" xmlns="http://www.w3.org/2000/svg" xmlns:xlink="http://www.w3.org/1999/xlink">
 <defs>
  <style type="text/css">
*{stroke-linecap:butt;stroke-linejoin:round;}
  </style>
 </defs>
 <g id="figure_1">
  <g id="patch_1">
   <path d="M 0 288 
L 1440 288 
L 1440 0 
L 0 0 
z
" style="fill:#ffffff;"/>
  </g>
  <g id="axes_1">
   <g id="patch_2">
    <path d="M 180 252 
L 508.235294 252 
L 508.235294 34.56 
L 180 34.56 
z
" style="fill:#ffffff;"/>
   </g>
   <g id="matplotlib.axis_1">
    <g id="xtick_1">
     <g id="line2d_1">
      <path clip-path="url(#pd2e2dae036)" d="M 186.110345 252 
L 186.110345 34.56 
" style="fill:none;stroke:#cccccc;stroke-linecap:round;"/>
     </g>
     <g id="text_1">
      <!-- 0 -->
      <defs>
       <path d="M 4.15625 35.296875 
Q 4.15625 48 6.765625 55.734375 
Q 9.375 63.484375 14.515625 67.671875 
Q 19.671875 71.875 27.484375 71.875 
Q 33.25 71.875 37.59375 69.546875 
Q 41.9375 67.234375 44.765625 62.859375 
Q 47.609375 58.5 49.21875 52.21875 
Q 50.828125 45.953125 50.828125 35.296875 
Q 50.828125 22.703125 48.234375 14.96875 
Q 45.65625 7.234375 40.5 3 
Q 35.359375 -1.21875 27.484375 -1.21875 
Q 17.140625 -1.21875 11.234375 6.203125 
Q 4.15625 15.140625 4.15625 35.296875 
z
M 13.1875 35.296875 
Q 13.1875 17.671875 17.3125 11.828125 
Q 21.4375 6 27.484375 6 
Q 33.546875 6 37.671875 11.859375 
Q 41.796875 17.71875 41.796875 35.296875 
Q 41.796875 52.984375 37.671875 58.78125 
Q 33.546875 64.59375 27.390625 64.59375 
Q 21.34375 64.59375 17.71875 59.46875 
Q 13.1875 52.9375 13.1875 35.296875 
z
" id="ArialMT-48"/>
      </defs>
      <g style="fill:#262626;" transform="translate(182.287201 271.341992)scale(0.1375 -0.1375)">
       <use xlink:href="#ArialMT-48"/>
      </g>
     </g>
    </g>
    <g id="xtick_2">
     <g id="line2d_2">
      <path clip-path="url(#pd2e2dae036)" d="M 238.779446 252 
L 238.779446 34.56 
" style="fill:none;stroke:#cccccc;stroke-linecap:round;"/>
     </g>
     <g id="text_2">
      <!-- 20 -->
      <defs>
       <path d="M 50.34375 8.453125 
L 50.34375 0 
L 3.03125 0 
Q 2.9375 3.171875 4.046875 6.109375 
Q 5.859375 10.9375 9.828125 15.625 
Q 13.8125 20.3125 21.34375 26.46875 
Q 33.015625 36.03125 37.109375 41.625 
Q 41.21875 47.21875 41.21875 52.203125 
Q 41.21875 57.421875 37.46875 61 
Q 33.734375 64.59375 27.734375 64.59375 
Q 21.390625 64.59375 17.578125 60.78125 
Q 13.765625 56.984375 13.71875 50.25 
L 4.6875 51.171875 
Q 5.609375 61.28125 11.65625 66.578125 
Q 17.71875 71.875 27.9375 71.875 
Q 38.234375 71.875 44.234375 66.15625 
Q 50.25 60.453125 50.25 52 
Q 50.25 47.703125 48.484375 43.546875 
Q 46.734375 39.40625 42.65625 34.8125 
Q 38.578125 30.21875 29.109375 22.21875 
Q 21.1875 15.578125 18.9375 13.203125 
Q 16.703125 10.84375 15.234375 8.453125 
z
" id="ArialMT-50"/>
      </defs>
      <g style="fill:#262626;" transform="translate(231.133157 271.341992)scale(0.1375 -0.1375)">
       <use xlink:href="#ArialMT-50"/>
       <use x="55.615234" xlink:href="#ArialMT-48"/>
      </g>
     </g>
    </g>
    <g id="xtick_3">
     <g id="line2d_3">
      <path clip-path="url(#pd2e2dae036)" d="M 291.448546 252 
L 291.448546 34.56 
" style="fill:none;stroke:#cccccc;stroke-linecap:round;"/>
     </g>
     <g id="text_3">
      <!-- 40 -->
      <defs>
       <path d="M 32.328125 0 
L 32.328125 17.140625 
L 1.265625 17.140625 
L 1.265625 25.203125 
L 33.9375 71.578125 
L 41.109375 71.578125 
L 41.109375 25.203125 
L 50.78125 25.203125 
L 50.78125 17.140625 
L 41.109375 17.140625 
L 41.109375 0 
z
M 32.328125 25.203125 
L 32.328125 57.46875 
L 9.90625 25.203125 
z
" id="ArialMT-52"/>
      </defs>
      <g style="fill:#262626;" transform="translate(283.802257 271.341992)scale(0.1375 -0.1375)">
       <use xlink:href="#ArialMT-52"/>
       <use x="55.615234" xlink:href="#ArialMT-48"/>
      </g>
     </g>
    </g>
    <g id="xtick_4">
     <g id="line2d_4">
      <path clip-path="url(#pd2e2dae036)" d="M 344.117647 252 
L 344.117647 34.56 
" style="fill:none;stroke:#cccccc;stroke-linecap:round;"/>
     </g>
     <g id="text_4">
      <!-- 60 -->
      <defs>
       <path d="M 49.75 54.046875 
L 41.015625 53.375 
Q 39.84375 58.546875 37.703125 60.890625 
Q 34.125 64.65625 28.90625 64.65625 
Q 24.703125 64.65625 21.53125 62.3125 
Q 17.390625 59.28125 14.984375 53.46875 
Q 12.59375 47.65625 12.5 36.921875 
Q 15.671875 41.75 20.265625 44.09375 
Q 24.859375 46.4375 29.890625 46.4375 
Q 38.671875 46.4375 44.84375 39.96875 
Q 51.03125 33.5 51.03125 23.25 
Q 51.03125 16.5 48.125 10.71875 
Q 45.21875 4.9375 40.140625 1.859375 
Q 35.0625 -1.21875 28.609375 -1.21875 
Q 17.625 -1.21875 10.6875 6.859375 
Q 3.765625 14.9375 3.765625 33.5 
Q 3.765625 54.25 11.421875 63.671875 
Q 18.109375 71.875 29.4375 71.875 
Q 37.890625 71.875 43.28125 67.140625 
Q 48.6875 62.40625 49.75 54.046875 
z
M 13.875 23.1875 
Q 13.875 18.65625 15.796875 14.5 
Q 17.71875 10.359375 21.1875 8.171875 
Q 24.65625 6 28.46875 6 
Q 34.03125 6 38.03125 10.484375 
Q 42.046875 14.984375 42.046875 22.703125 
Q 42.046875 30.125 38.078125 34.390625 
Q 34.125 38.671875 28.125 38.671875 
Q 22.171875 38.671875 18.015625 34.390625 
Q 13.875 30.125 13.875 23.1875 
z
" id="ArialMT-54"/>
      </defs>
      <g style="fill:#262626;" transform="translate(336.471358 271.341992)scale(0.1375 -0.1375)">
       <use xlink:href="#ArialMT-54"/>
       <use x="55.615234" xlink:href="#ArialMT-48"/>
      </g>
     </g>
    </g>
    <g id="xtick_5">
     <g id="line2d_5">
      <path clip-path="url(#pd2e2dae036)" d="M 396.786748 252 
L 396.786748 34.56 
" style="fill:none;stroke:#cccccc;stroke-linecap:round;"/>
     </g>
     <g id="text_5">
      <!-- 80 -->
      <defs>
       <path d="M 17.671875 38.8125 
Q 12.203125 40.828125 9.5625 44.53125 
Q 6.9375 48.25 6.9375 53.421875 
Q 6.9375 61.234375 12.546875 66.546875 
Q 18.171875 71.875 27.484375 71.875 
Q 36.859375 71.875 42.578125 66.421875 
Q 48.296875 60.984375 48.296875 53.171875 
Q 48.296875 48.1875 45.671875 44.5 
Q 43.0625 40.828125 37.75 38.8125 
Q 44.34375 36.671875 47.78125 31.875 
Q 51.21875 27.09375 51.21875 20.453125 
Q 51.21875 11.28125 44.71875 5.03125 
Q 38.234375 -1.21875 27.640625 -1.21875 
Q 17.046875 -1.21875 10.546875 5.046875 
Q 4.046875 11.328125 4.046875 20.703125 
Q 4.046875 27.6875 7.59375 32.390625 
Q 11.140625 37.109375 17.671875 38.8125 
z
M 15.921875 53.71875 
Q 15.921875 48.640625 19.1875 45.40625 
Q 22.46875 42.1875 27.6875 42.1875 
Q 32.765625 42.1875 36.015625 45.375 
Q 39.265625 48.578125 39.265625 53.21875 
Q 39.265625 58.0625 35.90625 61.359375 
Q 32.5625 64.65625 27.59375 64.65625 
Q 22.5625 64.65625 19.234375 61.421875 
Q 15.921875 58.203125 15.921875 53.71875 
z
M 13.09375 20.65625 
Q 13.09375 16.890625 14.875 13.375 
Q 16.65625 9.859375 20.171875 7.921875 
Q 23.6875 6 27.734375 6 
Q 34.03125 6 38.125 10.046875 
Q 42.234375 14.109375 42.234375 20.359375 
Q 42.234375 26.703125 38.015625 30.859375 
Q 33.796875 35.015625 27.4375 35.015625 
Q 21.234375 35.015625 17.15625 30.90625 
Q 13.09375 26.8125 13.09375 20.65625 
z
" id="ArialMT-56"/>
      </defs>
      <g style="fill:#262626;" transform="translate(389.140459 271.341992)scale(0.1375 -0.1375)">
       <use xlink:href="#ArialMT-56"/>
       <use x="55.615234" xlink:href="#ArialMT-48"/>
      </g>
     </g>
    </g>
    <g id="xtick_6">
     <g id="line2d_6">
      <path clip-path="url(#pd2e2dae036)" d="M 449.455848 252 
L 449.455848 34.56 
" style="fill:none;stroke:#cccccc;stroke-linecap:round;"/>
     </g>
     <g id="text_6">
      <!-- 100 -->
      <defs>
       <path d="M 37.25 0 
L 28.46875 0 
L 28.46875 56 
Q 25.296875 52.984375 20.140625 49.953125 
Q 14.984375 46.921875 10.890625 45.40625 
L 10.890625 53.90625 
Q 18.265625 57.375 23.78125 62.296875 
Q 29.296875 67.234375 31.59375 71.875 
L 37.25 71.875 
z
" id="ArialMT-49"/>
      </defs>
      <g style="fill:#262626;" transform="translate(437.986415 271.341992)scale(0.1375 -0.1375)">
       <use xlink:href="#ArialMT-49"/>
       <use x="55.615234" xlink:href="#ArialMT-48"/>
       <use x="111.230469" xlink:href="#ArialMT-48"/>
      </g>
     </g>
    </g>
    <g id="xtick_7">
     <g id="line2d_7">
      <path clip-path="url(#pd2e2dae036)" d="M 502.124949 252 
L 502.124949 34.56 
" style="fill:none;stroke:#cccccc;stroke-linecap:round;"/>
     </g>
     <g id="text_7">
      <!-- 120 -->
      <g style="fill:#262626;" transform="translate(490.655515 271.341992)scale(0.1375 -0.1375)">
       <use xlink:href="#ArialMT-49"/>
       <use x="55.615234" xlink:href="#ArialMT-50"/>
       <use x="111.230469" xlink:href="#ArialMT-48"/>
      </g>
     </g>
    </g>
    <g id="text_8">
     <!-- Age -->
     <defs>
      <path d="M -0.140625 0 
L 27.34375 71.578125 
L 37.546875 71.578125 
L 66.84375 0 
L 56.0625 0 
L 47.703125 21.6875 
L 17.78125 21.6875 
L 9.90625 0 
z
M 20.515625 29.390625 
L 44.78125 29.390625 
L 37.3125 49.21875 
Q 33.890625 58.25 32.234375 64.0625 
Q 30.859375 57.171875 28.375 50.390625 
z
" id="ArialMT-65"/>
      <path d="M 4.984375 -4.296875 
L 13.53125 -5.5625 
Q 14.0625 -9.515625 16.5 -11.328125 
Q 19.78125 -13.765625 25.4375 -13.765625 
Q 31.546875 -13.765625 34.859375 -11.328125 
Q 38.1875 -8.890625 39.359375 -4.5 
Q 40.046875 -1.8125 39.984375 6.78125 
Q 34.234375 0 25.640625 0 
Q 14.9375 0 9.078125 7.71875 
Q 3.21875 15.4375 3.21875 26.21875 
Q 3.21875 33.640625 5.90625 39.90625 
Q 8.59375 46.1875 13.6875 49.609375 
Q 18.796875 53.03125 25.6875 53.03125 
Q 34.859375 53.03125 40.828125 45.609375 
L 40.828125 51.859375 
L 48.921875 51.859375 
L 48.921875 7.03125 
Q 48.921875 -5.078125 46.453125 -10.125 
Q 44 -15.1875 38.640625 -18.109375 
Q 33.296875 -21.046875 25.484375 -21.046875 
Q 16.21875 -21.046875 10.5 -16.875 
Q 4.78125 -12.703125 4.984375 -4.296875 
z
M 12.25 26.859375 
Q 12.25 16.65625 16.296875 11.96875 
Q 20.359375 7.28125 26.46875 7.28125 
Q 32.515625 7.28125 36.609375 11.9375 
Q 40.71875 16.609375 40.71875 26.5625 
Q 40.71875 36.078125 36.5 40.90625 
Q 32.28125 45.75 26.3125 45.75 
Q 20.453125 45.75 16.34375 40.984375 
Q 12.25 36.234375 12.25 26.859375 
z
" id="ArialMT-103"/>
      <path d="M 42.09375 16.703125 
L 51.171875 15.578125 
Q 49.03125 7.625 43.21875 3.21875 
Q 37.40625 -1.171875 28.375 -1.171875 
Q 17 -1.171875 10.328125 5.828125 
Q 3.65625 12.84375 3.65625 25.484375 
Q 3.65625 38.578125 10.390625 45.796875 
Q 17.140625 53.03125 27.875 53.03125 
Q 38.28125 53.03125 44.875 45.953125 
Q 51.46875 38.875 51.46875 26.03125 
Q 51.46875 25.25 51.421875 23.6875 
L 12.75 23.6875 
Q 13.234375 15.140625 17.578125 10.59375 
Q 21.921875 6.0625 28.421875 6.0625 
Q 33.25 6.0625 36.671875 8.59375 
Q 40.09375 11.140625 42.09375 16.703125 
z
M 13.234375 30.90625 
L 42.1875 30.90625 
Q 41.609375 37.453125 38.875 40.71875 
Q 34.671875 45.796875 27.984375 45.796875 
Q 21.921875 45.796875 17.796875 41.75 
Q 13.671875 37.703125 13.234375 30.90625 
z
" id="ArialMT-101"/>
     </defs>
     <g style="fill:#262626;" transform="translate(330.773506 288.811523)scale(0.15 -0.15)">
      <use xlink:href="#ArialMT-65"/>
      <use x="66.699219" xlink:href="#ArialMT-103"/>
      <use x="122.314453" xlink:href="#ArialMT-101"/>
     </g>
    </g>
   </g>
   <g id="matplotlib.axis_2">
    <g id="ytick_1">
     <g id="line2d_8">
      <path clip-path="url(#pd2e2dae036)" d="M 180 252 
L 508.235294 252 
" style="fill:none;stroke:#cccccc;stroke-linecap:round;"/>
     </g>
     <g id="text_9">
      <!-- 0.000 -->
      <defs>
       <path d="M 9.078125 0 
L 9.078125 10.015625 
L 19.09375 10.015625 
L 19.09375 0 
z
" id="ArialMT-46"/>
      </defs>
      <g style="fill:#262626;" transform="translate(136.094922 256.920996)scale(0.1375 -0.1375)">
       <use xlink:href="#ArialMT-48"/>
       <use x="55.615234" xlink:href="#ArialMT-46"/>
       <use x="83.398438" xlink:href="#ArialMT-48"/>
       <use x="139.013672" xlink:href="#ArialMT-48"/>
       <use x="194.628906" xlink:href="#ArialMT-48"/>
      </g>
     </g>
    </g>
    <g id="ytick_2">
     <g id="line2d_9">
      <path clip-path="url(#pd2e2dae036)" d="M 180 216.161493 
L 508.235294 216.161493 
" style="fill:none;stroke:#cccccc;stroke-linecap:round;"/>
     </g>
     <g id="text_10">
      <!-- 0.005 -->
      <defs>
       <path d="M 4.15625 18.75 
L 13.375 19.53125 
Q 14.40625 12.796875 18.140625 9.390625 
Q 21.875 6 27.15625 6 
Q 33.5 6 37.890625 10.78125 
Q 42.28125 15.578125 42.28125 23.484375 
Q 42.28125 31 38.0625 35.34375 
Q 33.84375 39.703125 27 39.703125 
Q 22.75 39.703125 19.328125 37.765625 
Q 15.921875 35.84375 13.96875 32.765625 
L 5.71875 33.84375 
L 12.640625 70.609375 
L 48.25 70.609375 
L 48.25 62.203125 
L 19.671875 62.203125 
L 15.828125 42.96875 
Q 22.265625 47.46875 29.34375 47.46875 
Q 38.71875 47.46875 45.15625 40.96875 
Q 51.609375 34.46875 51.609375 24.265625 
Q 51.609375 14.546875 45.953125 7.46875 
Q 39.0625 -1.21875 27.15625 -1.21875 
Q 17.390625 -1.21875 11.203125 4.25 
Q 5.03125 9.71875 4.15625 18.75 
z
" id="ArialMT-53"/>
      </defs>
      <g style="fill:#262626;" transform="translate(136.094922 221.082489)scale(0.1375 -0.1375)">
       <use xlink:href="#ArialMT-48"/>
       <use x="55.615234" xlink:href="#ArialMT-46"/>
       <use x="83.398438" xlink:href="#ArialMT-48"/>
       <use x="139.013672" xlink:href="#ArialMT-48"/>
       <use x="194.628906" xlink:href="#ArialMT-53"/>
      </g>
     </g>
    </g>
    <g id="ytick_3">
     <g id="line2d_10">
      <path clip-path="url(#pd2e2dae036)" d="M 180 180.322985 
L 508.235294 180.322985 
" style="fill:none;stroke:#cccccc;stroke-linecap:round;"/>
     </g>
     <g id="text_11">
      <!-- 0.010 -->
      <g style="fill:#262626;" transform="translate(136.094922 185.243982)scale(0.1375 -0.1375)">
       <use xlink:href="#ArialMT-48"/>
       <use x="55.615234" xlink:href="#ArialMT-46"/>
       <use x="83.398438" xlink:href="#ArialMT-48"/>
       <use x="139.013672" xlink:href="#ArialMT-49"/>
       <use x="194.628906" xlink:href="#ArialMT-48"/>
      </g>
     </g>
    </g>
    <g id="ytick_4">
     <g id="line2d_11">
      <path clip-path="url(#pd2e2dae036)" d="M 180 144.484478 
L 508.235294 144.484478 
" style="fill:none;stroke:#cccccc;stroke-linecap:round;"/>
     </g>
     <g id="text_12">
      <!-- 0.015 -->
      <g style="fill:#262626;" transform="translate(136.094922 149.405474)scale(0.1375 -0.1375)">
       <use xlink:href="#ArialMT-48"/>
       <use x="55.615234" xlink:href="#ArialMT-46"/>
       <use x="83.398438" xlink:href="#ArialMT-48"/>
       <use x="139.013672" xlink:href="#ArialMT-49"/>
       <use x="194.628906" xlink:href="#ArialMT-53"/>
      </g>
     </g>
    </g>
    <g id="ytick_5">
     <g id="line2d_12">
      <path clip-path="url(#pd2e2dae036)" d="M 180 108.645971 
L 508.235294 108.645971 
" style="fill:none;stroke:#cccccc;stroke-linecap:round;"/>
     </g>
     <g id="text_13">
      <!-- 0.020 -->
      <g style="fill:#262626;" transform="translate(136.094922 113.566967)scale(0.1375 -0.1375)">
       <use xlink:href="#ArialMT-48"/>
       <use x="55.615234" xlink:href="#ArialMT-46"/>
       <use x="83.398438" xlink:href="#ArialMT-48"/>
       <use x="139.013672" xlink:href="#ArialMT-50"/>
       <use x="194.628906" xlink:href="#ArialMT-48"/>
      </g>
     </g>
    </g>
    <g id="ytick_6">
     <g id="line2d_13">
      <path clip-path="url(#pd2e2dae036)" d="M 180 72.807464 
L 508.235294 72.807464 
" style="fill:none;stroke:#cccccc;stroke-linecap:round;"/>
     </g>
     <g id="text_14">
      <!-- 0.025 -->
      <g style="fill:#262626;" transform="translate(136.094922 77.72846)scale(0.1375 -0.1375)">
       <use xlink:href="#ArialMT-48"/>
       <use x="55.615234" xlink:href="#ArialMT-46"/>
       <use x="83.398438" xlink:href="#ArialMT-48"/>
       <use x="139.013672" xlink:href="#ArialMT-50"/>
       <use x="194.628906" xlink:href="#ArialMT-53"/>
      </g>
     </g>
    </g>
    <g id="ytick_7">
     <g id="line2d_14">
      <path clip-path="url(#pd2e2dae036)" d="M 180 36.968956 
L 508.235294 36.968956 
" style="fill:none;stroke:#cccccc;stroke-linecap:round;"/>
     </g>
     <g id="text_15">
      <!-- 0.030 -->
      <defs>
       <path d="M 4.203125 18.890625 
L 12.984375 20.0625 
Q 14.5 12.59375 18.140625 9.296875 
Q 21.78125 6 27 6 
Q 33.203125 6 37.46875 10.296875 
Q 41.75 14.59375 41.75 20.953125 
Q 41.75 27 37.796875 30.921875 
Q 33.84375 34.859375 27.734375 34.859375 
Q 25.25 34.859375 21.53125 33.890625 
L 22.515625 41.609375 
Q 23.390625 41.5 23.921875 41.5 
Q 29.546875 41.5 34.03125 44.421875 
Q 38.53125 47.359375 38.53125 53.46875 
Q 38.53125 58.296875 35.25 61.46875 
Q 31.984375 64.65625 26.8125 64.65625 
Q 21.6875 64.65625 18.265625 61.421875 
Q 14.84375 58.203125 13.875 51.765625 
L 5.078125 53.328125 
Q 6.6875 62.15625 12.390625 67.015625 
Q 18.109375 71.875 26.609375 71.875 
Q 32.46875 71.875 37.390625 69.359375 
Q 42.328125 66.84375 44.9375 62.5 
Q 47.5625 58.15625 47.5625 53.265625 
Q 47.5625 48.640625 45.0625 44.828125 
Q 42.578125 41.015625 37.703125 38.765625 
Q 44.046875 37.3125 47.5625 32.6875 
Q 51.078125 28.078125 51.078125 21.140625 
Q 51.078125 11.765625 44.234375 5.25 
Q 37.40625 -1.265625 26.953125 -1.265625 
Q 17.53125 -1.265625 11.296875 4.34375 
Q 5.078125 9.96875 4.203125 18.890625 
z
" id="ArialMT-51"/>
      </defs>
      <g style="fill:#262626;" transform="translate(136.094922 41.889952)scale(0.1375 -0.1375)">
       <use xlink:href="#ArialMT-48"/>
       <use x="55.615234" xlink:href="#ArialMT-46"/>
       <use x="83.398438" xlink:href="#ArialMT-48"/>
       <use x="139.013672" xlink:href="#ArialMT-51"/>
       <use x="194.628906" xlink:href="#ArialMT-48"/>
      </g>
     </g>
    </g>
    <g id="text_16">
     <!-- Distribution -->
     <defs>
      <path d="M 7.71875 0 
L 7.71875 71.578125 
L 32.375 71.578125 
Q 40.71875 71.578125 45.125 70.5625 
Q 51.265625 69.140625 55.609375 65.4375 
Q 61.28125 60.640625 64.078125 53.1875 
Q 66.890625 45.75 66.890625 36.1875 
Q 66.890625 28.03125 64.984375 21.734375 
Q 63.09375 15.4375 60.109375 11.296875 
Q 57.125 7.171875 53.578125 4.796875 
Q 50.046875 2.4375 45.046875 1.21875 
Q 40.046875 0 33.546875 0 
z
M 17.1875 8.453125 
L 32.46875 8.453125 
Q 39.546875 8.453125 43.578125 9.765625 
Q 47.609375 11.078125 50 13.484375 
Q 53.375 16.84375 55.25 22.53125 
Q 57.125 28.21875 57.125 36.328125 
Q 57.125 47.5625 53.4375 53.59375 
Q 49.75 59.625 44.484375 61.671875 
Q 40.671875 63.140625 32.234375 63.140625 
L 17.1875 63.140625 
z
" id="ArialMT-68"/>
      <path d="M 6.640625 61.46875 
L 6.640625 71.578125 
L 15.4375 71.578125 
L 15.4375 61.46875 
z
M 6.640625 0 
L 6.640625 51.859375 
L 15.4375 51.859375 
L 15.4375 0 
z
" id="ArialMT-105"/>
      <path d="M 3.078125 15.484375 
L 11.765625 16.84375 
Q 12.5 11.625 15.84375 8.84375 
Q 19.1875 6.0625 25.203125 6.0625 
Q 31.25 6.0625 34.171875 8.515625 
Q 37.109375 10.984375 37.109375 14.3125 
Q 37.109375 17.28125 34.515625 19 
Q 32.71875 20.171875 25.53125 21.96875 
Q 15.875 24.421875 12.140625 26.203125 
Q 8.40625 27.984375 6.46875 31.125 
Q 4.546875 34.28125 4.546875 38.09375 
Q 4.546875 41.546875 6.125 44.5 
Q 7.71875 47.46875 10.453125 49.421875 
Q 12.5 50.921875 16.03125 51.96875 
Q 19.578125 53.03125 23.640625 53.03125 
Q 29.734375 53.03125 34.34375 51.265625 
Q 38.96875 49.515625 41.15625 46.5 
Q 43.359375 43.5 44.1875 38.484375 
L 35.59375 37.3125 
Q 35.015625 41.3125 32.203125 43.546875 
Q 29.390625 45.796875 24.265625 45.796875 
Q 18.21875 45.796875 15.625 43.796875 
Q 13.03125 41.796875 13.03125 39.109375 
Q 13.03125 37.40625 14.109375 36.03125 
Q 15.1875 34.625 17.484375 33.6875 
Q 18.796875 33.203125 25.25 31.453125 
Q 34.578125 28.953125 38.25 27.359375 
Q 41.9375 25.78125 44.03125 22.75 
Q 46.140625 19.734375 46.140625 15.234375 
Q 46.140625 10.84375 43.578125 6.953125 
Q 41.015625 3.078125 36.171875 0.953125 
Q 31.34375 -1.171875 25.25 -1.171875 
Q 15.140625 -1.171875 9.84375 3.03125 
Q 4.546875 7.234375 3.078125 15.484375 
z
" id="ArialMT-115"/>
      <path d="M 25.78125 7.859375 
L 27.046875 0.09375 
Q 23.34375 -0.6875 20.40625 -0.6875 
Q 15.625 -0.6875 12.984375 0.828125 
Q 10.359375 2.34375 9.28125 4.8125 
Q 8.203125 7.28125 8.203125 15.1875 
L 8.203125 45.015625 
L 1.765625 45.015625 
L 1.765625 51.859375 
L 8.203125 51.859375 
L 8.203125 64.703125 
L 16.9375 69.96875 
L 16.9375 51.859375 
L 25.78125 51.859375 
L 25.78125 45.015625 
L 16.9375 45.015625 
L 16.9375 14.703125 
Q 16.9375 10.9375 17.40625 9.859375 
Q 17.875 8.796875 18.921875 8.15625 
Q 19.96875 7.515625 21.921875 7.515625 
Q 23.390625 7.515625 25.78125 7.859375 
z
" id="ArialMT-116"/>
      <path d="M 6.5 0 
L 6.5 51.859375 
L 14.40625 51.859375 
L 14.40625 44 
Q 17.4375 49.515625 20 51.265625 
Q 22.5625 53.03125 25.640625 53.03125 
Q 30.078125 53.03125 34.671875 50.203125 
L 31.640625 42.046875 
Q 28.421875 43.953125 25.203125 43.953125 
Q 22.3125 43.953125 20.015625 42.21875 
Q 17.71875 40.484375 16.75 37.40625 
Q 15.28125 32.71875 15.28125 27.15625 
L 15.28125 0 
z
" id="ArialMT-114"/>
      <path d="M 14.703125 0 
L 6.546875 0 
L 6.546875 71.578125 
L 15.328125 71.578125 
L 15.328125 46.046875 
Q 20.90625 53.03125 29.546875 53.03125 
Q 34.328125 53.03125 38.59375 51.09375 
Q 42.875 49.171875 45.625 45.671875 
Q 48.390625 42.1875 49.953125 37.25 
Q 51.515625 32.328125 51.515625 26.703125 
Q 51.515625 13.375 44.921875 6.09375 
Q 38.328125 -1.171875 29.109375 -1.171875 
Q 19.921875 -1.171875 14.703125 6.5 
z
M 14.59375 26.3125 
Q 14.59375 17 17.140625 12.84375 
Q 21.296875 6.0625 28.375 6.0625 
Q 34.125 6.0625 38.328125 11.0625 
Q 42.53125 16.0625 42.53125 25.984375 
Q 42.53125 36.140625 38.5 40.96875 
Q 34.46875 45.796875 28.765625 45.796875 
Q 23 45.796875 18.796875 40.796875 
Q 14.59375 35.796875 14.59375 26.3125 
z
" id="ArialMT-98"/>
      <path d="M 40.578125 0 
L 40.578125 7.625 
Q 34.515625 -1.171875 24.125 -1.171875 
Q 19.53125 -1.171875 15.546875 0.578125 
Q 11.578125 2.34375 9.640625 5 
Q 7.71875 7.671875 6.9375 11.53125 
Q 6.390625 14.109375 6.390625 19.734375 
L 6.390625 51.859375 
L 15.1875 51.859375 
L 15.1875 23.09375 
Q 15.1875 16.21875 15.71875 13.8125 
Q 16.546875 10.359375 19.234375 8.375 
Q 21.921875 6.390625 25.875 6.390625 
Q 29.828125 6.390625 33.296875 8.421875 
Q 36.765625 10.453125 38.203125 13.9375 
Q 39.65625 17.4375 39.65625 24.078125 
L 39.65625 51.859375 
L 48.4375 51.859375 
L 48.4375 0 
z
" id="ArialMT-117"/>
      <path d="M 3.328125 25.921875 
Q 3.328125 40.328125 11.328125 47.265625 
Q 18.015625 53.03125 27.640625 53.03125 
Q 38.328125 53.03125 45.109375 46.015625 
Q 51.90625 39.015625 51.90625 26.65625 
Q 51.90625 16.65625 48.90625 10.90625 
Q 45.90625 5.171875 40.15625 2 
Q 34.421875 -1.171875 27.640625 -1.171875 
Q 16.75 -1.171875 10.03125 5.8125 
Q 3.328125 12.796875 3.328125 25.921875 
z
M 12.359375 25.921875 
Q 12.359375 15.96875 16.703125 11.015625 
Q 21.046875 6.0625 27.640625 6.0625 
Q 34.1875 6.0625 38.53125 11.03125 
Q 42.875 16.015625 42.875 26.21875 
Q 42.875 35.84375 38.5 40.796875 
Q 34.125 45.75 27.640625 45.75 
Q 21.046875 45.75 16.703125 40.8125 
Q 12.359375 35.890625 12.359375 25.921875 
z
" id="ArialMT-111"/>
      <path d="M 6.59375 0 
L 6.59375 51.859375 
L 14.5 51.859375 
L 14.5 44.484375 
Q 20.21875 53.03125 31 53.03125 
Q 35.6875 53.03125 39.625 51.34375 
Q 43.5625 49.65625 45.515625 46.921875 
Q 47.46875 44.1875 48.25 40.4375 
Q 48.734375 37.984375 48.734375 31.890625 
L 48.734375 0 
L 39.9375 0 
L 39.9375 31.546875 
Q 39.9375 36.921875 38.90625 39.578125 
Q 37.890625 42.234375 35.28125 43.8125 
Q 32.671875 45.40625 29.15625 45.40625 
Q 23.53125 45.40625 19.453125 41.84375 
Q 15.375 38.28125 15.375 28.328125 
L 15.375 0 
z
" id="ArialMT-110"/>
     </defs>
     <g style="fill:#262626;" transform="translate(129.113672 180.792891)rotate(-90)scale(0.15 -0.15)">
      <use xlink:href="#ArialMT-68"/>
      <use x="72.216797" xlink:href="#ArialMT-105"/>
      <use x="94.433594" xlink:href="#ArialMT-115"/>
      <use x="144.433594" xlink:href="#ArialMT-116"/>
      <use x="172.216797" xlink:href="#ArialMT-114"/>
      <use x="205.517578" xlink:href="#ArialMT-105"/>
      <use x="227.734375" xlink:href="#ArialMT-98"/>
      <use x="283.349609" xlink:href="#ArialMT-117"/>
      <use x="338.964844" xlink:href="#ArialMT-116"/>
      <use x="366.748047" xlink:href="#ArialMT-105"/>
      <use x="388.964844" xlink:href="#ArialMT-111"/>
      <use x="444.580078" xlink:href="#ArialMT-110"/>
     </g>
    </g>
   </g>
   <g id="patch_3">
    <path clip-path="url(#pd2e2dae036)" d="M 233.512536 252 
L 255.370213 252 
L 255.370213 206.911875 
L 233.512536 206.911875 
z
" style="fill:#4c72b0;opacity:0.4;stroke:#ffffff;stroke-linejoin:miter;"/>
   </g>
   <g id="patch_4">
    <path clip-path="url(#pd2e2dae036)" d="M 255.370213 252 
L 277.227889 252 
L 277.227889 206.207373 
L 255.370213 206.207373 
z
" style="fill:#4c72b0;opacity:0.4;stroke:#ffffff;stroke-linejoin:miter;"/>
   </g>
   <g id="patch_5">
    <path clip-path="url(#pd2e2dae036)" d="M 277.227889 252 
L 299.085566 252 
L 299.085566 183.804211 
L 277.227889 183.804211 
z
" style="fill:#4c72b0;opacity:0.4;stroke:#ffffff;stroke-linejoin:miter;"/>
   </g>
   <g id="patch_6">
    <path clip-path="url(#pd2e2dae036)" d="M 299.085566 252 
L 320.943243 252 
L 320.943243 122.371641 
L 299.085566 122.371641 
z
" style="fill:#4c72b0;opacity:0.4;stroke:#ffffff;stroke-linejoin:miter;"/>
   </g>
   <g id="patch_7">
    <path clip-path="url(#pd2e2dae036)" d="M 320.943243 252 
L 342.80092 252 
L 342.80092 71.788401 
L 320.943243 71.788401 
z
" style="fill:#4c72b0;opacity:0.4;stroke:#ffffff;stroke-linejoin:miter;"/>
   </g>
   <g id="patch_8">
    <path clip-path="url(#pd2e2dae036)" d="M 342.80092 252 
L 364.658596 252 
L 364.658596 95.177866 
L 342.80092 95.177866 
z
" style="fill:#4c72b0;opacity:0.4;stroke:#ffffff;stroke-linejoin:miter;"/>
   </g>
   <g id="patch_9">
    <path clip-path="url(#pd2e2dae036)" d="M 364.658596 252 
L 386.516273 252 
L 386.516273 127.725856 
L 364.658596 127.725856 
z
" style="fill:#4c72b0;opacity:0.4;stroke:#ffffff;stroke-linejoin:miter;"/>
   </g>
   <g id="patch_10">
    <path clip-path="url(#pd2e2dae036)" d="M 386.516273 252 
L 408.37395 252 
L 408.37395 187.185821 
L 386.516273 187.185821 
z
" style="fill:#4c72b0;opacity:0.4;stroke:#ffffff;stroke-linejoin:miter;"/>
   </g>
   <g id="patch_11">
    <path clip-path="url(#pd2e2dae036)" d="M 408.37395 252 
L 430.231626 252 
L 430.231626 215.084098 
L 408.37395 215.084098 
z
" style="fill:#4c72b0;opacity:0.4;stroke:#ffffff;stroke-linejoin:miter;"/>
   </g>
   <g id="patch_12">
    <path clip-path="url(#pd2e2dae036)" d="M 430.231626 252 
L 452.089303 252 
L 452.089303 240.164367 
L 430.231626 240.164367 
z
" style="fill:#4c72b0;opacity:0.4;stroke:#ffffff;stroke-linejoin:miter;"/>
   </g>
   <g id="line2d_15">
    <path clip-path="url(#pd2e2dae036)" d="M 210.199892 251.947682 
L 212.878701 251.847401 
L 215.557509 251.599581 
L 218.236318 251.052824 
L 220.915127 249.975325 
L 223.593935 248.077659 
L 226.272744 245.089612 
L 228.951553 240.881957 
L 231.630361 235.58288 
L 234.30917 229.615766 
L 236.987979 223.61065 
L 239.666787 218.212014 
L 242.345596 213.874202 
L 245.024404 210.748404 
L 247.703213 208.708389 
L 250.382022 207.477102 
L 253.06083 206.764644 
L 255.739639 206.341622 
L 258.418448 206.031356 
L 261.097256 205.662159 
L 263.776065 205.038513 
L 266.454873 203.962023 
L 269.133682 202.286472 
L 271.812491 199.964923 
L 274.491299 197.060153 
L 277.170108 193.723325 
L 279.848917 190.161639 
L 282.527725 186.601837 
L 285.206534 183.23976 
L 287.885343 180.174458 
L 290.564151 177.349361 
L 293.24296 174.530848 
L 295.921768 171.334892 
L 298.600577 167.288627 
L 301.279386 161.912806 
L 303.958194 154.827601 
L 306.637003 145.883879 
L 309.315812 135.286227 
L 311.99462 123.634403 
L 314.673429 111.82151 
L 317.352238 100.80156 
L 320.031046 91.321348 
L 322.709855 83.737918 
L 325.388663 78.001724 
L 328.067472 73.808107 
L 330.746281 70.837064 
L 333.425089 68.944893 
L 336.103898 68.189211 
L 338.782707 68.682381 
L 341.461515 70.405982 
L 344.140324 73.150603 
L 346.819132 76.624468 
L 349.497941 80.614806 
L 352.17675 85.050801 
L 354.855558 89.934658 
L 357.534367 95.24031 
L 360.213176 100.887055 
L 362.891984 106.791325 
L 365.570793 112.91634 
L 368.249602 119.262455 
L 370.92841 125.821479 
L 373.607219 132.55217 
L 376.286027 139.39143 
L 378.964836 146.263165 
L 381.643645 153.054893 
L 384.322453 159.588691 
L 387.001262 165.642963 
L 389.680071 171.041266 
L 392.358879 175.754219 
L 395.037688 179.935279 
L 397.716497 183.855624 
L 400.395305 187.773863 
L 403.074114 191.81594 
L 405.752922 195.930349 
L 408.431731 199.93987 
L 411.11054 203.658792 
L 413.789348 207.008044 
L 416.468157 210.062438 
L 419.146966 213.008474 
L 421.825774 216.048927 
L 424.504583 219.316997 
L 427.183392 222.840723 
L 429.8622 226.554246 
L 432.541009 230.327295 
L 435.219817 233.992712 
L 437.898626 237.374094 
L 440.577435 240.323628 
L 443.256243 242.765339 
L 445.935052 244.719554 
L 448.613861 246.28555 
L 451.292669 247.586364 
L 453.971478 248.709539 
L 456.650286 249.681003 
L 459.329095 250.482337 
L 462.007904 251.089843 
L 464.686712 251.504366 
L 467.365521 251.756396 
L 470.04433 251.892362 
L 472.723138 251.957356 
L 475.401947 251.984879 
" style="fill:none;stroke:#4c72b0;stroke-linecap:round;stroke-width:1.5;"/>
   </g>
   <g id="patch_13">
    <path d="M 180 252 
L 180 34.56 
" style="fill:none;stroke:#cccccc;stroke-linecap:square;stroke-linejoin:miter;stroke-width:1.25;"/>
   </g>
   <g id="patch_14">
    <path d="M 508.235294 252 
L 508.235294 34.56 
" style="fill:none;stroke:#cccccc;stroke-linecap:square;stroke-linejoin:miter;stroke-width:1.25;"/>
   </g>
   <g id="patch_15">
    <path d="M 180 252 
L 508.235294 252 
" style="fill:none;stroke:#cccccc;stroke-linecap:square;stroke-linejoin:miter;stroke-width:1.25;"/>
   </g>
   <g id="patch_16">
    <path d="M 180 34.56 
L 508.235294 34.56 
" style="fill:none;stroke:#cccccc;stroke-linecap:square;stroke-linejoin:miter;stroke-width:1.25;"/>
   </g>
   <g id="text_17">
    <!-- Female's Age Distribution -->
    <defs>
     <path d="M 8.203125 0 
L 8.203125 71.578125 
L 56.5 71.578125 
L 56.5 63.140625 
L 17.671875 63.140625 
L 17.671875 40.96875 
L 51.265625 40.96875 
L 51.265625 32.515625 
L 17.671875 32.515625 
L 17.671875 0 
z
" id="ArialMT-70"/>
     <path d="M 6.59375 0 
L 6.59375 51.859375 
L 14.453125 51.859375 
L 14.453125 44.578125 
Q 16.890625 48.390625 20.9375 50.703125 
Q 25 53.03125 30.171875 53.03125 
Q 35.9375 53.03125 39.625 50.640625 
Q 43.3125 48.25 44.828125 43.953125 
Q 50.984375 53.03125 60.84375 53.03125 
Q 68.5625 53.03125 72.703125 48.75 
Q 76.859375 44.484375 76.859375 35.59375 
L 76.859375 0 
L 68.109375 0 
L 68.109375 32.671875 
Q 68.109375 37.9375 67.25 40.25 
Q 66.40625 42.578125 64.15625 43.984375 
Q 61.921875 45.40625 58.890625 45.40625 
Q 53.421875 45.40625 49.796875 41.765625 
Q 46.1875 38.140625 46.1875 30.125 
L 46.1875 0 
L 37.40625 0 
L 37.40625 33.6875 
Q 37.40625 39.546875 35.25 42.46875 
Q 33.109375 45.40625 28.21875 45.40625 
Q 24.515625 45.40625 21.359375 43.453125 
Q 18.21875 41.5 16.796875 37.734375 
Q 15.375 33.984375 15.375 26.90625 
L 15.375 0 
z
" id="ArialMT-109"/>
     <path d="M 40.4375 6.390625 
Q 35.546875 2.25 31.03125 0.53125 
Q 26.515625 -1.171875 21.34375 -1.171875 
Q 12.796875 -1.171875 8.203125 3 
Q 3.609375 7.171875 3.609375 13.671875 
Q 3.609375 17.484375 5.34375 20.625 
Q 7.078125 23.78125 9.890625 25.6875 
Q 12.703125 27.59375 16.21875 28.5625 
Q 18.796875 29.25 24.03125 29.890625 
Q 34.671875 31.15625 39.703125 32.90625 
Q 39.75 34.71875 39.75 35.203125 
Q 39.75 40.578125 37.25 42.78125 
Q 33.890625 45.75 27.25 45.75 
Q 21.046875 45.75 18.09375 43.578125 
Q 15.140625 41.40625 13.71875 35.890625 
L 5.125 37.0625 
Q 6.296875 42.578125 8.984375 45.96875 
Q 11.671875 49.359375 16.75 51.1875 
Q 21.828125 53.03125 28.515625 53.03125 
Q 35.15625 53.03125 39.296875 51.46875 
Q 43.453125 49.90625 45.40625 47.53125 
Q 47.359375 45.171875 48.140625 41.546875 
Q 48.578125 39.3125 48.578125 33.453125 
L 48.578125 21.734375 
Q 48.578125 9.46875 49.140625 6.21875 
Q 49.703125 2.984375 51.375 0 
L 42.1875 0 
Q 40.828125 2.734375 40.4375 6.390625 
z
M 39.703125 26.03125 
Q 34.90625 24.078125 25.34375 22.703125 
Q 19.921875 21.921875 17.671875 20.9375 
Q 15.4375 19.96875 14.203125 18.09375 
Q 12.984375 16.21875 12.984375 13.921875 
Q 12.984375 10.40625 15.640625 8.0625 
Q 18.3125 5.71875 23.4375 5.71875 
Q 28.515625 5.71875 32.46875 7.9375 
Q 36.421875 10.15625 38.28125 14.015625 
Q 39.703125 17 39.703125 22.796875 
z
" id="ArialMT-97"/>
     <path d="M 6.390625 0 
L 6.390625 71.578125 
L 15.1875 71.578125 
L 15.1875 0 
z
" id="ArialMT-108"/>
     <path d="M 6.640625 46.234375 
L 4.390625 59.625 
L 4.390625 71.578125 
L 14.40625 71.578125 
L 14.40625 59.625 
L 12.0625 46.234375 
z
" id="ArialMT-39"/>
     <path id="ArialMT-32"/>
    </defs>
    <g style="fill:#262626;" transform="translate(258.910616 28.56)scale(0.15 -0.15)">
     <use xlink:href="#ArialMT-70"/>
     <use x="61.083984" xlink:href="#ArialMT-101"/>
     <use x="116.699219" xlink:href="#ArialMT-109"/>
     <use x="200" xlink:href="#ArialMT-97"/>
     <use x="255.615234" xlink:href="#ArialMT-108"/>
     <use x="277.832031" xlink:href="#ArialMT-101"/>
     <use x="333.447266" xlink:href="#ArialMT-39"/>
     <use x="352.539062" xlink:href="#ArialMT-115"/>
     <use x="402.539062" xlink:href="#ArialMT-32"/>
     <use x="430.244141" xlink:href="#ArialMT-65"/>
     <use x="496.943359" xlink:href="#ArialMT-103"/>
     <use x="552.558594" xlink:href="#ArialMT-101"/>
     <use x="608.173828" xlink:href="#ArialMT-32"/>
     <use x="635.957031" xlink:href="#ArialMT-68"/>
     <use x="708.173828" xlink:href="#ArialMT-105"/>
     <use x="730.390625" xlink:href="#ArialMT-115"/>
     <use x="780.390625" xlink:href="#ArialMT-116"/>
     <use x="808.173828" xlink:href="#ArialMT-114"/>
     <use x="841.474609" xlink:href="#ArialMT-105"/>
     <use x="863.691406" xlink:href="#ArialMT-98"/>
     <use x="919.306641" xlink:href="#ArialMT-117"/>
     <use x="974.921875" xlink:href="#ArialMT-116"/>
     <use x="1002.705078" xlink:href="#ArialMT-105"/>
     <use x="1024.921875" xlink:href="#ArialMT-111"/>
     <use x="1080.537109" xlink:href="#ArialMT-110"/>
    </g>
   </g>
  </g>
  <g id="axes_2">
   <g id="patch_17">
    <path d="M 573.882353 252 
L 902.117647 252 
L 902.117647 34.56 
L 573.882353 34.56 
z
" style="fill:#ffffff;"/>
   </g>
   <g id="matplotlib.axis_3">
    <g id="xtick_8">
     <g id="line2d_16">
      <path clip-path="url(#p8906212145)" d="M 579.992698 252 
L 579.992698 34.56 
" style="fill:none;stroke:#cccccc;stroke-linecap:round;"/>
     </g>
     <g id="text_18">
      <!-- 0 -->
      <g style="fill:#262626;" transform="translate(576.169554 271.341992)scale(0.1375 -0.1375)">
       <use xlink:href="#ArialMT-48"/>
      </g>
     </g>
    </g>
    <g id="xtick_9">
     <g id="line2d_17">
      <path clip-path="url(#p8906212145)" d="M 632.661799 252 
L 632.661799 34.56 
" style="fill:none;stroke:#cccccc;stroke-linecap:round;"/>
     </g>
     <g id="text_19">
      <!-- 20 -->
      <g style="fill:#262626;" transform="translate(625.01551 271.341992)scale(0.1375 -0.1375)">
       <use xlink:href="#ArialMT-50"/>
       <use x="55.615234" xlink:href="#ArialMT-48"/>
      </g>
     </g>
    </g>
    <g id="xtick_10">
     <g id="line2d_18">
      <path clip-path="url(#p8906212145)" d="M 685.330899 252 
L 685.330899 34.56 
" style="fill:none;stroke:#cccccc;stroke-linecap:round;"/>
     </g>
     <g id="text_20">
      <!-- 40 -->
      <g style="fill:#262626;" transform="translate(677.68461 271.341992)scale(0.1375 -0.1375)">
       <use xlink:href="#ArialMT-52"/>
       <use x="55.615234" xlink:href="#ArialMT-48"/>
      </g>
     </g>
    </g>
    <g id="xtick_11">
     <g id="line2d_19">
      <path clip-path="url(#p8906212145)" d="M 738 252 
L 738 34.56 
" style="fill:none;stroke:#cccccc;stroke-linecap:round;"/>
     </g>
     <g id="text_21">
      <!-- 60 -->
      <g style="fill:#262626;" transform="translate(730.353711 271.341992)scale(0.1375 -0.1375)">
       <use xlink:href="#ArialMT-54"/>
       <use x="55.615234" xlink:href="#ArialMT-48"/>
      </g>
     </g>
    </g>
    <g id="xtick_12">
     <g id="line2d_20">
      <path clip-path="url(#p8906212145)" d="M 790.669101 252 
L 790.669101 34.56 
" style="fill:none;stroke:#cccccc;stroke-linecap:round;"/>
     </g>
     <g id="text_22">
      <!-- 80 -->
      <g style="fill:#262626;" transform="translate(783.022812 271.341992)scale(0.1375 -0.1375)">
       <use xlink:href="#ArialMT-56"/>
       <use x="55.615234" xlink:href="#ArialMT-48"/>
      </g>
     </g>
    </g>
    <g id="xtick_13">
     <g id="line2d_21">
      <path clip-path="url(#p8906212145)" d="M 843.338201 252 
L 843.338201 34.56 
" style="fill:none;stroke:#cccccc;stroke-linecap:round;"/>
     </g>
     <g id="text_23">
      <!-- 100 -->
      <g style="fill:#262626;" transform="translate(831.868768 271.341992)scale(0.1375 -0.1375)">
       <use xlink:href="#ArialMT-49"/>
       <use x="55.615234" xlink:href="#ArialMT-48"/>
       <use x="111.230469" xlink:href="#ArialMT-48"/>
      </g>
     </g>
    </g>
    <g id="xtick_14">
     <g id="line2d_22">
      <path clip-path="url(#p8906212145)" d="M 896.007302 252 
L 896.007302 34.56 
" style="fill:none;stroke:#cccccc;stroke-linecap:round;"/>
     </g>
     <g id="text_24">
      <!-- 120 -->
      <g style="fill:#262626;" transform="translate(884.537868 271.341992)scale(0.1375 -0.1375)">
       <use xlink:href="#ArialMT-49"/>
       <use x="55.615234" xlink:href="#ArialMT-50"/>
       <use x="111.230469" xlink:href="#ArialMT-48"/>
      </g>
     </g>
    </g>
    <g id="text_25">
     <!-- Age -->
     <g style="fill:#262626;" transform="translate(724.655859 288.811523)scale(0.15 -0.15)">
      <use xlink:href="#ArialMT-65"/>
      <use x="66.699219" xlink:href="#ArialMT-103"/>
      <use x="122.314453" xlink:href="#ArialMT-101"/>
     </g>
    </g>
   </g>
   <g id="matplotlib.axis_4">
    <g id="ytick_8">
     <g id="line2d_23">
      <path clip-path="url(#p8906212145)" d="M 573.882353 252 
L 902.117647 252 
" style="fill:none;stroke:#cccccc;stroke-linecap:round;"/>
     </g>
    </g>
    <g id="ytick_9">
     <g id="line2d_24">
      <path clip-path="url(#p8906212145)" d="M 573.882353 216.161493 
L 902.117647 216.161493 
" style="fill:none;stroke:#cccccc;stroke-linecap:round;"/>
     </g>
    </g>
    <g id="ytick_10">
     <g id="line2d_25">
      <path clip-path="url(#p8906212145)" d="M 573.882353 180.322985 
L 902.117647 180.322985 
" style="fill:none;stroke:#cccccc;stroke-linecap:round;"/>
     </g>
    </g>
    <g id="ytick_11">
     <g id="line2d_26">
      <path clip-path="url(#p8906212145)" d="M 573.882353 144.484478 
L 902.117647 144.484478 
" style="fill:none;stroke:#cccccc;stroke-linecap:round;"/>
     </g>
    </g>
    <g id="ytick_12">
     <g id="line2d_27">
      <path clip-path="url(#p8906212145)" d="M 573.882353 108.645971 
L 902.117647 108.645971 
" style="fill:none;stroke:#cccccc;stroke-linecap:round;"/>
     </g>
    </g>
    <g id="ytick_13">
     <g id="line2d_28">
      <path clip-path="url(#p8906212145)" d="M 573.882353 72.807464 
L 902.117647 72.807464 
" style="fill:none;stroke:#cccccc;stroke-linecap:round;"/>
     </g>
    </g>
    <g id="ytick_14">
     <g id="line2d_29">
      <path clip-path="url(#p8906212145)" d="M 573.882353 36.968956 
L 902.117647 36.968956 
" style="fill:none;stroke:#cccccc;stroke-linecap:round;"/>
     </g>
    </g>
   </g>
   <g id="patch_18">
    <path clip-path="url(#p8906212145)" d="M 627.394889 252 
L 648.98922 252 
L 648.98922 165.763553 
L 627.394889 165.763553 
z
" style="fill:#dd8452;opacity:0.4;stroke:#ffffff;stroke-linejoin:miter;"/>
   </g>
   <g id="patch_19">
    <path clip-path="url(#p8906212145)" d="M 648.98922 252 
L 670.583551 252 
L 670.583551 175.036289 
L 648.98922 175.036289 
z
" style="fill:#dd8452;opacity:0.4;stroke:#ffffff;stroke-linejoin:miter;"/>
   </g>
   <g id="patch_20">
    <path clip-path="url(#p8906212145)" d="M 670.583551 252 
L 692.177883 252 
L 692.177883 153.708996 
L 670.583551 153.708996 
z
" style="fill:#dd8452;opacity:0.4;stroke:#ffffff;stroke-linejoin:miter;"/>
   </g>
   <g id="patch_21">
    <path clip-path="url(#p8906212145)" d="M 692.177883 252 
L 713.772214 252 
L 713.772214 130.733216 
L 692.177883 130.733216 
z
" style="fill:#dd8452;opacity:0.4;stroke:#ffffff;stroke-linejoin:miter;"/>
   </g>
   <g id="patch_22">
    <path clip-path="url(#p8906212145)" d="M 713.772214 252 
L 735.366545 252 
L 735.366545 89.521055 
L 713.772214 89.521055 
z
" style="fill:#dd8452;opacity:0.4;stroke:#ffffff;stroke-linejoin:miter;"/>
   </g>
   <g id="patch_23">
    <path clip-path="url(#p8906212145)" d="M 735.366545 252 
L 756.960876 252 
L 756.960876 93.436211 
L 735.366545 93.436211 
z
" style="fill:#dd8452;opacity:0.4;stroke:#ffffff;stroke-linejoin:miter;"/>
   </g>
   <g id="patch_24">
    <path clip-path="url(#p8906212145)" d="M 756.960876 252 
L 778.555207 252 
L 778.555207 159.581729 
L 756.960876 159.581729 
z
" style="fill:#dd8452;opacity:0.4;stroke:#ffffff;stroke-linejoin:miter;"/>
   </g>
   <g id="patch_25">
    <path clip-path="url(#p8906212145)" d="M 778.555207 252 
L 800.149539 252 
L 800.149539 200.999951 
L 778.555207 200.999951 
z
" style="fill:#dd8452;opacity:0.4;stroke:#ffffff;stroke-linejoin:miter;"/>
   </g>
   <g id="patch_26">
    <path clip-path="url(#p8906212145)" d="M 800.149539 252 
L 821.74387 252 
L 821.74387 231.187859 
L 800.149539 231.187859 
z
" style="fill:#dd8452;opacity:0.4;stroke:#ffffff;stroke-linejoin:miter;"/>
   </g>
   <g id="patch_27">
    <path clip-path="url(#p8906212145)" d="M 821.74387 252 
L 843.338201 252 
L 843.338201 245.921206 
L 821.74387 245.921206 
z
" style="fill:#dd8452;opacity:0.4;stroke:#ffffff;stroke-linejoin:miter;"/>
   </g>
   <g id="line2d_30">
    <path clip-path="url(#p8906212145)" d="M 604.863013 251.865665 
L 607.499448 251.60791 
L 610.135883 250.97678 
L 612.772318 249.607912 
L 615.408753 246.978294 
L 618.045188 242.504801 
L 620.681623 235.766584 
L 623.318058 226.781323 
L 625.954493 216.172692 
L 628.590928 205.073291 
L 631.227363 194.756525 
L 633.863798 186.187458 
L 636.500233 179.75508 
L 639.136668 175.319391 
L 641.773103 172.483164 
L 644.409538 170.868301 
L 647.045973 170.228243 
L 649.682408 170.386645 
L 652.318843 171.116929 
L 654.955278 172.086121 
L 657.591713 172.902835 
L 660.228148 173.217882 
L 662.864583 172.798562 
L 665.501018 171.54165 
L 668.137453 169.450485 
L 670.773888 166.616269 
L 673.410323 163.207374 
L 676.046758 159.439421 
L 678.683193 155.520022 
L 681.319628 151.606699 
L 683.956063 147.814256 
L 686.592498 144.248205 
L 689.228933 140.999204 
L 691.865368 138.073652 
L 694.501803 135.318213 
L 697.138238 132.423353 
L 699.774673 129.0288 
L 702.411108 124.869973 
L 705.047543 119.882825 
L 707.683978 114.231337 
L 710.320413 108.274221 
L 712.956848 102.496241 
L 715.593283 97.410352 
L 718.229718 93.436255 
L 720.866153 90.792123 
L 723.502588 89.460563 
L 726.139023 89.26214 
L 728.775458 89.994739 
L 731.411893 91.538693 
L 734.048327 93.850916 
L 736.684762 96.867946 
L 739.321197 100.419512 
L 741.957632 104.241519 
L 744.594067 108.086525 
L 747.230502 111.849927 
L 749.866937 115.62365 
L 752.503372 119.643306 
L 755.139807 124.161872 
L 757.776242 129.325279 
L 760.412677 135.120238 
L 763.049112 141.410519 
L 765.685547 148.014091 
L 768.321982 154.757613 
L 770.958417 161.487732 
L 773.594852 168.066945 
L 776.231287 174.383274 
L 778.867722 180.368281 
L 781.504157 185.998578 
L 784.140592 191.275508 
L 786.777027 196.206775 
L 789.413462 200.81191 
L 792.049897 205.141177 
L 794.686332 209.274905 
L 797.322767 213.287057 
L 799.959202 217.196007 
L 802.595637 220.944041 
L 805.232072 224.425567 
L 807.868507 227.545255 
L 810.504942 230.267712 
L 813.141377 232.632077 
L 815.777812 234.731218 
L 818.414247 236.673292 
L 821.050682 238.545386 
L 823.687117 240.391256 
L 826.323552 242.206595 
L 828.959987 243.949898 
L 831.596422 245.563606 
L 834.232857 246.997192 
L 836.869292 248.222608 
L 839.505727 249.236468 
L 842.142162 250.051683 
L 844.778597 250.687201 
L 847.415032 251.162881 
L 850.051467 251.499939 
L 852.687902 251.722786 
L 855.324337 251.858558 
L 857.960772 251.934046 
L 860.597207 251.972061 
L 863.233642 251.989303 
L 865.870077 251.996313 
" style="fill:none;stroke:#dd8452;stroke-linecap:round;stroke-width:1.5;"/>
   </g>
   <g id="patch_28">
    <path d="M 573.882353 252 
L 573.882353 34.56 
" style="fill:none;stroke:#cccccc;stroke-linecap:square;stroke-linejoin:miter;stroke-width:1.25;"/>
   </g>
   <g id="patch_29">
    <path d="M 902.117647 252 
L 902.117647 34.56 
" style="fill:none;stroke:#cccccc;stroke-linecap:square;stroke-linejoin:miter;stroke-width:1.25;"/>
   </g>
   <g id="patch_30">
    <path d="M 573.882353 252 
L 902.117647 252 
" style="fill:none;stroke:#cccccc;stroke-linecap:square;stroke-linejoin:miter;stroke-width:1.25;"/>
   </g>
   <g id="patch_31">
    <path d="M 573.882353 34.56 
L 902.117647 34.56 
" style="fill:none;stroke:#cccccc;stroke-linecap:square;stroke-linejoin:miter;stroke-width:1.25;"/>
   </g>
   <g id="text_26">
    <!-- Male's Age Distribution -->
    <defs>
     <path d="M 7.421875 0 
L 7.421875 71.578125 
L 21.6875 71.578125 
L 38.625 20.90625 
Q 40.96875 13.8125 42.046875 10.296875 
Q 43.265625 14.203125 45.84375 21.78125 
L 62.984375 71.578125 
L 75.734375 71.578125 
L 75.734375 0 
L 66.609375 0 
L 66.609375 59.90625 
L 45.796875 0 
L 37.25 0 
L 16.546875 60.9375 
L 16.546875 0 
z
" id="ArialMT-77"/>
    </defs>
    <g style="fill:#262626;" transform="translate(661.544531 28.56)scale(0.15 -0.15)">
     <use xlink:href="#ArialMT-77"/>
     <use x="83.300781" xlink:href="#ArialMT-97"/>
     <use x="138.916016" xlink:href="#ArialMT-108"/>
     <use x="161.132812" xlink:href="#ArialMT-101"/>
     <use x="216.748047" xlink:href="#ArialMT-39"/>
     <use x="235.839844" xlink:href="#ArialMT-115"/>
     <use x="285.839844" xlink:href="#ArialMT-32"/>
     <use x="313.544922" xlink:href="#ArialMT-65"/>
     <use x="380.244141" xlink:href="#ArialMT-103"/>
     <use x="435.859375" xlink:href="#ArialMT-101"/>
     <use x="491.474609" xlink:href="#ArialMT-32"/>
     <use x="519.257812" xlink:href="#ArialMT-68"/>
     <use x="591.474609" xlink:href="#ArialMT-105"/>
     <use x="613.691406" xlink:href="#ArialMT-115"/>
     <use x="663.691406" xlink:href="#ArialMT-116"/>
     <use x="691.474609" xlink:href="#ArialMT-114"/>
     <use x="724.775391" xlink:href="#ArialMT-105"/>
     <use x="746.992188" xlink:href="#ArialMT-98"/>
     <use x="802.607422" xlink:href="#ArialMT-117"/>
     <use x="858.222656" xlink:href="#ArialMT-116"/>
     <use x="886.005859" xlink:href="#ArialMT-105"/>
     <use x="908.222656" xlink:href="#ArialMT-111"/>
     <use x="963.837891" xlink:href="#ArialMT-110"/>
    </g>
   </g>
  </g>
  <g id="axes_3">
   <g id="patch_32">
    <path d="M 967.764706 252 
L 1296 252 
L 1296 34.56 
L 967.764706 34.56 
z
" style="fill:#ffffff;"/>
   </g>
   <g id="matplotlib.axis_5">
    <g id="xtick_15">
     <g id="line2d_31">
      <path clip-path="url(#p352d95c974)" d="M 973.875051 252 
L 973.875051 34.56 
" style="fill:none;stroke:#cccccc;stroke-linecap:round;"/>
     </g>
     <g id="text_27">
      <!-- 0 -->
      <g style="fill:#262626;" transform="translate(970.051907 271.341992)scale(0.1375 -0.1375)">
       <use xlink:href="#ArialMT-48"/>
      </g>
     </g>
    </g>
    <g id="xtick_16">
     <g id="line2d_32">
      <path clip-path="url(#p352d95c974)" d="M 1026.544152 252 
L 1026.544152 34.56 
" style="fill:none;stroke:#cccccc;stroke-linecap:round;"/>
     </g>
     <g id="text_28">
      <!-- 20 -->
      <g style="fill:#262626;" transform="translate(1018.897863 271.341992)scale(0.1375 -0.1375)">
       <use xlink:href="#ArialMT-50"/>
       <use x="55.615234" xlink:href="#ArialMT-48"/>
      </g>
     </g>
    </g>
    <g id="xtick_17">
     <g id="line2d_33">
      <path clip-path="url(#p352d95c974)" d="M 1079.213252 252 
L 1079.213252 34.56 
" style="fill:none;stroke:#cccccc;stroke-linecap:round;"/>
     </g>
     <g id="text_29">
      <!-- 40 -->
      <g style="fill:#262626;" transform="translate(1071.566963 271.341992)scale(0.1375 -0.1375)">
       <use xlink:href="#ArialMT-52"/>
       <use x="55.615234" xlink:href="#ArialMT-48"/>
      </g>
     </g>
    </g>
    <g id="xtick_18">
     <g id="line2d_34">
      <path clip-path="url(#p352d95c974)" d="M 1131.882353 252 
L 1131.882353 34.56 
" style="fill:none;stroke:#cccccc;stroke-linecap:round;"/>
     </g>
     <g id="text_30">
      <!-- 60 -->
      <g style="fill:#262626;" transform="translate(1124.236064 271.341992)scale(0.1375 -0.1375)">
       <use xlink:href="#ArialMT-54"/>
       <use x="55.615234" xlink:href="#ArialMT-48"/>
      </g>
     </g>
    </g>
    <g id="xtick_19">
     <g id="line2d_35">
      <path clip-path="url(#p352d95c974)" d="M 1184.551454 252 
L 1184.551454 34.56 
" style="fill:none;stroke:#cccccc;stroke-linecap:round;"/>
     </g>
     <g id="text_31">
      <!-- 80 -->
      <g style="fill:#262626;" transform="translate(1176.905164 271.341992)scale(0.1375 -0.1375)">
       <use xlink:href="#ArialMT-56"/>
       <use x="55.615234" xlink:href="#ArialMT-48"/>
      </g>
     </g>
    </g>
    <g id="xtick_20">
     <g id="line2d_36">
      <path clip-path="url(#p352d95c974)" d="M 1237.220554 252 
L 1237.220554 34.56 
" style="fill:none;stroke:#cccccc;stroke-linecap:round;"/>
     </g>
     <g id="text_32">
      <!-- 100 -->
      <g style="fill:#262626;" transform="translate(1225.75112 271.341992)scale(0.1375 -0.1375)">
       <use xlink:href="#ArialMT-49"/>
       <use x="55.615234" xlink:href="#ArialMT-48"/>
       <use x="111.230469" xlink:href="#ArialMT-48"/>
      </g>
     </g>
    </g>
    <g id="xtick_21">
     <g id="line2d_37">
      <path clip-path="url(#p352d95c974)" d="M 1289.889655 252 
L 1289.889655 34.56 
" style="fill:none;stroke:#cccccc;stroke-linecap:round;"/>
     </g>
     <g id="text_33">
      <!-- 120 -->
      <g style="fill:#262626;" transform="translate(1278.420221 271.341992)scale(0.1375 -0.1375)">
       <use xlink:href="#ArialMT-49"/>
       <use x="55.615234" xlink:href="#ArialMT-50"/>
       <use x="111.230469" xlink:href="#ArialMT-48"/>
      </g>
     </g>
    </g>
    <g id="text_34">
     <!-- Age -->
     <g style="fill:#262626;" transform="translate(1118.538212 288.811523)scale(0.15 -0.15)">
      <use xlink:href="#ArialMT-65"/>
      <use x="66.699219" xlink:href="#ArialMT-103"/>
      <use x="122.314453" xlink:href="#ArialMT-101"/>
     </g>
    </g>
   </g>
   <g id="matplotlib.axis_6">
    <g id="ytick_15">
     <g id="line2d_38">
      <path clip-path="url(#p352d95c974)" d="M 967.764706 252 
L 1296 252 
" style="fill:none;stroke:#cccccc;stroke-linecap:round;"/>
     </g>
    </g>
    <g id="ytick_16">
     <g id="line2d_39">
      <path clip-path="url(#p352d95c974)" d="M 967.764706 216.161493 
L 1296 216.161493 
" style="fill:none;stroke:#cccccc;stroke-linecap:round;"/>
     </g>
    </g>
    <g id="ytick_17">
     <g id="line2d_40">
      <path clip-path="url(#p352d95c974)" d="M 967.764706 180.322985 
L 1296 180.322985 
" style="fill:none;stroke:#cccccc;stroke-linecap:round;"/>
     </g>
    </g>
    <g id="ytick_18">
     <g id="line2d_41">
      <path clip-path="url(#p352d95c974)" d="M 967.764706 144.484478 
L 1296 144.484478 
" style="fill:none;stroke:#cccccc;stroke-linecap:round;"/>
     </g>
    </g>
    <g id="ytick_19">
     <g id="line2d_42">
      <path clip-path="url(#p352d95c974)" d="M 967.764706 108.645971 
L 1296 108.645971 
" style="fill:none;stroke:#cccccc;stroke-linecap:round;"/>
     </g>
    </g>
    <g id="ytick_20">
     <g id="line2d_43">
      <path clip-path="url(#p352d95c974)" d="M 967.764706 72.807464 
L 1296 72.807464 
" style="fill:none;stroke:#cccccc;stroke-linecap:round;"/>
     </g>
    </g>
    <g id="ytick_21">
     <g id="line2d_44">
      <path clip-path="url(#p352d95c974)" d="M 967.764706 36.968956 
L 1296 36.968956 
" style="fill:none;stroke:#cccccc;stroke-linecap:round;"/>
     </g>
    </g>
   </g>
   <g id="patch_33">
    <path clip-path="url(#p352d95c974)" d="M 1026.544152 252 
L 1047.611792 252 
L 1047.611792 201.285131 
L 1026.544152 201.285131 
z
" style="fill:#55a868;opacity:0.4;stroke:#ffffff;stroke-linejoin:miter;"/>
   </g>
   <g id="patch_34">
    <path clip-path="url(#p352d95c974)" d="M 1047.611792 252 
L 1068.679432 252 
L 1068.679432 180.153936 
L 1047.611792 180.153936 
z
" style="fill:#55a868;opacity:0.4;stroke:#ffffff;stroke-linejoin:miter;"/>
   </g>
   <g id="patch_35">
    <path clip-path="url(#p352d95c974)" d="M 1068.679432 252 
L 1089.747072 252 
L 1089.747072 142.117784 
L 1068.679432 142.117784 
z
" style="fill:#55a868;opacity:0.4;stroke:#ffffff;stroke-linejoin:miter;"/>
   </g>
   <g id="patch_36">
    <path clip-path="url(#p352d95c974)" d="M 1089.747072 252 
L 1110.814713 252 
L 1110.814713 120.986589 
L 1089.747072 120.986589 
z
" style="fill:#55a868;opacity:0.4;stroke:#ffffff;stroke-linejoin:miter;"/>
   </g>
   <g id="patch_37">
    <path clip-path="url(#p352d95c974)" d="M 1110.814713 252 
L 1131.882353 252 
L 1131.882353 44.914286 
L 1110.814713 44.914286 
z
" style="fill:#55a868;opacity:0.4;stroke:#ffffff;stroke-linejoin:miter;"/>
   </g>
   <g id="patch_38">
    <path clip-path="url(#p352d95c974)" d="M 1131.882353 252 
L 1152.949993 252 
L 1152.949993 112.534111 
L 1131.882353 112.534111 
z
" style="fill:#55a868;opacity:0.4;stroke:#ffffff;stroke-linejoin:miter;"/>
   </g>
   <g id="patch_39">
    <path clip-path="url(#p352d95c974)" d="M 1152.949993 252 
L 1174.017633 252 
L 1174.017633 154.796501 
L 1152.949993 154.796501 
z
" style="fill:#55a868;opacity:0.4;stroke:#ffffff;stroke-linejoin:miter;"/>
   </g>
   <g id="patch_40">
    <path clip-path="url(#p352d95c974)" d="M 1174.017633 252 
L 1195.085274 252 
L 1195.085274 197.058892 
L 1174.017633 197.058892 
z
" style="fill:#55a868;opacity:0.4;stroke:#ffffff;stroke-linejoin:miter;"/>
   </g>
   <g id="patch_41">
    <path clip-path="url(#p352d95c974)" d="M 1195.085274 252 
L 1216.152914 252 
L 1216.152914 226.642566 
L 1195.085274 226.642566 
z
" style="fill:#55a868;opacity:0.4;stroke:#ffffff;stroke-linejoin:miter;"/>
   </g>
   <g id="patch_42">
    <path clip-path="url(#p352d95c974)" d="M 1216.152914 252 
L 1237.220554 252 
L 1237.220554 243.547522 
L 1216.152914 243.547522 
z
" style="fill:#55a868;opacity:0.4;stroke:#ffffff;stroke-linejoin:miter;"/>
   </g>
   <g id="line2d_45">
    <path clip-path="url(#p352d95c974)" d="M 982.684492 251.828286 
L 985.69859 251.68231 
L 988.712688 251.435605 
L 991.726787 251.036908 
L 994.740885 250.420884 
L 997.754983 249.511056 
L 1000.769081 248.226788 
L 1003.783179 246.494429 
L 1006.797278 244.261404 
L 1009.811376 241.510453 
L 1012.825474 238.27019 
L 1015.839572 234.618027 
L 1018.85367 230.672956 
L 1021.867769 226.578322 
L 1024.881867 222.477938 
L 1027.895965 218.491342 
L 1030.910063 214.694671 
L 1033.924161 211.112015 
L 1036.93826 207.718683 
L 1039.952358 204.453978 
L 1042.966456 201.238336 
L 1045.980554 197.989206 
L 1048.994652 194.631845 
L 1052.008751 191.104276 
L 1055.022849 187.358444 
L 1058.036947 183.36059 
L 1061.051045 179.092783 
L 1064.065143 174.555012 
L 1067.079242 169.76494 
L 1070.09334 164.752003 
L 1073.107438 159.544594 
L 1076.121536 154.153062 
L 1079.135634 148.555016 
L 1082.149733 142.690958 
L 1085.163831 136.476084 
L 1088.177929 129.828702 
L 1091.192027 122.709163 
L 1094.206125 115.158303 
L 1097.220224 107.323377 
L 1100.234322 99.462746 
L 1103.24842 91.926775 
L 1106.262518 85.118971 
L 1109.276616 79.445925 
L 1112.290715 75.265954 
L 1115.304813 72.844875 
L 1118.318911 72.324463 
L 1121.333009 73.706443 
L 1124.347107 76.853042 
L 1127.361206 81.504008 
L 1130.375304 87.30874 
L 1133.389402 93.870238 
L 1136.4035 100.794949 
L 1139.417598 107.740467 
L 1142.431697 114.452518 
L 1145.445795 120.784645 
L 1148.459893 126.698114 
L 1151.473991 132.244366 
L 1154.488089 137.53614 
L 1157.502188 142.714805 
L 1160.516286 147.920429 
L 1163.530384 153.268554 
L 1166.544482 158.834994 
L 1169.55858 164.648245 
L 1172.572679 170.688577 
L 1175.586777 176.892952 
L 1178.600875 183.164974 
L 1181.614973 189.388673 
L 1184.629071 195.444195 
L 1187.64317 201.222924 
L 1190.657268 206.639605 
L 1193.671366 211.63971 
L 1196.685464 216.201329 
L 1199.699562 220.331929 
L 1202.713661 224.061083 
L 1205.727759 227.430779 
L 1208.741857 230.48522 
L 1211.755955 233.262105 
L 1214.770053 235.787155 
L 1217.784152 238.072965 
L 1220.79825 240.12214 
L 1223.812348 241.93343 
L 1226.826446 243.508637 
L 1229.840544 244.857893 
L 1232.854643 246.001602 
L 1235.868741 246.968623 
L 1238.882839 247.791634 
L 1241.896937 248.501552 
L 1244.911035 249.122938 
L 1247.925134 249.671733 
L 1250.939232 250.155649 
L 1253.95333 250.576598 
L 1256.967428 250.933987 
L 1259.981526 251.227718 
L 1262.995625 251.460101 
L 1266.009723 251.636437 
L 1269.023821 251.764497 
L 1272.037919 251.8534 
L 1275.052018 251.912363 
L 1278.066116 251.949715 
L 1281.080214 251.972316 
" style="fill:none;stroke:#55a868;stroke-linecap:round;stroke-width:1.5;"/>
   </g>
   <g id="patch_43">
    <path d="M 967.764706 252 
L 967.764706 34.56 
" style="fill:none;stroke:#cccccc;stroke-linecap:square;stroke-linejoin:miter;stroke-width:1.25;"/>
   </g>
   <g id="patch_44">
    <path d="M 1296 252 
L 1296 34.56 
" style="fill:none;stroke:#cccccc;stroke-linecap:square;stroke-linejoin:miter;stroke-width:1.25;"/>
   </g>
   <g id="patch_45">
    <path d="M 967.764706 252 
L 1296 252 
" style="fill:none;stroke:#cccccc;stroke-linecap:square;stroke-linejoin:miter;stroke-width:1.25;"/>
   </g>
   <g id="patch_46">
    <path d="M 967.764706 34.56 
L 1296 34.56 
" style="fill:none;stroke:#cccccc;stroke-linecap:square;stroke-linejoin:miter;stroke-width:1.25;"/>
   </g>
   <g id="text_35">
    <!-- Other's Age Distribution -->
    <defs>
     <path d="M 4.828125 34.859375 
Q 4.828125 52.6875 14.390625 62.765625 
Q 23.96875 72.859375 39.109375 72.859375 
Q 49.03125 72.859375 56.984375 68.109375 
Q 64.9375 63.375 69.109375 54.90625 
Q 73.296875 46.4375 73.296875 35.6875 
Q 73.296875 24.8125 68.890625 16.21875 
Q 64.5 7.625 56.4375 3.203125 
Q 48.390625 -1.21875 39.0625 -1.21875 
Q 28.953125 -1.21875 20.984375 3.65625 
Q 13.03125 8.546875 8.921875 16.984375 
Q 4.828125 25.4375 4.828125 34.859375 
z
M 14.59375 34.71875 
Q 14.59375 21.78125 21.546875 14.328125 
Q 28.515625 6.890625 39.015625 6.890625 
Q 49.703125 6.890625 56.609375 14.40625 
Q 63.53125 21.921875 63.53125 35.75 
Q 63.53125 44.484375 60.578125 51 
Q 57.625 57.515625 51.921875 61.109375 
Q 46.234375 64.703125 39.15625 64.703125 
Q 29.109375 64.703125 21.84375 57.78125 
Q 14.59375 50.875 14.59375 34.71875 
z
" id="ArialMT-79"/>
     <path d="M 6.59375 0 
L 6.59375 71.578125 
L 15.375 71.578125 
L 15.375 45.90625 
Q 21.53125 53.03125 30.90625 53.03125 
Q 36.671875 53.03125 40.921875 50.75 
Q 45.171875 48.484375 47 44.484375 
Q 48.828125 40.484375 48.828125 32.859375 
L 48.828125 0 
L 40.046875 0 
L 40.046875 32.859375 
Q 40.046875 39.453125 37.1875 42.453125 
Q 34.328125 45.453125 29.109375 45.453125 
Q 25.203125 45.453125 21.75 43.421875 
Q 18.3125 41.40625 16.84375 37.9375 
Q 15.375 34.46875 15.375 28.375 
L 15.375 0 
z
" id="ArialMT-104"/>
    </defs>
    <g style="fill:#262626;" transform="translate(1052.926103 28.56)scale(0.15 -0.15)">
     <use xlink:href="#ArialMT-79"/>
     <use x="77.783203" xlink:href="#ArialMT-116"/>
     <use x="105.566406" xlink:href="#ArialMT-104"/>
     <use x="161.181641" xlink:href="#ArialMT-101"/>
     <use x="216.796875" xlink:href="#ArialMT-114"/>
     <use x="250.097656" xlink:href="#ArialMT-39"/>
     <use x="269.189453" xlink:href="#ArialMT-115"/>
     <use x="319.189453" xlink:href="#ArialMT-32"/>
     <use x="346.894531" xlink:href="#ArialMT-65"/>
     <use x="413.59375" xlink:href="#ArialMT-103"/>
     <use x="469.208984" xlink:href="#ArialMT-101"/>
     <use x="524.824219" xlink:href="#ArialMT-32"/>
     <use x="552.607422" xlink:href="#ArialMT-68"/>
     <use x="624.824219" xlink:href="#ArialMT-105"/>
     <use x="647.041016" xlink:href="#ArialMT-115"/>
     <use x="697.041016" xlink:href="#ArialMT-116"/>
     <use x="724.824219" xlink:href="#ArialMT-114"/>
     <use x="758.125" xlink:href="#ArialMT-105"/>
     <use x="780.341797" xlink:href="#ArialMT-98"/>
     <use x="835.957031" xlink:href="#ArialMT-117"/>
     <use x="891.572266" xlink:href="#ArialMT-116"/>
     <use x="919.355469" xlink:href="#ArialMT-105"/>
     <use x="941.572266" xlink:href="#ArialMT-111"/>
     <use x="997.1875" xlink:href="#ArialMT-110"/>
    </g>
   </g>
  </g>
 </g>
 <defs>
  <clipPath id="pd2e2dae036">
   <rect height="217.44" width="328.235294" x="180" y="34.56"/>
  </clipPath>
  <clipPath id="p8906212145">
   <rect height="217.44" width="328.235294" x="573.882353" y="34.56"/>
  </clipPath>
  <clipPath id="p352d95c974">
   <rect height="217.44" width="328.235294" x="967.764706" y="34.56"/>
  </clipPath>
 </defs>
</svg>
