<?xml version="1.0" encoding="utf-8" standalone="no"?>
<!DOCTYPE svg PUBLIC "-//W3C//DTD SVG 1.1//EN"
  "http://www.w3.org/Graphics/SVG/1.1/DTD/svg11.dtd">
<!-- Created with matplotlib (https://matplotlib.org/) -->
<svg height="288pt" version="1.1" viewBox="0 0 1440 288" width="1440pt" xmlns="http://www.w3.org/2000/svg" xmlns:xlink="http://www.w3.org/1999/xlink">
 <defs>
  <style type="text/css">
*{stroke-linecap:butt;stroke-linejoin:round;}
  </style>
 </defs>
 <g id="figure_1">
  <g id="patch_1">
   <path d="M 0 288 
L 1440 288 
L 1440 0 
L 0 0 
z
" style="fill:#ffffff;"/>
  </g>
  <g id="axes_1">
   <g id="patch_2">
    <path d="M 180 252 
L 508.235294 252 
L 508.235294 34.56 
L 180 34.56 
z
" style="fill:#ffffff;"/>
   </g>
   <g id="matplotlib.axis_1">
    <g id="xtick_1">
     <g id="line2d_1">
      <path clip-path="url(#p4522fed061)" d="M 218.117277 252 
L 218.117277 34.56 
" style="fill:none;stroke:#cccccc;stroke-linecap:round;"/>
     </g>
     <g id="text_1">
      <!-- 20000 -->
      <defs>
       <path d="M 50.34375 8.453125 
L 50.34375 0 
L 3.03125 0 
Q 2.9375 3.171875 4.046875 6.109375 
Q 5.859375 10.9375 9.828125 15.625 
Q 13.8125 20.3125 21.34375 26.46875 
Q 33.015625 36.03125 37.109375 41.625 
Q 41.21875 47.21875 41.21875 52.203125 
Q 41.21875 57.421875 37.46875 61 
Q 33.734375 64.59375 27.734375 64.59375 
Q 21.390625 64.59375 17.578125 60.78125 
Q 13.765625 56.984375 13.71875 50.25 
L 4.6875 51.171875 
Q 5.609375 61.28125 11.65625 66.578125 
Q 17.71875 71.875 27.9375 71.875 
Q 38.234375 71.875 44.234375 66.15625 
Q 50.25 60.453125 50.25 52 
Q 50.25 47.703125 48.484375 43.546875 
Q 46.734375 39.40625 42.65625 34.8125 
Q 38.578125 30.21875 29.109375 22.21875 
Q 21.1875 15.578125 18.9375 13.203125 
Q 16.703125 10.84375 15.234375 8.453125 
z
" id="ArialMT-50"/>
       <path d="M 4.15625 35.296875 
Q 4.15625 48 6.765625 55.734375 
Q 9.375 63.484375 14.515625 67.671875 
Q 19.671875 71.875 27.484375 71.875 
Q 33.25 71.875 37.59375 69.546875 
Q 41.9375 67.234375 44.765625 62.859375 
Q 47.609375 58.5 49.21875 52.21875 
Q 50.828125 45.953125 50.828125 35.296875 
Q 50.828125 22.703125 48.234375 14.96875 
Q 45.65625 7.234375 40.5 3 
Q 35.359375 -1.21875 27.484375 -1.21875 
Q 17.140625 -1.21875 11.234375 6.203125 
Q 4.15625 15.140625 4.15625 35.296875 
z
M 13.1875 35.296875 
Q 13.1875 17.671875 17.3125 11.828125 
Q 21.4375 6 27.484375 6 
Q 33.546875 6 37.671875 11.859375 
Q 41.796875 17.71875 41.796875 35.296875 
Q 41.796875 52.984375 37.671875 58.78125 
Q 33.546875 64.59375 27.390625 64.59375 
Q 21.34375 64.59375 17.71875 59.46875 
Q 13.1875 52.9375 13.1875 35.296875 
z
" id="ArialMT-48"/>
      </defs>
      <g style="fill:#262626;" transform="translate(199.001554 271.341992)scale(0.1375 -0.1375)">
       <use xlink:href="#ArialMT-50"/>
       <use x="55.615234" xlink:href="#ArialMT-48"/>
       <use x="111.230469" xlink:href="#ArialMT-48"/>
       <use x="166.845703" xlink:href="#ArialMT-48"/>
       <use x="222.460938" xlink:href="#ArialMT-48"/>
      </g>
     </g>
    </g>
    <g id="xtick_2">
     <g id="line2d_2">
      <path clip-path="url(#p4522fed061)" d="M 267.386177 252 
L 267.386177 34.56 
" style="fill:none;stroke:#cccccc;stroke-linecap:round;"/>
     </g>
     <g id="text_2">
      <!-- 40000 -->
      <defs>
       <path d="M 32.328125 0 
L 32.328125 17.140625 
L 1.265625 17.140625 
L 1.265625 25.203125 
L 33.9375 71.578125 
L 41.109375 71.578125 
L 41.109375 25.203125 
L 50.78125 25.203125 
L 50.78125 17.140625 
L 41.109375 17.140625 
L 41.109375 0 
z
M 32.328125 25.203125 
L 32.328125 57.46875 
L 9.90625 25.203125 
z
" id="ArialMT-52"/>
      </defs>
      <g style="fill:#262626;" transform="translate(248.270455 271.341992)scale(0.1375 -0.1375)">
       <use xlink:href="#ArialMT-52"/>
       <use x="55.615234" xlink:href="#ArialMT-48"/>
       <use x="111.230469" xlink:href="#ArialMT-48"/>
       <use x="166.845703" xlink:href="#ArialMT-48"/>
       <use x="222.460938" xlink:href="#ArialMT-48"/>
      </g>
     </g>
    </g>
    <g id="xtick_3">
     <g id="line2d_3">
      <path clip-path="url(#p4522fed061)" d="M 316.655078 252 
L 316.655078 34.56 
" style="fill:none;stroke:#cccccc;stroke-linecap:round;"/>
     </g>
     <g id="text_3">
      <!-- 60000 -->
      <defs>
       <path d="M 49.75 54.046875 
L 41.015625 53.375 
Q 39.84375 58.546875 37.703125 60.890625 
Q 34.125 64.65625 28.90625 64.65625 
Q 24.703125 64.65625 21.53125 62.3125 
Q 17.390625 59.28125 14.984375 53.46875 
Q 12.59375 47.65625 12.5 36.921875 
Q 15.671875 41.75 20.265625 44.09375 
Q 24.859375 46.4375 29.890625 46.4375 
Q 38.671875 46.4375 44.84375 39.96875 
Q 51.03125 33.5 51.03125 23.25 
Q 51.03125 16.5 48.125 10.71875 
Q 45.21875 4.9375 40.140625 1.859375 
Q 35.0625 -1.21875 28.609375 -1.21875 
Q 17.625 -1.21875 10.6875 6.859375 
Q 3.765625 14.9375 3.765625 33.5 
Q 3.765625 54.25 11.421875 63.671875 
Q 18.109375 71.875 29.4375 71.875 
Q 37.890625 71.875 43.28125 67.140625 
Q 48.6875 62.40625 49.75 54.046875 
z
M 13.875 23.1875 
Q 13.875 18.65625 15.796875 14.5 
Q 17.71875 10.359375 21.1875 8.171875 
Q 24.65625 6 28.46875 6 
Q 34.03125 6 38.03125 10.484375 
Q 42.046875 14.984375 42.046875 22.703125 
Q 42.046875 30.125 38.078125 34.390625 
Q 34.125 38.671875 28.125 38.671875 
Q 22.171875 38.671875 18.015625 34.390625 
Q 13.875 30.125 13.875 23.1875 
z
" id="ArialMT-54"/>
      </defs>
      <g style="fill:#262626;" transform="translate(297.539355 271.341992)scale(0.1375 -0.1375)">
       <use xlink:href="#ArialMT-54"/>
       <use x="55.615234" xlink:href="#ArialMT-48"/>
       <use x="111.230469" xlink:href="#ArialMT-48"/>
       <use x="166.845703" xlink:href="#ArialMT-48"/>
       <use x="222.460938" xlink:href="#ArialMT-48"/>
      </g>
     </g>
    </g>
    <g id="xtick_4">
     <g id="line2d_4">
      <path clip-path="url(#p4522fed061)" d="M 365.923979 252 
L 365.923979 34.56 
" style="fill:none;stroke:#cccccc;stroke-linecap:round;"/>
     </g>
     <g id="text_4">
      <!-- 80000 -->
      <defs>
       <path d="M 17.671875 38.8125 
Q 12.203125 40.828125 9.5625 44.53125 
Q 6.9375 48.25 6.9375 53.421875 
Q 6.9375 61.234375 12.546875 66.546875 
Q 18.171875 71.875 27.484375 71.875 
Q 36.859375 71.875 42.578125 66.421875 
Q 48.296875 60.984375 48.296875 53.171875 
Q 48.296875 48.1875 45.671875 44.5 
Q 43.0625 40.828125 37.75 38.8125 
Q 44.34375 36.671875 47.78125 31.875 
Q 51.21875 27.09375 51.21875 20.453125 
Q 51.21875 11.28125 44.71875 5.03125 
Q 38.234375 -1.21875 27.640625 -1.21875 
Q 17.046875 -1.21875 10.546875 5.046875 
Q 4.046875 11.328125 4.046875 20.703125 
Q 4.046875 27.6875 7.59375 32.390625 
Q 11.140625 37.109375 17.671875 38.8125 
z
M 15.921875 53.71875 
Q 15.921875 48.640625 19.1875 45.40625 
Q 22.46875 42.1875 27.6875 42.1875 
Q 32.765625 42.1875 36.015625 45.375 
Q 39.265625 48.578125 39.265625 53.21875 
Q 39.265625 58.0625 35.90625 61.359375 
Q 32.5625 64.65625 27.59375 64.65625 
Q 22.5625 64.65625 19.234375 61.421875 
Q 15.921875 58.203125 15.921875 53.71875 
z
M 13.09375 20.65625 
Q 13.09375 16.890625 14.875 13.375 
Q 16.65625 9.859375 20.171875 7.921875 
Q 23.6875 6 27.734375 6 
Q 34.03125 6 38.125 10.046875 
Q 42.234375 14.109375 42.234375 20.359375 
Q 42.234375 26.703125 38.015625 30.859375 
Q 33.796875 35.015625 27.4375 35.015625 
Q 21.234375 35.015625 17.15625 30.90625 
Q 13.09375 26.8125 13.09375 20.65625 
z
" id="ArialMT-56"/>
      </defs>
      <g style="fill:#262626;" transform="translate(346.808256 271.341992)scale(0.1375 -0.1375)">
       <use xlink:href="#ArialMT-56"/>
       <use x="55.615234" xlink:href="#ArialMT-48"/>
       <use x="111.230469" xlink:href="#ArialMT-48"/>
       <use x="166.845703" xlink:href="#ArialMT-48"/>
       <use x="222.460938" xlink:href="#ArialMT-48"/>
      </g>
     </g>
    </g>
    <g id="xtick_5">
     <g id="line2d_5">
      <path clip-path="url(#p4522fed061)" d="M 415.192879 252 
L 415.192879 34.56 
" style="fill:none;stroke:#cccccc;stroke-linecap:round;"/>
     </g>
     <g id="text_5">
      <!-- 100000 -->
      <defs>
       <path d="M 37.25 0 
L 28.46875 0 
L 28.46875 56 
Q 25.296875 52.984375 20.140625 49.953125 
Q 14.984375 46.921875 10.890625 45.40625 
L 10.890625 53.90625 
Q 18.265625 57.375 23.78125 62.296875 
Q 29.296875 67.234375 31.59375 71.875 
L 37.25 71.875 
z
" id="ArialMT-49"/>
      </defs>
      <g style="fill:#262626;" transform="translate(392.254012 271.341992)scale(0.1375 -0.1375)">
       <use xlink:href="#ArialMT-49"/>
       <use x="55.615234" xlink:href="#ArialMT-48"/>
       <use x="111.230469" xlink:href="#ArialMT-48"/>
       <use x="166.845703" xlink:href="#ArialMT-48"/>
       <use x="222.460938" xlink:href="#ArialMT-48"/>
       <use x="278.076172" xlink:href="#ArialMT-48"/>
      </g>
     </g>
    </g>
    <g id="xtick_6">
     <g id="line2d_6">
      <path clip-path="url(#p4522fed061)" d="M 464.46178 252 
L 464.46178 34.56 
" style="fill:none;stroke:#cccccc;stroke-linecap:round;"/>
     </g>
     <g id="text_6">
      <!-- 120000 -->
      <g style="fill:#262626;" transform="translate(441.522913 271.341992)scale(0.1375 -0.1375)">
       <use xlink:href="#ArialMT-49"/>
       <use x="55.615234" xlink:href="#ArialMT-50"/>
       <use x="111.230469" xlink:href="#ArialMT-48"/>
       <use x="166.845703" xlink:href="#ArialMT-48"/>
       <use x="222.460938" xlink:href="#ArialMT-48"/>
       <use x="278.076172" xlink:href="#ArialMT-48"/>
      </g>
     </g>
    </g>
    <g id="text_7">
     <!-- Income($) -->
     <defs>
      <path d="M 9.328125 0 
L 9.328125 71.578125 
L 18.796875 71.578125 
L 18.796875 0 
z
" id="ArialMT-73"/>
      <path d="M 6.59375 0 
L 6.59375 51.859375 
L 14.5 51.859375 
L 14.5 44.484375 
Q 20.21875 53.03125 31 53.03125 
Q 35.6875 53.03125 39.625 51.34375 
Q 43.5625 49.65625 45.515625 46.921875 
Q 47.46875 44.1875 48.25 40.4375 
Q 48.734375 37.984375 48.734375 31.890625 
L 48.734375 0 
L 39.9375 0 
L 39.9375 31.546875 
Q 39.9375 36.921875 38.90625 39.578125 
Q 37.890625 42.234375 35.28125 43.8125 
Q 32.671875 45.40625 29.15625 45.40625 
Q 23.53125 45.40625 19.453125 41.84375 
Q 15.375 38.28125 15.375 28.328125 
L 15.375 0 
z
" id="ArialMT-110"/>
      <path d="M 40.4375 19 
L 49.078125 17.875 
Q 47.65625 8.9375 41.8125 3.875 
Q 35.984375 -1.171875 27.484375 -1.171875 
Q 16.84375 -1.171875 10.375 5.78125 
Q 3.90625 12.75 3.90625 25.734375 
Q 3.90625 34.125 6.6875 40.421875 
Q 9.46875 46.734375 15.15625 49.875 
Q 20.84375 53.03125 27.546875 53.03125 
Q 35.984375 53.03125 41.359375 48.75 
Q 46.734375 44.484375 48.25 36.625 
L 39.703125 35.296875 
Q 38.484375 40.53125 35.375 43.15625 
Q 32.28125 45.796875 27.875 45.796875 
Q 21.234375 45.796875 17.078125 41.03125 
Q 12.9375 36.28125 12.9375 25.984375 
Q 12.9375 15.53125 16.9375 10.796875 
Q 20.953125 6.0625 27.390625 6.0625 
Q 32.5625 6.0625 36.03125 9.234375 
Q 39.5 12.40625 40.4375 19 
z
" id="ArialMT-99"/>
      <path d="M 3.328125 25.921875 
Q 3.328125 40.328125 11.328125 47.265625 
Q 18.015625 53.03125 27.640625 53.03125 
Q 38.328125 53.03125 45.109375 46.015625 
Q 51.90625 39.015625 51.90625 26.65625 
Q 51.90625 16.65625 48.90625 10.90625 
Q 45.90625 5.171875 40.15625 2 
Q 34.421875 -1.171875 27.640625 -1.171875 
Q 16.75 -1.171875 10.03125 5.8125 
Q 3.328125 12.796875 3.328125 25.921875 
z
M 12.359375 25.921875 
Q 12.359375 15.96875 16.703125 11.015625 
Q 21.046875 6.0625 27.640625 6.0625 
Q 34.1875 6.0625 38.53125 11.03125 
Q 42.875 16.015625 42.875 26.21875 
Q 42.875 35.84375 38.5 40.796875 
Q 34.125 45.75 27.640625 45.75 
Q 21.046875 45.75 16.703125 40.8125 
Q 12.359375 35.890625 12.359375 25.921875 
z
" id="ArialMT-111"/>
      <path d="M 6.59375 0 
L 6.59375 51.859375 
L 14.453125 51.859375 
L 14.453125 44.578125 
Q 16.890625 48.390625 20.9375 50.703125 
Q 25 53.03125 30.171875 53.03125 
Q 35.9375 53.03125 39.625 50.640625 
Q 43.3125 48.25 44.828125 43.953125 
Q 50.984375 53.03125 60.84375 53.03125 
Q 68.5625 53.03125 72.703125 48.75 
Q 76.859375 44.484375 76.859375 35.59375 
L 76.859375 0 
L 68.109375 0 
L 68.109375 32.671875 
Q 68.109375 37.9375 67.25 40.25 
Q 66.40625 42.578125 64.15625 43.984375 
Q 61.921875 45.40625 58.890625 45.40625 
Q 53.421875 45.40625 49.796875 41.765625 
Q 46.1875 38.140625 46.1875 30.125 
L 46.1875 0 
L 37.40625 0 
L 37.40625 33.6875 
Q 37.40625 39.546875 35.25 42.46875 
Q 33.109375 45.40625 28.21875 45.40625 
Q 24.515625 45.40625 21.359375 43.453125 
Q 18.21875 41.5 16.796875 37.734375 
Q 15.375 33.984375 15.375 26.90625 
L 15.375 0 
z
" id="ArialMT-109"/>
      <path d="M 42.09375 16.703125 
L 51.171875 15.578125 
Q 49.03125 7.625 43.21875 3.21875 
Q 37.40625 -1.171875 28.375 -1.171875 
Q 17 -1.171875 10.328125 5.828125 
Q 3.65625 12.84375 3.65625 25.484375 
Q 3.65625 38.578125 10.390625 45.796875 
Q 17.140625 53.03125 27.875 53.03125 
Q 38.28125 53.03125 44.875 45.953125 
Q 51.46875 38.875 51.46875 26.03125 
Q 51.46875 25.25 51.421875 23.6875 
L 12.75 23.6875 
Q 13.234375 15.140625 17.578125 10.59375 
Q 21.921875 6.0625 28.421875 6.0625 
Q 33.25 6.0625 36.671875 8.59375 
Q 40.09375 11.140625 42.09375 16.703125 
z
M 13.234375 30.90625 
L 42.1875 30.90625 
Q 41.609375 37.453125 38.875 40.71875 
Q 34.671875 45.796875 27.984375 45.796875 
Q 21.921875 45.796875 17.796875 41.75 
Q 13.671875 37.703125 13.234375 30.90625 
z
" id="ArialMT-101"/>
      <path d="M 23.390625 -21.046875 
Q 16.109375 -11.859375 11.078125 0.4375 
Q 6.0625 12.75 6.0625 25.921875 
Q 6.0625 37.546875 9.8125 48.1875 
Q 14.203125 60.546875 23.390625 72.796875 
L 29.6875 72.796875 
Q 23.78125 62.640625 21.875 58.296875 
Q 18.890625 51.5625 17.1875 44.234375 
Q 15.09375 35.109375 15.09375 25.875 
Q 15.09375 2.390625 29.6875 -21.046875 
z
" id="ArialMT-40"/>
      <path d="M 24.90625 -10.296875 
L 24.90625 -1.515625 
Q 18.3125 -0.6875 14.1875 1.4375 
Q 10.0625 3.5625 7.046875 8.296875 
Q 4.046875 13.03125 3.5625 19.875 
L 12.40625 21.53125 
Q 13.421875 14.453125 16.015625 11.140625 
Q 19.734375 6.453125 24.90625 5.90625 
L 24.90625 33.890625 
Q 19.484375 34.90625 13.8125 38.09375 
Q 9.625 40.4375 7.34375 44.578125 
Q 5.078125 48.734375 5.078125 54 
Q 5.078125 63.375 11.71875 69.1875 
Q 16.15625 73.09375 24.90625 73.96875 
L 24.90625 78.171875 
L 30.078125 78.171875 
L 30.078125 73.96875 
Q 37.75 73.25 42.234375 69.484375 
Q 48 64.703125 49.171875 56.34375 
L 40.09375 54.984375 
Q 39.3125 60.15625 36.84375 62.90625 
Q 34.375 65.671875 30.078125 66.546875 
L 30.078125 41.21875 
Q 36.71875 39.546875 38.875 38.625 
Q 42.96875 36.8125 45.546875 34.21875 
Q 48.140625 31.640625 49.53125 28.078125 
Q 50.921875 24.515625 50.921875 20.359375 
Q 50.921875 11.234375 45.109375 5.125 
Q 39.3125 -0.984375 30.078125 -1.421875 
L 30.078125 -10.296875 
z
M 24.90625 66.65625 
Q 19.78125 65.875 16.828125 62.546875 
Q 13.875 59.234375 13.875 54.6875 
Q 13.875 50.203125 16.375 47.171875 
Q 18.890625 44.140625 24.90625 42.328125 
z
M 30.078125 5.90625 
Q 35.203125 6.546875 38.546875 10.34375 
Q 41.890625 14.15625 41.890625 19.78125 
Q 41.890625 24.5625 39.515625 27.46875 
Q 37.15625 30.375 30.078125 32.671875 
z
" id="ArialMT-36"/>
      <path d="M 12.359375 -21.046875 
L 6.0625 -21.046875 
Q 20.65625 2.390625 20.65625 25.875 
Q 20.65625 35.0625 18.5625 44.09375 
Q 16.890625 51.421875 13.921875 58.15625 
Q 12.015625 62.546875 6.0625 72.796875 
L 12.359375 72.796875 
Q 21.53125 60.546875 25.921875 48.1875 
Q 29.6875 37.546875 29.6875 25.921875 
Q 29.6875 12.75 24.625 0.4375 
Q 19.578125 -11.859375 12.359375 -21.046875 
z
" id="ArialMT-41"/>
     </defs>
     <g style="fill:#262626;" transform="translate(310.359444 289.800586)scale(0.15 -0.15)">
      <use xlink:href="#ArialMT-73"/>
      <use x="27.783203" xlink:href="#ArialMT-110"/>
      <use x="83.398438" xlink:href="#ArialMT-99"/>
      <use x="133.398438" xlink:href="#ArialMT-111"/>
      <use x="189.013672" xlink:href="#ArialMT-109"/>
      <use x="272.314453" xlink:href="#ArialMT-101"/>
      <use x="327.929688" xlink:href="#ArialMT-40"/>
      <use x="361.230469" xlink:href="#ArialMT-36"/>
      <use x="416.845703" xlink:href="#ArialMT-41"/>
     </g>
    </g>
   </g>
   <g id="matplotlib.axis_2">
    <g id="ytick_1">
     <g id="line2d_7">
      <path clip-path="url(#p4522fed061)" d="M 180 252 
L 508.235294 252 
" style="fill:none;stroke:#cccccc;stroke-linecap:round;"/>
     </g>
     <g id="text_8">
      <!-- 0.000000 -->
      <defs>
       <path d="M 9.078125 0 
L 9.078125 10.015625 
L 19.09375 10.015625 
L 19.09375 0 
z
" id="ArialMT-46"/>
      </defs>
      <g style="fill:#262626;" transform="translate(113.156055 256.920996)scale(0.1375 -0.1375)">
       <use xlink:href="#ArialMT-48"/>
       <use x="55.615234" xlink:href="#ArialMT-46"/>
       <use x="83.398438" xlink:href="#ArialMT-48"/>
       <use x="139.013672" xlink:href="#ArialMT-48"/>
       <use x="194.628906" xlink:href="#ArialMT-48"/>
       <use x="250.244141" xlink:href="#ArialMT-48"/>
       <use x="305.859375" xlink:href="#ArialMT-48"/>
       <use x="361.474609" xlink:href="#ArialMT-48"/>
      </g>
     </g>
    </g>
    <g id="ytick_2">
     <g id="line2d_8">
      <path clip-path="url(#p4522fed061)" d="M 180 210.470919 
L 508.235294 210.470919 
" style="fill:none;stroke:#cccccc;stroke-linecap:round;"/>
     </g>
     <g id="text_9">
      <!-- 0.000005 -->
      <defs>
       <path d="M 4.15625 18.75 
L 13.375 19.53125 
Q 14.40625 12.796875 18.140625 9.390625 
Q 21.875 6 27.15625 6 
Q 33.5 6 37.890625 10.78125 
Q 42.28125 15.578125 42.28125 23.484375 
Q 42.28125 31 38.0625 35.34375 
Q 33.84375 39.703125 27 39.703125 
Q 22.75 39.703125 19.328125 37.765625 
Q 15.921875 35.84375 13.96875 32.765625 
L 5.71875 33.84375 
L 12.640625 70.609375 
L 48.25 70.609375 
L 48.25 62.203125 
L 19.671875 62.203125 
L 15.828125 42.96875 
Q 22.265625 47.46875 29.34375 47.46875 
Q 38.71875 47.46875 45.15625 40.96875 
Q 51.609375 34.46875 51.609375 24.265625 
Q 51.609375 14.546875 45.953125 7.46875 
Q 39.0625 -1.21875 27.15625 -1.21875 
Q 17.390625 -1.21875 11.203125 4.25 
Q 5.03125 9.71875 4.15625 18.75 
z
" id="ArialMT-53"/>
      </defs>
      <g style="fill:#262626;" transform="translate(113.156055 215.391915)scale(0.1375 -0.1375)">
       <use xlink:href="#ArialMT-48"/>
       <use x="55.615234" xlink:href="#ArialMT-46"/>
       <use x="83.398438" xlink:href="#ArialMT-48"/>
       <use x="139.013672" xlink:href="#ArialMT-48"/>
       <use x="194.628906" xlink:href="#ArialMT-48"/>
       <use x="250.244141" xlink:href="#ArialMT-48"/>
       <use x="305.859375" xlink:href="#ArialMT-48"/>
       <use x="361.474609" xlink:href="#ArialMT-53"/>
      </g>
     </g>
    </g>
    <g id="ytick_3">
     <g id="line2d_9">
      <path clip-path="url(#p4522fed061)" d="M 180 168.941838 
L 508.235294 168.941838 
" style="fill:none;stroke:#cccccc;stroke-linecap:round;"/>
     </g>
     <g id="text_10">
      <!-- 0.000010 -->
      <g style="fill:#262626;" transform="translate(113.156055 173.862834)scale(0.1375 -0.1375)">
       <use xlink:href="#ArialMT-48"/>
       <use x="55.615234" xlink:href="#ArialMT-46"/>
       <use x="83.398438" xlink:href="#ArialMT-48"/>
       <use x="139.013672" xlink:href="#ArialMT-48"/>
       <use x="194.628906" xlink:href="#ArialMT-48"/>
       <use x="250.244141" xlink:href="#ArialMT-48"/>
       <use x="305.859375" xlink:href="#ArialMT-49"/>
       <use x="361.474609" xlink:href="#ArialMT-48"/>
      </g>
     </g>
    </g>
    <g id="ytick_4">
     <g id="line2d_10">
      <path clip-path="url(#p4522fed061)" d="M 180 127.412757 
L 508.235294 127.412757 
" style="fill:none;stroke:#cccccc;stroke-linecap:round;"/>
     </g>
     <g id="text_11">
      <!-- 0.000015 -->
      <g style="fill:#262626;" transform="translate(113.156055 132.333753)scale(0.1375 -0.1375)">
       <use xlink:href="#ArialMT-48"/>
       <use x="55.615234" xlink:href="#ArialMT-46"/>
       <use x="83.398438" xlink:href="#ArialMT-48"/>
       <use x="139.013672" xlink:href="#ArialMT-48"/>
       <use x="194.628906" xlink:href="#ArialMT-48"/>
       <use x="250.244141" xlink:href="#ArialMT-48"/>
       <use x="305.859375" xlink:href="#ArialMT-49"/>
       <use x="361.474609" xlink:href="#ArialMT-53"/>
      </g>
     </g>
    </g>
    <g id="ytick_5">
     <g id="line2d_11">
      <path clip-path="url(#p4522fed061)" d="M 180 85.883676 
L 508.235294 85.883676 
" style="fill:none;stroke:#cccccc;stroke-linecap:round;"/>
     </g>
     <g id="text_12">
      <!-- 0.000020 -->
      <g style="fill:#262626;" transform="translate(113.156055 90.804672)scale(0.1375 -0.1375)">
       <use xlink:href="#ArialMT-48"/>
       <use x="55.615234" xlink:href="#ArialMT-46"/>
       <use x="83.398438" xlink:href="#ArialMT-48"/>
       <use x="139.013672" xlink:href="#ArialMT-48"/>
       <use x="194.628906" xlink:href="#ArialMT-48"/>
       <use x="250.244141" xlink:href="#ArialMT-48"/>
       <use x="305.859375" xlink:href="#ArialMT-50"/>
       <use x="361.474609" xlink:href="#ArialMT-48"/>
      </g>
     </g>
    </g>
    <g id="ytick_6">
     <g id="line2d_12">
      <path clip-path="url(#p4522fed061)" d="M 180 44.354595 
L 508.235294 44.354595 
" style="fill:none;stroke:#cccccc;stroke-linecap:round;"/>
     </g>
     <g id="text_13">
      <!-- 0.000025 -->
      <g style="fill:#262626;" transform="translate(113.156055 49.275591)scale(0.1375 -0.1375)">
       <use xlink:href="#ArialMT-48"/>
       <use x="55.615234" xlink:href="#ArialMT-46"/>
       <use x="83.398438" xlink:href="#ArialMT-48"/>
       <use x="139.013672" xlink:href="#ArialMT-48"/>
       <use x="194.628906" xlink:href="#ArialMT-48"/>
       <use x="250.244141" xlink:href="#ArialMT-48"/>
       <use x="305.859375" xlink:href="#ArialMT-50"/>
       <use x="361.474609" xlink:href="#ArialMT-53"/>
      </g>
     </g>
    </g>
    <g id="text_14">
     <!-- Distribution -->
     <defs>
      <path d="M 7.71875 0 
L 7.71875 71.578125 
L 32.375 71.578125 
Q 40.71875 71.578125 45.125 70.5625 
Q 51.265625 69.140625 55.609375 65.4375 
Q 61.28125 60.640625 64.078125 53.1875 
Q 66.890625 45.75 66.890625 36.1875 
Q 66.890625 28.03125 64.984375 21.734375 
Q 63.09375 15.4375 60.109375 11.296875 
Q 57.125 7.171875 53.578125 4.796875 
Q 50.046875 2.4375 45.046875 1.21875 
Q 40.046875 0 33.546875 0 
z
M 17.1875 8.453125 
L 32.46875 8.453125 
Q 39.546875 8.453125 43.578125 9.765625 
Q 47.609375 11.078125 50 13.484375 
Q 53.375 16.84375 55.25 22.53125 
Q 57.125 28.21875 57.125 36.328125 
Q 57.125 47.5625 53.4375 53.59375 
Q 49.75 59.625 44.484375 61.671875 
Q 40.671875 63.140625 32.234375 63.140625 
L 17.1875 63.140625 
z
" id="ArialMT-68"/>
      <path d="M 6.640625 61.46875 
L 6.640625 71.578125 
L 15.4375 71.578125 
L 15.4375 61.46875 
z
M 6.640625 0 
L 6.640625 51.859375 
L 15.4375 51.859375 
L 15.4375 0 
z
" id="ArialMT-105"/>
      <path d="M 3.078125 15.484375 
L 11.765625 16.84375 
Q 12.5 11.625 15.84375 8.84375 
Q 19.1875 6.0625 25.203125 6.0625 
Q 31.25 6.0625 34.171875 8.515625 
Q 37.109375 10.984375 37.109375 14.3125 
Q 37.109375 17.28125 34.515625 19 
Q 32.71875 20.171875 25.53125 21.96875 
Q 15.875 24.421875 12.140625 26.203125 
Q 8.40625 27.984375 6.46875 31.125 
Q 4.546875 34.28125 4.546875 38.09375 
Q 4.546875 41.546875 6.125 44.5 
Q 7.71875 47.46875 10.453125 49.421875 
Q 12.5 50.921875 16.03125 51.96875 
Q 19.578125 53.03125 23.640625 53.03125 
Q 29.734375 53.03125 34.34375 51.265625 
Q 38.96875 49.515625 41.15625 46.5 
Q 43.359375 43.5 44.1875 38.484375 
L 35.59375 37.3125 
Q 35.015625 41.3125 32.203125 43.546875 
Q 29.390625 45.796875 24.265625 45.796875 
Q 18.21875 45.796875 15.625 43.796875 
Q 13.03125 41.796875 13.03125 39.109375 
Q 13.03125 37.40625 14.109375 36.03125 
Q 15.1875 34.625 17.484375 33.6875 
Q 18.796875 33.203125 25.25 31.453125 
Q 34.578125 28.953125 38.25 27.359375 
Q 41.9375 25.78125 44.03125 22.75 
Q 46.140625 19.734375 46.140625 15.234375 
Q 46.140625 10.84375 43.578125 6.953125 
Q 41.015625 3.078125 36.171875 0.953125 
Q 31.34375 -1.171875 25.25 -1.171875 
Q 15.140625 -1.171875 9.84375 3.03125 
Q 4.546875 7.234375 3.078125 15.484375 
z
" id="ArialMT-115"/>
      <path d="M 25.78125 7.859375 
L 27.046875 0.09375 
Q 23.34375 -0.6875 20.40625 -0.6875 
Q 15.625 -0.6875 12.984375 0.828125 
Q 10.359375 2.34375 9.28125 4.8125 
Q 8.203125 7.28125 8.203125 15.1875 
L 8.203125 45.015625 
L 1.765625 45.015625 
L 1.765625 51.859375 
L 8.203125 51.859375 
L 8.203125 64.703125 
L 16.9375 69.96875 
L 16.9375 51.859375 
L 25.78125 51.859375 
L 25.78125 45.015625 
L 16.9375 45.015625 
L 16.9375 14.703125 
Q 16.9375 10.9375 17.40625 9.859375 
Q 17.875 8.796875 18.921875 8.15625 
Q 19.96875 7.515625 21.921875 7.515625 
Q 23.390625 7.515625 25.78125 7.859375 
z
" id="ArialMT-116"/>
      <path d="M 6.5 0 
L 6.5 51.859375 
L 14.40625 51.859375 
L 14.40625 44 
Q 17.4375 49.515625 20 51.265625 
Q 22.5625 53.03125 25.640625 53.03125 
Q 30.078125 53.03125 34.671875 50.203125 
L 31.640625 42.046875 
Q 28.421875 43.953125 25.203125 43.953125 
Q 22.3125 43.953125 20.015625 42.21875 
Q 17.71875 40.484375 16.75 37.40625 
Q 15.28125 32.71875 15.28125 27.15625 
L 15.28125 0 
z
" id="ArialMT-114"/>
      <path d="M 14.703125 0 
L 6.546875 0 
L 6.546875 71.578125 
L 15.328125 71.578125 
L 15.328125 46.046875 
Q 20.90625 53.03125 29.546875 53.03125 
Q 34.328125 53.03125 38.59375 51.09375 
Q 42.875 49.171875 45.625 45.671875 
Q 48.390625 42.1875 49.953125 37.25 
Q 51.515625 32.328125 51.515625 26.703125 
Q 51.515625 13.375 44.921875 6.09375 
Q 38.328125 -1.171875 29.109375 -1.171875 
Q 19.921875 -1.171875 14.703125 6.5 
z
M 14.59375 26.3125 
Q 14.59375 17 17.140625 12.84375 
Q 21.296875 6.0625 28.375 6.0625 
Q 34.125 6.0625 38.328125 11.0625 
Q 42.53125 16.0625 42.53125 25.984375 
Q 42.53125 36.140625 38.5 40.96875 
Q 34.46875 45.796875 28.765625 45.796875 
Q 23 45.796875 18.796875 40.796875 
Q 14.59375 35.796875 14.59375 26.3125 
z
" id="ArialMT-98"/>
      <path d="M 40.578125 0 
L 40.578125 7.625 
Q 34.515625 -1.171875 24.125 -1.171875 
Q 19.53125 -1.171875 15.546875 0.578125 
Q 11.578125 2.34375 9.640625 5 
Q 7.71875 7.671875 6.9375 11.53125 
Q 6.390625 14.109375 6.390625 19.734375 
L 6.390625 51.859375 
L 15.1875 51.859375 
L 15.1875 23.09375 
Q 15.1875 16.21875 15.71875 13.8125 
Q 16.546875 10.359375 19.234375 8.375 
Q 21.921875 6.390625 25.875 6.390625 
Q 29.828125 6.390625 33.296875 8.421875 
Q 36.765625 10.453125 38.203125 13.9375 
Q 39.65625 17.4375 39.65625 24.078125 
L 39.65625 51.859375 
L 48.4375 51.859375 
L 48.4375 0 
z
" id="ArialMT-117"/>
     </defs>
     <g style="fill:#262626;" transform="translate(106.174805 180.792891)rotate(-90)scale(0.15 -0.15)">
      <use xlink:href="#ArialMT-68"/>
      <use x="72.216797" xlink:href="#ArialMT-105"/>
      <use x="94.433594" xlink:href="#ArialMT-115"/>
      <use x="144.433594" xlink:href="#ArialMT-116"/>
      <use x="172.216797" xlink:href="#ArialMT-114"/>
      <use x="205.517578" xlink:href="#ArialMT-105"/>
      <use x="227.734375" xlink:href="#ArialMT-98"/>
      <use x="283.349609" xlink:href="#ArialMT-117"/>
      <use x="338.964844" xlink:href="#ArialMT-116"/>
      <use x="366.748047" xlink:href="#ArialMT-105"/>
      <use x="388.964844" xlink:href="#ArialMT-111"/>
      <use x="444.580078" xlink:href="#ArialMT-110"/>
     </g>
    </g>
   </g>
   <g id="patch_3">
    <path clip-path="url(#p4522fed061)" d="M 242.751727 252 
L 264.922732 252 
L 264.922732 177.014114 
L 242.751727 177.014114 
z
" style="fill:#c44e52;opacity:0.4;stroke:#ffffff;stroke-linejoin:miter;"/>
   </g>
   <g id="patch_4">
    <path clip-path="url(#p4522fed061)" d="M 264.922732 252 
L 287.093738 252 
L 287.093738 178.971577 
L 264.922732 178.971577 
z
" style="fill:#c44e52;opacity:0.4;stroke:#ffffff;stroke-linejoin:miter;"/>
   </g>
   <g id="patch_5">
    <path clip-path="url(#p4522fed061)" d="M 287.093738 252 
L 309.264743 252 
L 309.264743 138.01543 
L 287.093738 138.01543 
z
" style="fill:#c44e52;opacity:0.4;stroke:#ffffff;stroke-linejoin:miter;"/>
   </g>
   <g id="patch_6">
    <path clip-path="url(#p4522fed061)" d="M 309.264743 252 
L 331.435748 252 
L 331.435748 127.926967 
L 309.264743 127.926967 
z
" style="fill:#c44e52;opacity:0.4;stroke:#ffffff;stroke-linejoin:miter;"/>
   </g>
   <g id="patch_7">
    <path clip-path="url(#p4522fed061)" d="M 331.435748 252 
L 353.606753 252 
L 353.606753 111.664968 
L 331.435748 111.664968 
z
" style="fill:#c44e52;opacity:0.4;stroke:#ffffff;stroke-linejoin:miter;"/>
   </g>
   <g id="patch_8">
    <path clip-path="url(#p4522fed061)" d="M 353.606753 252 
L 375.777759 252 
L 375.777759 135.154523 
L 353.606753 135.154523 
z
" style="fill:#c44e52;opacity:0.4;stroke:#ffffff;stroke-linejoin:miter;"/>
   </g>
   <g id="patch_9">
    <path clip-path="url(#p4522fed061)" d="M 375.777759 252 
L 397.948764 252 
L 397.948764 154.277429 
L 375.777759 154.277429 
z
" style="fill:#c44e52;opacity:0.4;stroke:#ffffff;stroke-linejoin:miter;"/>
   </g>
   <g id="patch_10">
    <path clip-path="url(#p4522fed061)" d="M 397.948764 252 
L 420.119769 252 
L 420.119769 167.527947 
L 397.948764 167.527947 
z
" style="fill:#c44e52;opacity:0.4;stroke:#ffffff;stroke-linejoin:miter;"/>
   </g>
   <g id="patch_11">
    <path clip-path="url(#p4522fed061)" d="M 420.119769 252 
L 442.290774 252 
L 442.290774 200.051946 
L 420.119769 200.051946 
z
" style="fill:#c44e52;opacity:0.4;stroke:#ffffff;stroke-linejoin:miter;"/>
   </g>
   <g id="patch_12">
    <path clip-path="url(#p4522fed061)" d="M 442.290774 252 
L 464.46178 252 
L 464.46178 206.526631 
L 442.290774 206.526631 
z
" style="fill:#c44e52;opacity:0.4;stroke:#ffffff;stroke-linejoin:miter;"/>
   </g>
   <g id="line2d_13">
    <path clip-path="url(#p4522fed061)" d="M 213.897999 251.888535 
L 216.720398 251.71972 
L 219.542797 251.348795 
L 222.365196 250.600638 
L 225.187595 249.215576 
L 228.009994 246.862438 
L 230.832393 243.194266 
L 233.654792 237.948757 
L 236.477192 231.069239 
L 239.299591 222.796821 
L 242.12199 213.680231 
L 244.944389 204.478421 
L 247.766788 195.982091 
L 250.589187 188.823474 
L 253.411586 183.350064 
L 256.233985 179.602601 
L 259.056384 177.384134 
L 261.878783 176.368723 
L 264.701182 176.193847 
L 267.523581 176.50485 
L 270.345981 176.953159 
L 273.16838 177.174405 
L 275.990779 176.779565 
L 278.813178 175.382834 
L 281.635577 172.669956 
L 284.457976 168.488071 
L 287.280375 162.921584 
L 290.102774 156.316373 
L 292.925173 149.230921 
L 295.747572 142.322626 
L 298.569971 136.206363 
L 301.39237 131.334146 
L 304.21477 127.932406 
L 307.037169 126.005168 
L 309.859568 125.384152 
L 312.681967 125.794518 
L 315.504366 126.909648 
L 318.326765 128.382304 
L 321.149164 129.853559 
L 323.971563 130.951395 
L 326.793962 131.298128 
L 329.616361 130.548537 
L 332.43876 128.471923 
L 335.261159 125.066 
L 338.083559 120.656112 
L 340.905958 115.913257 
L 343.728357 111.743446 
L 346.550756 109.06016 
L 349.373155 108.519253 
L 352.195554 110.326524 
L 355.017953 114.197957 
L 357.840352 119.479147 
L 360.662751 125.35964 
L 363.48515 131.090327 
L 366.307549 136.13461 
L 369.129948 140.230994 
L 371.952347 143.381758 
L 374.774747 145.792799 
L 377.597146 147.78279 
L 380.419545 149.675496 
L 383.241944 151.697569 
L 386.064343 153.915399 
L 388.886742 156.240386 
L 391.709141 158.504798 
L 394.53154 160.574106 
L 397.353939 162.44091 
L 400.176338 164.255208 
L 402.998737 166.278815 
L 405.821136 168.787054 
L 408.643536 171.960197 
L 411.465935 175.806261 
L 414.288334 180.14176 
L 417.110733 184.636105 
L 419.933132 188.903975 
L 422.755531 192.613463 
L 425.57793 195.572321 
L 428.400329 197.763984 
L 431.222728 199.326124 
L 434.045127 200.487704 
L 436.867526 201.495099 
L 439.689925 202.557839 
L 442.512325 203.830973 
L 445.334724 205.430858 
L 448.157123 207.464144 
L 450.979522 210.043934 
L 453.801921 213.275415 
L 456.62432 217.211694 
L 459.446719 221.800108 
L 462.269118 226.84965 
L 465.091517 232.044434 
L 467.913916 237.007178 
L 470.736315 241.39084 
L 473.558714 244.961135 
L 476.381114 247.637503 
L 479.203513 249.481942 
L 482.025912 250.64968 
L 484.848311 251.328569 
L 487.67071 251.690911 
L 490.493109 251.868433 
L 493.315508 251.948268 
" style="fill:none;stroke:#c44e52;stroke-linecap:round;stroke-width:1.5;"/>
   </g>
   <g id="patch_13">
    <path d="M 180 252 
L 180 34.56 
" style="fill:none;stroke:#cccccc;stroke-linecap:square;stroke-linejoin:miter;stroke-width:1.25;"/>
   </g>
   <g id="patch_14">
    <path d="M 508.235294 252 
L 508.235294 34.56 
" style="fill:none;stroke:#cccccc;stroke-linecap:square;stroke-linejoin:miter;stroke-width:1.25;"/>
   </g>
   <g id="patch_15">
    <path d="M 180 252 
L 508.235294 252 
" style="fill:none;stroke:#cccccc;stroke-linecap:square;stroke-linejoin:miter;stroke-width:1.25;"/>
   </g>
   <g id="patch_16">
    <path d="M 180 34.56 
L 508.235294 34.56 
" style="fill:none;stroke:#cccccc;stroke-linecap:square;stroke-linejoin:miter;stroke-width:1.25;"/>
   </g>
   <g id="text_15">
    <!-- Female's Income Distribution -->
    <defs>
     <path d="M 8.203125 0 
L 8.203125 71.578125 
L 56.5 71.578125 
L 56.5 63.140625 
L 17.671875 63.140625 
L 17.671875 40.96875 
L 51.265625 40.96875 
L 51.265625 32.515625 
L 17.671875 32.515625 
L 17.671875 0 
z
" id="ArialMT-70"/>
     <path d="M 40.4375 6.390625 
Q 35.546875 2.25 31.03125 0.53125 
Q 26.515625 -1.171875 21.34375 -1.171875 
Q 12.796875 -1.171875 8.203125 3 
Q 3.609375 7.171875 3.609375 13.671875 
Q 3.609375 17.484375 5.34375 20.625 
Q 7.078125 23.78125 9.890625 25.6875 
Q 12.703125 27.59375 16.21875 28.5625 
Q 18.796875 29.25 24.03125 29.890625 
Q 34.671875 31.15625 39.703125 32.90625 
Q 39.75 34.71875 39.75 35.203125 
Q 39.75 40.578125 37.25 42.78125 
Q 33.890625 45.75 27.25 45.75 
Q 21.046875 45.75 18.09375 43.578125 
Q 15.140625 41.40625 13.71875 35.890625 
L 5.125 37.0625 
Q 6.296875 42.578125 8.984375 45.96875 
Q 11.671875 49.359375 16.75 51.1875 
Q 21.828125 53.03125 28.515625 53.03125 
Q 35.15625 53.03125 39.296875 51.46875 
Q 43.453125 49.90625 45.40625 47.53125 
Q 47.359375 45.171875 48.140625 41.546875 
Q 48.578125 39.3125 48.578125 33.453125 
L 48.578125 21.734375 
Q 48.578125 9.46875 49.140625 6.21875 
Q 49.703125 2.984375 51.375 0 
L 42.1875 0 
Q 40.828125 2.734375 40.4375 6.390625 
z
M 39.703125 26.03125 
Q 34.90625 24.078125 25.34375 22.703125 
Q 19.921875 21.921875 17.671875 20.9375 
Q 15.4375 19.96875 14.203125 18.09375 
Q 12.984375 16.21875 12.984375 13.921875 
Q 12.984375 10.40625 15.640625 8.0625 
Q 18.3125 5.71875 23.4375 5.71875 
Q 28.515625 5.71875 32.46875 7.9375 
Q 36.421875 10.15625 38.28125 14.015625 
Q 39.703125 17 39.703125 22.796875 
z
" id="ArialMT-97"/>
     <path d="M 6.390625 0 
L 6.390625 71.578125 
L 15.1875 71.578125 
L 15.1875 0 
z
" id="ArialMT-108"/>
     <path d="M 6.640625 46.234375 
L 4.390625 59.625 
L 4.390625 71.578125 
L 14.40625 71.578125 
L 14.40625 59.625 
L 12.0625 46.234375 
z
" id="ArialMT-39"/>
     <path id="ArialMT-32"/>
    </defs>
    <g style="fill:#262626;" transform="translate(247.655928 28.56)scale(0.15 -0.15)">
     <use xlink:href="#ArialMT-70"/>
     <use x="61.083984" xlink:href="#ArialMT-101"/>
     <use x="116.699219" xlink:href="#ArialMT-109"/>
     <use x="200" xlink:href="#ArialMT-97"/>
     <use x="255.615234" xlink:href="#ArialMT-108"/>
     <use x="277.832031" xlink:href="#ArialMT-101"/>
     <use x="333.447266" xlink:href="#ArialMT-39"/>
     <use x="352.539062" xlink:href="#ArialMT-115"/>
     <use x="402.539062" xlink:href="#ArialMT-32"/>
     <use x="430.322266" xlink:href="#ArialMT-73"/>
     <use x="458.105469" xlink:href="#ArialMT-110"/>
     <use x="513.720703" xlink:href="#ArialMT-99"/>
     <use x="563.720703" xlink:href="#ArialMT-111"/>
     <use x="619.335938" xlink:href="#ArialMT-109"/>
     <use x="702.636719" xlink:href="#ArialMT-101"/>
     <use x="758.251953" xlink:href="#ArialMT-32"/>
     <use x="786.035156" xlink:href="#ArialMT-68"/>
     <use x="858.251953" xlink:href="#ArialMT-105"/>
     <use x="880.46875" xlink:href="#ArialMT-115"/>
     <use x="930.46875" xlink:href="#ArialMT-116"/>
     <use x="958.251953" xlink:href="#ArialMT-114"/>
     <use x="991.552734" xlink:href="#ArialMT-105"/>
     <use x="1013.769531" xlink:href="#ArialMT-98"/>
     <use x="1069.384766" xlink:href="#ArialMT-117"/>
     <use x="1125" xlink:href="#ArialMT-116"/>
     <use x="1152.783203" xlink:href="#ArialMT-105"/>
     <use x="1175" xlink:href="#ArialMT-111"/>
     <use x="1230.615234" xlink:href="#ArialMT-110"/>
    </g>
   </g>
  </g>
  <g id="axes_2">
   <g id="patch_17">
    <path d="M 573.882353 252 
L 902.117647 252 
L 902.117647 34.56 
L 573.882353 34.56 
z
" style="fill:#ffffff;"/>
   </g>
   <g id="matplotlib.axis_3">
    <g id="xtick_7">
     <g id="line2d_14">
      <path clip-path="url(#p47f3d4aded)" d="M 611.99963 252 
L 611.99963 34.56 
" style="fill:none;stroke:#cccccc;stroke-linecap:round;"/>
     </g>
     <g id="text_16">
      <!-- 20000 -->
      <g style="fill:#262626;" transform="translate(592.883907 271.341992)scale(0.1375 -0.1375)">
       <use xlink:href="#ArialMT-50"/>
       <use x="55.615234" xlink:href="#ArialMT-48"/>
       <use x="111.230469" xlink:href="#ArialMT-48"/>
       <use x="166.845703" xlink:href="#ArialMT-48"/>
       <use x="222.460938" xlink:href="#ArialMT-48"/>
      </g>
     </g>
    </g>
    <g id="xtick_8">
     <g id="line2d_15">
      <path clip-path="url(#p47f3d4aded)" d="M 661.26853 252 
L 661.26853 34.56 
" style="fill:none;stroke:#cccccc;stroke-linecap:round;"/>
     </g>
     <g id="text_17">
      <!-- 40000 -->
      <g style="fill:#262626;" transform="translate(642.152808 271.341992)scale(0.1375 -0.1375)">
       <use xlink:href="#ArialMT-52"/>
       <use x="55.615234" xlink:href="#ArialMT-48"/>
       <use x="111.230469" xlink:href="#ArialMT-48"/>
       <use x="166.845703" xlink:href="#ArialMT-48"/>
       <use x="222.460938" xlink:href="#ArialMT-48"/>
      </g>
     </g>
    </g>
    <g id="xtick_9">
     <g id="line2d_16">
      <path clip-path="url(#p47f3d4aded)" d="M 710.537431 252 
L 710.537431 34.56 
" style="fill:none;stroke:#cccccc;stroke-linecap:round;"/>
     </g>
     <g id="text_18">
      <!-- 60000 -->
      <g style="fill:#262626;" transform="translate(691.421708 271.341992)scale(0.1375 -0.1375)">
       <use xlink:href="#ArialMT-54"/>
       <use x="55.615234" xlink:href="#ArialMT-48"/>
       <use x="111.230469" xlink:href="#ArialMT-48"/>
       <use x="166.845703" xlink:href="#ArialMT-48"/>
       <use x="222.460938" xlink:href="#ArialMT-48"/>
      </g>
     </g>
    </g>
    <g id="xtick_10">
     <g id="line2d_17">
      <path clip-path="url(#p47f3d4aded)" d="M 759.806332 252 
L 759.806332 34.56 
" style="fill:none;stroke:#cccccc;stroke-linecap:round;"/>
     </g>
     <g id="text_19">
      <!-- 80000 -->
      <g style="fill:#262626;" transform="translate(740.690609 271.341992)scale(0.1375 -0.1375)">
       <use xlink:href="#ArialMT-56"/>
       <use x="55.615234" xlink:href="#ArialMT-48"/>
       <use x="111.230469" xlink:href="#ArialMT-48"/>
       <use x="166.845703" xlink:href="#ArialMT-48"/>
       <use x="222.460938" xlink:href="#ArialMT-48"/>
      </g>
     </g>
    </g>
    <g id="xtick_11">
     <g id="line2d_18">
      <path clip-path="url(#p47f3d4aded)" d="M 809.075232 252 
L 809.075232 34.56 
" style="fill:none;stroke:#cccccc;stroke-linecap:round;"/>
     </g>
     <g id="text_20">
      <!-- 100000 -->
      <g style="fill:#262626;" transform="translate(786.136365 271.341992)scale(0.1375 -0.1375)">
       <use xlink:href="#ArialMT-49"/>
       <use x="55.615234" xlink:href="#ArialMT-48"/>
       <use x="111.230469" xlink:href="#ArialMT-48"/>
       <use x="166.845703" xlink:href="#ArialMT-48"/>
       <use x="222.460938" xlink:href="#ArialMT-48"/>
       <use x="278.076172" xlink:href="#ArialMT-48"/>
      </g>
     </g>
    </g>
    <g id="xtick_12">
     <g id="line2d_19">
      <path clip-path="url(#p47f3d4aded)" d="M 858.344133 252 
L 858.344133 34.56 
" style="fill:none;stroke:#cccccc;stroke-linecap:round;"/>
     </g>
     <g id="text_21">
      <!-- 120000 -->
      <g style="fill:#262626;" transform="translate(835.405265 271.341992)scale(0.1375 -0.1375)">
       <use xlink:href="#ArialMT-49"/>
       <use x="55.615234" xlink:href="#ArialMT-50"/>
       <use x="111.230469" xlink:href="#ArialMT-48"/>
       <use x="166.845703" xlink:href="#ArialMT-48"/>
       <use x="222.460938" xlink:href="#ArialMT-48"/>
       <use x="278.076172" xlink:href="#ArialMT-48"/>
      </g>
     </g>
    </g>
    <g id="text_22">
     <!-- Income($) -->
     <g style="fill:#262626;" transform="translate(704.241797 289.800586)scale(0.15 -0.15)">
      <use xlink:href="#ArialMT-73"/>
      <use x="27.783203" xlink:href="#ArialMT-110"/>
      <use x="83.398438" xlink:href="#ArialMT-99"/>
      <use x="133.398438" xlink:href="#ArialMT-111"/>
      <use x="189.013672" xlink:href="#ArialMT-109"/>
      <use x="272.314453" xlink:href="#ArialMT-101"/>
      <use x="327.929688" xlink:href="#ArialMT-40"/>
      <use x="361.230469" xlink:href="#ArialMT-36"/>
      <use x="416.845703" xlink:href="#ArialMT-41"/>
     </g>
    </g>
   </g>
   <g id="matplotlib.axis_4">
    <g id="ytick_7">
     <g id="line2d_20">
      <path clip-path="url(#p47f3d4aded)" d="M 573.882353 252 
L 902.117647 252 
" style="fill:none;stroke:#cccccc;stroke-linecap:round;"/>
     </g>
    </g>
    <g id="ytick_8">
     <g id="line2d_21">
      <path clip-path="url(#p47f3d4aded)" d="M 573.882353 210.470919 
L 902.117647 210.470919 
" style="fill:none;stroke:#cccccc;stroke-linecap:round;"/>
     </g>
    </g>
    <g id="ytick_9">
     <g id="line2d_22">
      <path clip-path="url(#p47f3d4aded)" d="M 573.882353 168.941838 
L 902.117647 168.941838 
" style="fill:none;stroke:#cccccc;stroke-linecap:round;"/>
     </g>
    </g>
    <g id="ytick_10">
     <g id="line2d_23">
      <path clip-path="url(#p47f3d4aded)" d="M 573.882353 127.412757 
L 902.117647 127.412757 
" style="fill:none;stroke:#cccccc;stroke-linecap:round;"/>
     </g>
    </g>
    <g id="ytick_11">
     <g id="line2d_24">
      <path clip-path="url(#p47f3d4aded)" d="M 573.882353 85.883676 
L 902.117647 85.883676 
" style="fill:none;stroke:#cccccc;stroke-linecap:round;"/>
     </g>
    </g>
    <g id="ytick_12">
     <g id="line2d_25">
      <path clip-path="url(#p47f3d4aded)" d="M 573.882353 44.354595 
L 902.117647 44.354595 
" style="fill:none;stroke:#cccccc;stroke-linecap:round;"/>
     </g>
    </g>
   </g>
   <g id="patch_18">
    <path clip-path="url(#p47f3d4aded)" d="M 636.63408 252 
L 658.805085 252 
L 658.805085 120.814312 
L 636.63408 120.814312 
z
" style="fill:#8172b3;opacity:0.4;stroke:#ffffff;stroke-linejoin:miter;"/>
   </g>
   <g id="patch_19">
    <path clip-path="url(#p47f3d4aded)" d="M 658.805085 252 
L 680.976091 252 
L 680.976091 121.031868 
L 658.805085 121.031868 
z
" style="fill:#8172b3;opacity:0.4;stroke:#ffffff;stroke-linejoin:miter;"/>
   </g>
   <g id="patch_20">
    <path clip-path="url(#p47f3d4aded)" d="M 680.976091 252 
L 703.147096 252 
L 703.147096 95.034041 
L 680.976091 95.034041 
z
" style="fill:#8172b3;opacity:0.4;stroke:#ffffff;stroke-linejoin:miter;"/>
   </g>
   <g id="patch_21">
    <path clip-path="url(#p47f3d4aded)" d="M 703.147096 252 
L 725.318101 252 
L 725.318101 105.803015 
L 703.147096 105.803015 
z
" style="fill:#8172b3;opacity:0.4;stroke:#ffffff;stroke-linejoin:miter;"/>
   </g>
   <g id="patch_22">
    <path clip-path="url(#p47f3d4aded)" d="M 725.318101 252 
L 747.489106 252 
L 747.489106 101.234359 
L 725.318101 101.234359 
z
" style="fill:#8172b3;opacity:0.4;stroke:#ffffff;stroke-linejoin:miter;"/>
   </g>
   <g id="patch_23">
    <path clip-path="url(#p47f3d4aded)" d="M 747.489106 252 
L 769.660112 252 
L 769.660112 182.708721 
L 747.489106 182.708721 
z
" style="fill:#8172b3;opacity:0.4;stroke:#ffffff;stroke-linejoin:miter;"/>
   </g>
   <g id="patch_24">
    <path clip-path="url(#p47f3d4aded)" d="M 769.660112 252 
L 791.831117 252 
L 791.831117 193.69525 
L 769.660112 193.69525 
z
" style="fill:#8172b3;opacity:0.4;stroke:#ffffff;stroke-linejoin:miter;"/>
   </g>
   <g id="patch_25">
    <path clip-path="url(#p47f3d4aded)" d="M 791.831117 252 
L 814.002122 252 
L 814.002122 206.639775 
L 791.831117 206.639775 
z
" style="fill:#8172b3;opacity:0.4;stroke:#ffffff;stroke-linejoin:miter;"/>
   </g>
   <g id="patch_26">
    <path clip-path="url(#p47f3d4aded)" d="M 814.002122 252 
L 836.173127 252 
L 836.173127 235.35704 
L 814.002122 235.35704 
z
" style="fill:#8172b3;opacity:0.4;stroke:#ffffff;stroke-linejoin:miter;"/>
   </g>
   <g id="patch_27">
    <path clip-path="url(#p47f3d4aded)" d="M 836.173127 252 
L 858.344133 252 
L 858.344133 234.813152 
L 836.173127 234.813152 
z
" style="fill:#8172b3;opacity:0.4;stroke:#ffffff;stroke-linejoin:miter;"/>
   </g>
   <g id="line2d_26">
    <path clip-path="url(#p47f3d4aded)" d="M 612.342524 251.804131 
L 615.072758 251.442116 
L 617.802992 250.566413 
L 620.533226 248.671039 
L 623.26346 245.000664 
L 625.993694 238.642389 
L 628.723928 228.791724 
L 631.454162 215.149149 
L 634.184396 198.271202 
L 636.91463 179.640167 
L 639.644864 161.323527 
L 642.375098 145.33504 
L 645.105332 133.012526 
L 647.835566 124.724391 
L 650.5658 120.003409 
L 653.296034 117.950382 
L 656.026268 117.637952 
L 658.756502 118.32616 
L 661.486736 119.475698 
L 664.21697 120.668843 
L 666.947204 121.550319 
L 669.677438 121.819479 
L 672.407672 121.237624 
L 675.137906 119.621671 
L 677.86814 116.849638 
L 680.598374 112.922506 
L 683.328608 108.070709 
L 686.058842 102.816656 
L 688.789076 97.900941 
L 691.51931 94.072412 
L 694.249544 91.84959 
L 696.979778 91.382601 
L 699.710012 92.468128 
L 702.440246 94.673568 
L 705.17048 97.487635 
L 707.900714 100.438236 
L 710.630948 103.158957 
L 713.361182 105.409705 
L 716.091416 107.064595 
L 718.82165 108.082339 
L 721.551884 108.476235 
L 724.282118 108.303199 
L 727.012351 107.690987 
L 729.742585 106.909086 
L 732.472819 106.45295 
L 735.203053 107.067612 
L 737.933287 109.627675 
L 740.663521 114.854427 
L 743.393755 122.971289 
L 746.123989 133.490461 
L 748.854223 145.290967 
L 751.584457 156.983392 
L 754.314691 167.373593 
L 757.044925 175.782851 
L 759.775159 182.096361 
L 762.505393 186.591657 
L 765.235627 189.69994 
L 767.965861 191.827253 
L 770.696095 193.274793 
L 773.426329 194.235469 
L 776.156563 194.831077 
L 778.886797 195.161675 
L 781.617031 195.342836 
L 784.347265 195.514238 
L 787.077499 195.823529 
L 789.807733 196.409829 
L 792.537967 197.409306 
L 795.268201 198.977133 
L 797.998435 201.289606 
L 800.728669 204.490727 
L 803.458903 208.590396 
L 806.189137 213.376469 
L 808.919371 218.417878 
L 811.649605 223.184693 
L 814.379839 227.227658 
L 817.110073 230.314209 
L 819.840307 232.450702 
L 822.570541 233.802451 
L 825.300775 234.584085 
L 828.031009 234.988637 
L 830.761243 235.172484 
L 833.491477 235.267747 
L 836.221711 235.388565 
L 838.951945 235.62364 
L 841.682179 236.031077 
L 844.412413 236.649932 
L 847.142647 237.52152 
L 849.872881 238.696538 
L 852.603115 240.210984 
L 855.333349 242.041393 
L 858.063583 244.073875 
L 860.793817 246.11791 
L 863.524051 247.964877 
L 866.254285 249.458601 
L 868.984519 250.538164 
L 871.714753 251.235122 
L 874.444987 251.637073 
L 877.175221 251.844207 
L 879.905455 251.93961 
L 882.635689 251.978893 
" style="fill:none;stroke:#8172b3;stroke-linecap:round;stroke-width:1.5;"/>
   </g>
   <g id="patch_28">
    <path d="M 573.882353 252 
L 573.882353 34.56 
" style="fill:none;stroke:#cccccc;stroke-linecap:square;stroke-linejoin:miter;stroke-width:1.25;"/>
   </g>
   <g id="patch_29">
    <path d="M 902.117647 252 
L 902.117647 34.56 
" style="fill:none;stroke:#cccccc;stroke-linecap:square;stroke-linejoin:miter;stroke-width:1.25;"/>
   </g>
   <g id="patch_30">
    <path d="M 573.882353 252 
L 902.117647 252 
" style="fill:none;stroke:#cccccc;stroke-linecap:square;stroke-linejoin:miter;stroke-width:1.25;"/>
   </g>
   <g id="patch_31">
    <path d="M 573.882353 34.56 
L 902.117647 34.56 
" style="fill:none;stroke:#cccccc;stroke-linecap:square;stroke-linejoin:miter;stroke-width:1.25;"/>
   </g>
   <g id="text_23">
    <!-- Male's Income Distribution -->
    <defs>
     <path d="M 7.421875 0 
L 7.421875 71.578125 
L 21.6875 71.578125 
L 38.625 20.90625 
Q 40.96875 13.8125 42.046875 10.296875 
Q 43.265625 14.203125 45.84375 21.78125 
L 62.984375 71.578125 
L 75.734375 71.578125 
L 75.734375 0 
L 66.609375 0 
L 66.609375 59.90625 
L 45.796875 0 
L 37.25 0 
L 16.546875 60.9375 
L 16.546875 0 
z
" id="ArialMT-77"/>
    </defs>
    <g style="fill:#262626;" transform="translate(650.289844 28.56)scale(0.15 -0.15)">
     <use xlink:href="#ArialMT-77"/>
     <use x="83.300781" xlink:href="#ArialMT-97"/>
     <use x="138.916016" xlink:href="#ArialMT-108"/>
     <use x="161.132812" xlink:href="#ArialMT-101"/>
     <use x="216.748047" xlink:href="#ArialMT-39"/>
     <use x="235.839844" xlink:href="#ArialMT-115"/>
     <use x="285.839844" xlink:href="#ArialMT-32"/>
     <use x="313.623047" xlink:href="#ArialMT-73"/>
     <use x="341.40625" xlink:href="#ArialMT-110"/>
     <use x="397.021484" xlink:href="#ArialMT-99"/>
     <use x="447.021484" xlink:href="#ArialMT-111"/>
     <use x="502.636719" xlink:href="#ArialMT-109"/>
     <use x="585.9375" xlink:href="#ArialMT-101"/>
     <use x="641.552734" xlink:href="#ArialMT-32"/>
     <use x="669.335938" xlink:href="#ArialMT-68"/>
     <use x="741.552734" xlink:href="#ArialMT-105"/>
     <use x="763.769531" xlink:href="#ArialMT-115"/>
     <use x="813.769531" xlink:href="#ArialMT-116"/>
     <use x="841.552734" xlink:href="#ArialMT-114"/>
     <use x="874.853516" xlink:href="#ArialMT-105"/>
     <use x="897.070312" xlink:href="#ArialMT-98"/>
     <use x="952.685547" xlink:href="#ArialMT-117"/>
     <use x="1008.300781" xlink:href="#ArialMT-116"/>
     <use x="1036.083984" xlink:href="#ArialMT-105"/>
     <use x="1058.300781" xlink:href="#ArialMT-111"/>
     <use x="1113.916016" xlink:href="#ArialMT-110"/>
    </g>
   </g>
  </g>
  <g id="axes_3">
   <g id="patch_32">
    <path d="M 967.764706 252 
L 1296 252 
L 1296 34.56 
L 967.764706 34.56 
z
" style="fill:#ffffff;"/>
   </g>
   <g id="matplotlib.axis_5">
    <g id="xtick_13">
     <g id="line2d_27">
      <path clip-path="url(#p3ec2948b41)" d="M 1005.881983 252 
L 1005.881983 34.56 
" style="fill:none;stroke:#cccccc;stroke-linecap:round;"/>
     </g>
     <g id="text_24">
      <!-- 20000 -->
      <g style="fill:#262626;" transform="translate(986.76626 271.341992)scale(0.1375 -0.1375)">
       <use xlink:href="#ArialMT-50"/>
       <use x="55.615234" xlink:href="#ArialMT-48"/>
       <use x="111.230469" xlink:href="#ArialMT-48"/>
       <use x="166.845703" xlink:href="#ArialMT-48"/>
       <use x="222.460938" xlink:href="#ArialMT-48"/>
      </g>
     </g>
    </g>
    <g id="xtick_14">
     <g id="line2d_28">
      <path clip-path="url(#p3ec2948b41)" d="M 1055.150883 252 
L 1055.150883 34.56 
" style="fill:none;stroke:#cccccc;stroke-linecap:round;"/>
     </g>
     <g id="text_25">
      <!-- 40000 -->
      <g style="fill:#262626;" transform="translate(1036.035161 271.341992)scale(0.1375 -0.1375)">
       <use xlink:href="#ArialMT-52"/>
       <use x="55.615234" xlink:href="#ArialMT-48"/>
       <use x="111.230469" xlink:href="#ArialMT-48"/>
       <use x="166.845703" xlink:href="#ArialMT-48"/>
       <use x="222.460938" xlink:href="#ArialMT-48"/>
      </g>
     </g>
    </g>
    <g id="xtick_15">
     <g id="line2d_29">
      <path clip-path="url(#p3ec2948b41)" d="M 1104.419784 252 
L 1104.419784 34.56 
" style="fill:none;stroke:#cccccc;stroke-linecap:round;"/>
     </g>
     <g id="text_26">
      <!-- 60000 -->
      <g style="fill:#262626;" transform="translate(1085.304061 271.341992)scale(0.1375 -0.1375)">
       <use xlink:href="#ArialMT-54"/>
       <use x="55.615234" xlink:href="#ArialMT-48"/>
       <use x="111.230469" xlink:href="#ArialMT-48"/>
       <use x="166.845703" xlink:href="#ArialMT-48"/>
       <use x="222.460938" xlink:href="#ArialMT-48"/>
      </g>
     </g>
    </g>
    <g id="xtick_16">
     <g id="line2d_30">
      <path clip-path="url(#p3ec2948b41)" d="M 1153.688684 252 
L 1153.688684 34.56 
" style="fill:none;stroke:#cccccc;stroke-linecap:round;"/>
     </g>
     <g id="text_27">
      <!-- 80000 -->
      <g style="fill:#262626;" transform="translate(1134.572962 271.341992)scale(0.1375 -0.1375)">
       <use xlink:href="#ArialMT-56"/>
       <use x="55.615234" xlink:href="#ArialMT-48"/>
       <use x="111.230469" xlink:href="#ArialMT-48"/>
       <use x="166.845703" xlink:href="#ArialMT-48"/>
       <use x="222.460938" xlink:href="#ArialMT-48"/>
      </g>
     </g>
    </g>
    <g id="xtick_17">
     <g id="line2d_31">
      <path clip-path="url(#p3ec2948b41)" d="M 1202.957585 252 
L 1202.957585 34.56 
" style="fill:none;stroke:#cccccc;stroke-linecap:round;"/>
     </g>
     <g id="text_28">
      <!-- 100000 -->
      <g style="fill:#262626;" transform="translate(1180.018718 271.341992)scale(0.1375 -0.1375)">
       <use xlink:href="#ArialMT-49"/>
       <use x="55.615234" xlink:href="#ArialMT-48"/>
       <use x="111.230469" xlink:href="#ArialMT-48"/>
       <use x="166.845703" xlink:href="#ArialMT-48"/>
       <use x="222.460938" xlink:href="#ArialMT-48"/>
       <use x="278.076172" xlink:href="#ArialMT-48"/>
      </g>
     </g>
    </g>
    <g id="xtick_18">
     <g id="line2d_32">
      <path clip-path="url(#p3ec2948b41)" d="M 1252.226486 252 
L 1252.226486 34.56 
" style="fill:none;stroke:#cccccc;stroke-linecap:round;"/>
     </g>
     <g id="text_29">
      <!-- 120000 -->
      <g style="fill:#262626;" transform="translate(1229.287618 271.341992)scale(0.1375 -0.1375)">
       <use xlink:href="#ArialMT-49"/>
       <use x="55.615234" xlink:href="#ArialMT-50"/>
       <use x="111.230469" xlink:href="#ArialMT-48"/>
       <use x="166.845703" xlink:href="#ArialMT-48"/>
       <use x="222.460938" xlink:href="#ArialMT-48"/>
       <use x="278.076172" xlink:href="#ArialMT-48"/>
      </g>
     </g>
    </g>
    <g id="text_30">
     <!-- Income($) -->
     <g style="fill:#262626;" transform="translate(1098.12415 289.800586)scale(0.15 -0.15)">
      <use xlink:href="#ArialMT-73"/>
      <use x="27.783203" xlink:href="#ArialMT-110"/>
      <use x="83.398438" xlink:href="#ArialMT-99"/>
      <use x="133.398438" xlink:href="#ArialMT-111"/>
      <use x="189.013672" xlink:href="#ArialMT-109"/>
      <use x="272.314453" xlink:href="#ArialMT-101"/>
      <use x="327.929688" xlink:href="#ArialMT-40"/>
      <use x="361.230469" xlink:href="#ArialMT-36"/>
      <use x="416.845703" xlink:href="#ArialMT-41"/>
     </g>
    </g>
   </g>
   <g id="matplotlib.axis_6">
    <g id="ytick_13">
     <g id="line2d_33">
      <path clip-path="url(#p3ec2948b41)" d="M 967.764706 252 
L 1296 252 
" style="fill:none;stroke:#cccccc;stroke-linecap:round;"/>
     </g>
    </g>
    <g id="ytick_14">
     <g id="line2d_34">
      <path clip-path="url(#p3ec2948b41)" d="M 967.764706 210.470919 
L 1296 210.470919 
" style="fill:none;stroke:#cccccc;stroke-linecap:round;"/>
     </g>
    </g>
    <g id="ytick_15">
     <g id="line2d_35">
      <path clip-path="url(#p3ec2948b41)" d="M 967.764706 168.941838 
L 1296 168.941838 
" style="fill:none;stroke:#cccccc;stroke-linecap:round;"/>
     </g>
    </g>
    <g id="ytick_16">
     <g id="line2d_36">
      <path clip-path="url(#p3ec2948b41)" d="M 967.764706 127.412757 
L 1296 127.412757 
" style="fill:none;stroke:#cccccc;stroke-linecap:round;"/>
     </g>
    </g>
    <g id="ytick_17">
     <g id="line2d_37">
      <path clip-path="url(#p3ec2948b41)" d="M 967.764706 85.883676 
L 1296 85.883676 
" style="fill:none;stroke:#cccccc;stroke-linecap:round;"/>
     </g>
    </g>
    <g id="ytick_18">
     <g id="line2d_38">
      <path clip-path="url(#p3ec2948b41)" d="M 967.764706 44.354595 
L 1296 44.354595 
" style="fill:none;stroke:#cccccc;stroke-linecap:round;"/>
     </g>
    </g>
   </g>
   <g id="patch_33">
    <path clip-path="url(#p3ec2948b41)" d="M 1030.516433 252 
L 1047.760548 252 
L 1047.760548 128.867954 
L 1030.516433 128.867954 
z
" style="fill:#937860;opacity:0.4;stroke:#ffffff;stroke-linejoin:miter;"/>
   </g>
   <g id="patch_34">
    <path clip-path="url(#p3ec2948b41)" d="M 1047.760548 252 
L 1065.004663 252 
L 1065.004663 162.449421 
L 1047.760548 162.449421 
z
" style="fill:#937860;opacity:0.4;stroke:#ffffff;stroke-linejoin:miter;"/>
   </g>
   <g id="patch_35">
    <path clip-path="url(#p3ec2948b41)" d="M 1065.004663 252 
L 1082.248779 252 
L 1082.248779 173.643243 
L 1065.004663 173.643243 
z
" style="fill:#937860;opacity:0.4;stroke:#ffffff;stroke-linejoin:miter;"/>
   </g>
   <g id="patch_36">
    <path clip-path="url(#p3ec2948b41)" d="M 1082.248779 252 
L 1099.492894 252 
L 1099.492894 44.914286 
L 1082.248779 44.914286 
z
" style="fill:#937860;opacity:0.4;stroke:#ffffff;stroke-linejoin:miter;"/>
   </g>
   <g id="patch_37">
    <path clip-path="url(#p3ec2948b41)" d="M 1099.492894 252 
L 1116.737009 252 
L 1116.737009 100.883398 
L 1099.492894 100.883398 
z
" style="fill:#937860;opacity:0.4;stroke:#ffffff;stroke-linejoin:miter;"/>
   </g>
   <g id="patch_38">
    <path clip-path="url(#p3ec2948b41)" d="M 1116.737009 252 
L 1133.981124 252 
L 1133.981124 117.674131 
L 1116.737009 117.674131 
z
" style="fill:#937860;opacity:0.4;stroke:#ffffff;stroke-linejoin:miter;"/>
   </g>
   <g id="patch_39">
    <path clip-path="url(#p3ec2948b41)" d="M 1133.981124 252 
L 1151.225239 252 
L 1151.225239 162.449421 
L 1133.981124 162.449421 
z
" style="fill:#937860;opacity:0.4;stroke:#ffffff;stroke-linejoin:miter;"/>
   </g>
   <g id="patch_40">
    <path clip-path="url(#p3ec2948b41)" d="M 1151.225239 252 
L 1168.469355 252 
L 1168.469355 134.464865 
L 1151.225239 134.464865 
z
" style="fill:#937860;opacity:0.4;stroke:#ffffff;stroke-linejoin:miter;"/>
   </g>
   <g id="patch_41">
    <path clip-path="url(#p3ec2948b41)" d="M 1168.469355 252 
L 1185.71347 252 
L 1185.71347 123.271042 
L 1168.469355 123.271042 
z
" style="fill:#937860;opacity:0.4;stroke:#ffffff;stroke-linejoin:miter;"/>
   </g>
   <g id="patch_42">
    <path clip-path="url(#p3ec2948b41)" d="M 1185.71347 252 
L 1202.957585 252 
L 1202.957585 184.837066 
L 1185.71347 184.837066 
z
" style="fill:#937860;opacity:0.4;stroke:#ffffff;stroke-linejoin:miter;"/>
   </g>
   <g id="line2d_39">
    <path clip-path="url(#p3ec2948b41)" d="M 982.684492 251.753884 
L 985.392624 251.581781 
L 988.100755 251.308352 
L 990.808887 250.886642 
L 993.517019 250.255354 
L 996.22515 249.338262 
L 998.933282 248.045591 
L 1001.641414 246.278114 
L 1004.349545 243.93444 
L 1007.057677 240.921531 
L 1009.765809 237.167793 
L 1012.47394 232.637287 
L 1015.182072 227.342914 
L 1017.890204 221.355985 
L 1020.598335 214.809636 
L 1023.306467 207.894242 
L 1026.014599 200.844135 
L 1028.72273 193.916553 
L 1031.430862 187.365307 
L 1034.138993 181.412861 
L 1036.847125 176.225054 
L 1039.555257 171.892313 
L 1042.263388 168.420105 
L 1044.97152 165.729689 
L 1047.679652 163.668507 
L 1050.387783 162.028102 
L 1053.095915 160.566652 
L 1055.804047 159.033069 
L 1058.512178 157.190094 
L 1061.22031 154.834595 
L 1063.928442 151.814092 
L 1066.636573 148.039063 
L 1069.344705 143.490854 
L 1072.052837 138.224935 
L 1074.760968 132.369107 
L 1077.4691 126.11618 
L 1080.177232 119.7109 
L 1082.885363 113.431415 
L 1085.593495 107.566451 
L 1088.301627 102.390256 
L 1091.009758 98.13815 
L 1093.71789 94.985802 
L 1096.426022 93.035158 
L 1099.134153 92.308987 
L 1101.842285 92.754699 
L 1104.550417 94.256466 
L 1107.258548 96.653246 
L 1109.96668 99.759358 
L 1112.674812 103.383997 
L 1115.382943 107.346648 
L 1118.091075 111.486495 
L 1120.799207 115.665506 
L 1123.507338 119.766306 
L 1126.21547 123.687095 
L 1128.923602 127.336276 
L 1131.631733 130.629237 
L 1134.339865 133.48886 
L 1137.047996 135.850147 
L 1139.756128 137.668139 
L 1142.46426 138.927352 
L 1145.172391 139.650476 
L 1147.880523 139.904107 
L 1150.588655 139.799812 
L 1153.296786 139.489608 
L 1156.004918 139.155949 
L 1158.71305 138.997167 
L 1161.421181 139.210136 
L 1164.129313 139.972353 
L 1166.837445 141.425829 
L 1169.545576 143.664941 
L 1172.253708 146.729888 
L 1174.96184 150.606482 
L 1177.669971 155.23203 
L 1180.378103 160.506016 
L 1183.086235 166.303542 
L 1185.794366 172.489087 
L 1188.502498 178.928352 
L 1191.21063 185.496563 
L 1193.918761 192.082605 
L 1196.626893 198.589385 
L 1199.335025 204.931661 
L 1202.043156 211.032972 
L 1204.751288 216.823241 
L 1207.45942 222.238103 
L 1210.167551 227.220271 
L 1212.875683 231.722545 
L 1215.583815 235.711487 
L 1218.291946 239.170661 
L 1221.000078 242.102454 
L 1223.70821 244.5279 
L 1226.416341 246.484466 
L 1229.124473 248.022182 
L 1231.832605 249.198835 
L 1234.540736 250.075001 
L 1237.248868 250.709628 
L 1239.957 251.156636 
L 1242.665131 251.462746 
L 1245.373263 251.666515 
L 1248.081394 251.798352 
L 1250.789526 251.88125 
" style="fill:none;stroke:#937860;stroke-linecap:round;stroke-width:1.5;"/>
   </g>
   <g id="patch_43">
    <path d="M 967.764706 252 
L 967.764706 34.56 
" style="fill:none;stroke:#cccccc;stroke-linecap:square;stroke-linejoin:miter;stroke-width:1.25;"/>
   </g>
   <g id="patch_44">
    <path d="M 1296 252 
L 1296 34.56 
" style="fill:none;stroke:#cccccc;stroke-linecap:square;stroke-linejoin:miter;stroke-width:1.25;"/>
   </g>
   <g id="patch_45">
    <path d="M 967.764706 252 
L 1296 252 
" style="fill:none;stroke:#cccccc;stroke-linecap:square;stroke-linejoin:miter;stroke-width:1.25;"/>
   </g>
   <g id="patch_46">
    <path d="M 967.764706 34.56 
L 1296 34.56 
" style="fill:none;stroke:#cccccc;stroke-linecap:square;stroke-linejoin:miter;stroke-width:1.25;"/>
   </g>
   <g id="text_31">
    <!-- Other's Income Distribution -->
    <defs>
     <path d="M 4.828125 34.859375 
Q 4.828125 52.6875 14.390625 62.765625 
Q 23.96875 72.859375 39.109375 72.859375 
Q 49.03125 72.859375 56.984375 68.109375 
Q 64.9375 63.375 69.109375 54.90625 
Q 73.296875 46.4375 73.296875 35.6875 
Q 73.296875 24.8125 68.890625 16.21875 
Q 64.5 7.625 56.4375 3.203125 
Q 48.390625 -1.21875 39.0625 -1.21875 
Q 28.953125 -1.21875 20.984375 3.65625 
Q 13.03125 8.546875 8.921875 16.984375 
Q 4.828125 25.4375 4.828125 34.859375 
z
M 14.59375 34.71875 
Q 14.59375 21.78125 21.546875 14.328125 
Q 28.515625 6.890625 39.015625 6.890625 
Q 49.703125 6.890625 56.609375 14.40625 
Q 63.53125 21.921875 63.53125 35.75 
Q 63.53125 44.484375 60.578125 51 
Q 57.625 57.515625 51.921875 61.109375 
Q 46.234375 64.703125 39.15625 64.703125 
Q 29.109375 64.703125 21.84375 57.78125 
Q 14.59375 50.875 14.59375 34.71875 
z
" id="ArialMT-79"/>
     <path d="M 6.59375 0 
L 6.59375 71.578125 
L 15.375 71.578125 
L 15.375 45.90625 
Q 21.53125 53.03125 30.90625 53.03125 
Q 36.671875 53.03125 40.921875 50.75 
Q 45.171875 48.484375 47 44.484375 
Q 48.828125 40.484375 48.828125 32.859375 
L 48.828125 0 
L 40.046875 0 
L 40.046875 32.859375 
Q 40.046875 39.453125 37.1875 42.453125 
Q 34.328125 45.453125 29.109375 45.453125 
Q 25.203125 45.453125 21.75 43.421875 
Q 18.3125 41.40625 16.84375 37.9375 
Q 15.375 34.46875 15.375 28.375 
L 15.375 0 
z
" id="ArialMT-104"/>
    </defs>
    <g style="fill:#262626;" transform="translate(1041.671415 28.56)scale(0.15 -0.15)">
     <use xlink:href="#ArialMT-79"/>
     <use x="77.783203" xlink:href="#ArialMT-116"/>
     <use x="105.566406" xlink:href="#ArialMT-104"/>
     <use x="161.181641" xlink:href="#ArialMT-101"/>
     <use x="216.796875" xlink:href="#ArialMT-114"/>
     <use x="250.097656" xlink:href="#ArialMT-39"/>
     <use x="269.189453" xlink:href="#ArialMT-115"/>
     <use x="319.189453" xlink:href="#ArialMT-32"/>
     <use x="346.972656" xlink:href="#ArialMT-73"/>
     <use x="374.755859" xlink:href="#ArialMT-110"/>
     <use x="430.371094" xlink:href="#ArialMT-99"/>
     <use x="480.371094" xlink:href="#ArialMT-111"/>
     <use x="535.986328" xlink:href="#ArialMT-109"/>
     <use x="619.287109" xlink:href="#ArialMT-101"/>
     <use x="674.902344" xlink:href="#ArialMT-32"/>
     <use x="702.685547" xlink:href="#ArialMT-68"/>
     <use x="774.902344" xlink:href="#ArialMT-105"/>
     <use x="797.119141" xlink:href="#ArialMT-115"/>
     <use x="847.119141" xlink:href="#ArialMT-116"/>
     <use x="874.902344" xlink:href="#ArialMT-114"/>
     <use x="908.203125" xlink:href="#ArialMT-105"/>
     <use x="930.419922" xlink:href="#ArialMT-98"/>
     <use x="986.035156" xlink:href="#ArialMT-117"/>
     <use x="1041.650391" xlink:href="#ArialMT-116"/>
     <use x="1069.433594" xlink:href="#ArialMT-105"/>
     <use x="1091.650391" xlink:href="#ArialMT-111"/>
     <use x="1147.265625" xlink:href="#ArialMT-110"/>
    </g>
   </g>
  </g>
 </g>
 <defs>
  <clipPath id="p4522fed061">
   <rect height="217.44" width="328.235294" x="180" y="34.56"/>
  </clipPath>
  <clipPath id="p47f3d4aded">
   <rect height="217.44" width="328.235294" x="573.882353" y="34.56"/>
  </clipPath>
  <clipPath id="p3ec2948b41">
   <rect height="217.44" width="328.235294" x="967.764706" y="34.56"/>
  </clipPath>
 </defs>
</svg>
